{"glyphs":{"0":{"ha":706,"x_min":0,"x_max":0,"o":""},"1":{"ha":490,"x_min":0,"x_max":0,"o":""},"2":{"ha":696,"x_min":0,"x_max":0,"o":""},"3":{"ha":677,"x_min":0,"x_max":0,"o":""},"4":{"ha":715,"x_min":0,"x_max":0,"o":""},"5":{"ha":712,"x_min":0,"x_max":0,"o":""},"6":{"ha":664,"x_min":0,"x_max":0,"o":""},"7":{"ha":593,"x_min":0,"x_max":0,"o":""},"8":{"ha":680,"x_min":0,"x_max":0,"o":""},"9":{"ha":667,"x_min":0,"x_max":0,"o":""},"\u0000":{"ha":0,"x_min":0,"x_max":0,"o":""}," ":{"ha":326,"x_min":0,"x_max":0,"o":""},"!":{"ha":313,"x_min":19,"x_max":299,"o":"m 26 732 q 37 716 33 728 q 31 717 36 707 q 26 732 26 726 m 80 246 q 73 245 77 245 l 68 246 l 63 246 q 53 241 53 248 q 61 241 56 241 l 65 241 l 70 240 q 80 246 81 239 m 278 941 q 294 907 293 931 q 294 886 295 899 l 294 876 l 294 866 q 290 548 299 747 l 288 511 l 287 475 q 284 406 285 434 q 283 289 281 334 q 290 166 296 241 l 288 136 l 285 107 q 283 54 282 74 q 256 26 251 59 q 21 0 142 32 q 22 45 19 20 l 24 64 q 26 85 26 77 q 37 71 37 83 l 36 65 l 35 59 q 37 43 35 50 q 43 148 45 83 l 41 174 l 41 198 q 43 246 41 226 q 81 254 59 254 l 92 253 l 102 252 q 128 251 117 251 q 79 271 117 267 l 63 273 l 48 273 q 21 278 31 275 q 22 359 22 310 l 21 401 l 20 441 q 32 593 20 541 q 35 571 37 583 l 35 566 l 35 561 q 37 545 35 553 q 43 733 45 613 l 41 779 q 41 823 41 806 q 43 903 41 872 l 88 903 l 134 903 q 219 909 184 904 q 216 914 220 913 l 213 914 l 209 914 q 203 925 199 915 q 222 930 210 926 l 233 934 l 242 937 q 278 941 267 947 z "},"\"":{"ha":529,"x_min":16,"x_max":507,"o":"m 35 914 q 24 899 27 922 q 24 879 24 890 q 24 861 24 869 q 18 903 16 865 l 20 920 l 22 935 q 24 962 24 954 q 146 975 87 972 q 275 962 227 977 q 380 973 309 973 l 410 973 l 441 972 q 505 973 480 972 q 504 761 507 876 l 503 714 l 501 666 q 500 562 500 609 q 439 562 476 562 l 410 561 l 379 561 q 264 566 307 561 l 264 647 q 271 631 271 646 l 270 625 l 269 620 q 270 610 269 613 q 270 903 281 742 q 262 734 263 831 l 262 694 l 261 652 q 259 562 260 601 q 199 562 235 562 l 169 561 l 138 561 q 24 566 66 561 l 24 647 q 30 631 31 646 l 29 625 l 28 620 q 29 610 28 613 q 35 768 37 671 l 34 805 l 33 842 q 35 914 33 884 z "},"#":{"ha":857,"x_min":20,"x_max":849,"o":"m 480 796 q 484 798 481 804 q 486 786 486 791 q 481 785 484 779 q 480 796 479 791 m 378 187 q 374 201 379 196 q 368 205 372 203 l 362 208 q 360 197 363 203 l 358 193 q 357 187 357 191 l 378 187 m 421 465 q 395 471 405 463 q 394 457 395 464 l 393 452 l 391 447 q 389 422 387 434 l 432 422 q 443 465 441 444 q 430 465 436 468 q 422 458 427 463 q 410 454 414 448 q 417 458 414 455 l 419 462 l 421 465 m 443 486 q 446 492 443 488 l 450 496 l 452 500 q 448 513 458 509 q 446 506 448 511 l 443 502 l 441 498 q 443 486 437 487 m 443 519 q 446 531 441 526 l 449 532 l 451 534 q 453 540 453 536 q 441 539 446 542 q 434 532 436 536 q 435 523 433 527 q 443 519 437 519 m 267 877 q 267 884 268 889 q 264 869 266 880 q 262 859 262 859 q 267 877 262 858 m 273 895 l 274 897 q 277 904 276 901 q 271 914 280 913 q 271 907 273 911 l 270 904 l 267 901 q 271 892 263 895 l 273 895 m 298 925 q 288 927 293 924 l 283 929 q 277 930 280 930 q 277 922 274 925 q 285 918 279 919 q 294 920 290 918 q 298 925 299 922 m 764 540 q 744 536 752 541 q 737 532 741 534 l 732 526 q 699 524 718 515 q 696 516 699 522 l 694 511 l 692 507 q 694 492 686 494 q 709 508 692 507 l 718 508 l 726 508 q 742 508 737 507 q 753 524 745 513 l 758 532 l 764 540 m 707 492 l 705 481 l 702 471 l 699 460 q 717 460 708 459 l 725 462 l 733 463 q 769 465 753 467 q 775 453 773 461 l 777 446 l 779 437 q 795 417 783 419 q 819 290 800 357 l 826 262 l 834 234 q 849 176 844 200 q 741 170 807 168 q 687 174 718 171 l 674 174 l 663 175 q 640 176 648 176 q 621 118 629 156 l 615 85 q 608 54 611 65 q 531 39 574 45 l 494 33 l 456 28 q 309 0 362 14 q 306 26 300 9 l 309 33 l 311 40 q 315 54 315 48 q 243 41 282 47 q 176 31 220 37 q 47 11 90 20 q 56 71 47 38 l 60 85 l 64 99 q 71 125 68 116 q 47 219 85 183 q 36 339 50 269 l 31 367 l 26 395 q 20 454 21 427 q 138 454 115 452 q 144 486 144 460 l 144 496 l 144 505 q 149 519 145 514 l 26 519 q 33 575 28 543 l 37 603 l 42 631 q 47 753 52 698 q 66 762 60 751 l 67 767 l 69 772 q 74 781 71 778 q 145 774 98 774 l 165 775 l 185 775 q 224 775 208 776 q 245 857 235 801 l 250 879 l 254 901 q 267 941 260 924 q 374 920 305 924 q 437 919 399 918 l 469 919 l 501 920 q 493 884 499 906 l 487 865 l 481 844 q 464 775 465 793 q 467 770 464 772 l 471 768 l 473 766 q 464 764 478 764 q 501 753 470 752 q 526 834 518 783 l 530 855 l 533 876 q 544 920 538 901 l 769 920 q 758 879 766 904 l 752 858 l 746 837 q 736 753 732 785 q 757 779 754 754 l 758 790 l 758 800 q 764 818 760 812 q 768 787 772 808 q 764 771 766 780 l 760 764 q 758 759 760 762 q 774 753 762 754 l 785 753 l 795 753 q 804 693 789 719 q 819 672 808 685 l 826 663 l 833 652 q 795 540 786 606 q 769 536 779 543 q 762 528 766 532 l 755 518 q 710 503 740 494 l 707 492 m 512 818 q 517 831 517 833 q 514 821 517 830 q 510 809 511 812 q 512 818 509 806 z "},"$":{"ha":745,"x_min":-2,"x_max":729,"o":"m 296 684 q 301 681 299 683 l 304 678 q 313 673 309 673 q 309 667 312 668 q 302 669 306 667 q 297 675 298 671 q 296 684 295 680 m 516 85 q 532 96 527 90 q 516 92 526 96 q 516 85 507 86 m 607 133 q 610 140 606 136 l 614 142 l 618 144 q 617 154 628 149 q 614 148 618 151 l 611 144 l 607 142 q 607 133 599 136 m 286 363 q 302 365 294 365 l 310 364 l 316 363 q 340 374 330 363 q 318 384 331 377 l 308 389 l 298 395 q 259 400 277 405 l 266 395 l 271 392 q 279 385 277 388 q 286 363 286 378 m 617 523 q 612 527 611 527 q 617 526 613 528 q 623 522 622 524 q 617 517 624 519 q 650 488 635 504 q 683 442 669 466 q 708 304 718 379 q 676 217 703 264 l 665 199 l 653 181 q 633 149 640 159 q 690 219 665 164 q 724 326 711 263 q 701 223 729 288 q 639 127 673 158 q 557 85 610 103 l 535 79 l 513 72 q 473 58 488 64 l 473 -6 q 409 -20 441 10 q 397 -31 404 -24 l 392 -37 l 387 -43 q 372 -54 377 -54 q 350 -44 361 -55 q 340 -34 347 -41 l 335 -28 l 330 -22 q 259 -6 300 7 q 198 73 254 37 q 174 88 187 80 l 149 102 q 104 127 117 119 q 89 155 105 144 l 81 160 l 75 164 q 62 176 66 170 q 19 389 -2 258 q 138 396 72 391 l 196 401 l 254 406 q 209 431 241 417 l 197 436 l 184 441 q 163 454 172 448 q 156 461 159 456 l 153 465 l 151 469 q 136 475 144 477 q 119 503 130 490 l 109 514 l 99 524 q 67 571 74 549 q 58 579 62 575 l 55 583 l 52 587 q 40 598 46 595 q 44 650 43 619 l 45 675 l 46 700 q 67 790 50 757 q 123 854 82 821 l 140 867 l 158 880 q 190 908 178 896 q 203 943 195 924 l 216 977 l 231 1012 q 243 1047 238 1031 q 299 1038 267 1044 l 326 1031 l 353 1026 q 473 1015 420 1014 q 494 999 467 996 l 494 951 q 671 795 593 903 q 710 724 702 753 q 708 619 721 684 l 585 632 q 463 646 515 640 q 398 710 448 704 q 444 701 420 720 q 460 682 452 693 q 473 662 467 673 q 450 708 476 690 q 391 728 427 725 q 326 719 355 731 q 286 678 294 705 q 343 640 303 655 l 361 633 l 379 627 q 414 614 402 618 q 417 618 420 616 q 409 619 414 620 q 412 625 409 625 q 420 623 416 625 q 425 616 425 619 q 420 614 425 614 l 441 603 q 463 593 453 596 q 516 582 488 582 q 562 548 528 564 l 575 541 l 589 534 q 612 517 604 526 l 617 517 l 617 523 m 457 608 q 447 605 452 604 q 440 610 442 606 q 442 613 438 613 q 457 608 447 614 m 318 662 q 321 665 319 666 q 323 662 323 665 q 329 667 328 661 q 338 661 336 664 q 335 659 338 659 q 327 659 332 658 q 318 662 321 660 m 473 598 q 467 600 467 598 q 473 604 468 602 q 481 604 478 605 q 484 598 486 602 q 486 595 490 593 l 484 596 l 480 597 q 473 598 476 598 m 543 68 q 525 50 547 59 q 484 42 505 43 q 498 50 488 47 l 506 52 l 515 54 q 543 68 536 59 z "},"%":{"ha":1212,"x_min":27,"x_max":1197,"o":"m 332 31 q 342 37 332 37 l 347 36 l 351 35 q 359 36 356 35 q 349 30 359 29 l 344 31 l 339 31 q 332 31 334 32 m 369 234 q 373 241 371 235 q 378 251 376 246 q 379 258 380 256 q 374 255 378 260 q 370 248 373 254 q 366 238 368 243 q 365 231 364 233 q 369 234 366 229 m 942 269 l 943 273 q 947 277 943 277 q 951 273 947 275 q 958 272 955 272 q 962 273 962 272 q 958 277 962 275 l 947 279 l 939 281 q 925 282 929 283 q 930 279 928 281 l 931 276 l 932 273 q 941 266 935 265 l 942 269 m 626 244 q 629 258 625 251 l 633 265 l 637 272 q 642 292 647 288 q 635 277 641 288 l 629 268 l 625 259 q 626 244 612 237 m 311 624 q 273 629 292 640 q 278 623 274 629 l 281 619 l 285 616 q 300 618 294 608 q 295 621 291 622 l 300 621 l 305 620 q 311 624 311 621 m 567 694 q 643 821 597 739 l 680 886 q 717 950 700 923 q 789 947 747 948 l 827 947 l 865 947 q 1010 945 968 947 q 989 886 1006 918 q 974 857 984 876 l 966 842 l 958 827 q 916 749 941 796 l 894 708 l 871 667 q 830 595 857 639 l 808 559 l 786 522 q 807 536 791 525 q 821 545 816 542 l 836 555 q 899 576 876 578 q 876 560 901 568 l 865 557 l 855 553 q 840 544 844 549 q 867 551 851 547 q 903 559 885 555 q 984 570 950 568 q 989 560 983 562 q 1187 351 1167 505 q 1187 302 1190 334 l 1186 276 q 1187 250 1186 262 l 1189 237 l 1191 224 q 1194 196 1194 206 q 1187 138 1197 162 q 1149 106 1177 130 q 1126 87 1135 95 q 1101 68 1114 77 l 1090 60 l 1079 51 q 1055 33 1064 39 q 1005 9 1025 12 q 920 13 966 3 q 845 47 869 23 q 727 148 764 74 q 685 325 699 205 q 662 290 674 310 l 652 271 l 642 252 q 599 180 616 203 q 606 205 595 186 l 610 212 l 614 220 q 621 234 619 229 q 588 191 604 218 l 574 167 l 562 143 q 513 41 530 81 q 454 40 489 40 l 425 41 l 394 41 q 273 36 318 43 q 298 97 278 63 l 305 111 l 313 124 q 326 153 321 140 q 322 150 323 153 l 321 146 l 321 143 q 313 148 309 142 l 315 151 l 316 155 q 316 164 318 160 q 287 121 301 147 l 275 98 l 262 73 q 279 125 257 94 l 288 137 q 296 150 293 144 q 305 180 304 165 q 349 235 330 199 l 357 250 l 365 264 q 385 292 375 281 q 381 297 384 298 q 374 290 379 296 q 364 288 366 278 q 387 341 367 311 l 395 353 l 402 365 q 412 394 410 380 l 399 390 l 386 387 q 361 379 370 381 q 316 373 334 372 q 301 371 309 373 l 296 370 l 290 368 q 257 368 275 363 q 241 372 252 368 l 233 376 l 225 378 q 203 387 213 381 l 196 390 q 187 394 192 393 q 104 460 152 408 l 85 481 l 66 502 q 27 538 44 526 l 28 562 l 31 587 q 35 637 33 616 q 52 737 41 696 q 150 876 80 847 q 153 869 155 874 q 144 865 150 865 q 161 869 151 863 l 170 876 l 178 884 q 209 897 201 903 q 203 902 210 901 q 204 911 203 909 q 206 909 205 911 q 208 905 208 908 q 209 902 209 902 q 229 906 217 901 l 234 908 l 239 909 q 252 913 245 912 q 345 905 295 918 q 382 893 362 901 q 398 886 389 890 l 406 884 l 412 880 q 414 881 414 880 q 415 884 416 882 q 414 886 415 885 q 412 886 414 887 q 435 878 422 890 q 445 866 439 873 l 450 859 l 455 854 q 508 779 475 831 q 543 742 529 770 l 549 730 l 555 717 q 567 694 562 702 m 503 806 q 503 807 500 811 q 507 798 504 804 q 510 792 510 791 q 503 806 509 793 m 342 266 q 342 252 349 263 l 338 248 l 336 242 q 332 234 332 237 q 332 248 323 239 l 336 253 l 339 257 q 342 266 342 262 z "},"&":{"ha":1064,"x_min":27,"x_max":1048,"o":"m 974 43 l 968 42 q 962 37 963 41 q 970 38 965 39 l 975 37 l 979 37 q 989 43 990 36 q 984 45 987 42 l 982 47 l 979 50 q 973 48 975 56 q 979 43 980 47 l 974 43 m 407 294 q 412 273 406 279 q 408 274 410 273 l 405 276 q 396 278 401 279 q 412 263 397 259 l 419 266 l 426 269 q 439 273 435 272 q 429 294 437 286 q 412 304 422 300 q 396 306 404 306 q 391 305 393 306 q 391 304 390 305 q 399 296 391 294 l 401 297 l 404 298 q 407 294 406 298 m 374 299 q 338 320 358 286 l 331 334 l 323 349 q 305 369 313 364 q 314 307 296 330 q 333 288 319 300 l 343 279 q 353 267 349 273 q 348 271 352 269 q 339 273 343 273 q 326 267 328 275 q 343 264 332 267 l 353 261 l 362 258 q 396 262 385 253 q 384 273 382 258 l 385 279 l 384 286 q 374 299 382 294 m 305 412 q 306 399 302 403 q 315 395 309 395 q 325 400 321 396 q 326 412 329 405 l 305 412 m 604 663 q 596 648 597 652 q 600 646 596 644 q 605 652 603 648 q 604 663 608 658 m 562 850 q 557 854 560 850 l 553 858 l 551 861 q 541 861 543 869 q 547 858 543 861 l 550 854 l 553 850 q 562 850 559 842 m 754 332 q 746 331 750 333 q 740 326 742 330 q 738 319 737 322 q 743 315 739 316 q 749 323 744 319 l 752 327 q 754 332 753 329 m 1048 16 q 863 7 984 7 l 816 7 l 769 7 q 674 0 717 5 q 610 54 656 22 q 500 31 564 54 l 475 22 q 449 14 461 17 q 385 5 418 6 q 228 37 304 4 q 113 123 153 69 q 102 146 108 129 l 98 159 q 92 171 94 166 q 27 283 46 243 q 60 475 35 408 q 166 604 93 564 q 142 726 137 664 q 177 836 146 785 q 258 914 208 884 q 369 946 310 944 q 475 922 416 947 l 499 911 l 524 899 q 572 877 554 884 q 593 827 578 859 l 604 802 l 614 776 q 626 663 637 715 q 614 636 623 650 q 595 612 608 627 q 567 567 569 581 q 564 561 567 566 l 561 557 l 557 551 q 551 524 549 537 q 546 560 541 536 q 562 588 550 583 q 530 568 553 588 l 521 559 l 512 551 q 492 540 501 543 q 511 515 500 528 l 532 492 l 553 469 q 572 444 564 455 l 583 456 l 593 468 q 615 492 607 483 q 669 529 642 518 q 671 533 674 531 q 663 534 668 535 q 829 545 735 548 q 829 488 829 521 l 829 462 l 829 437 q 829 332 829 380 q 764 326 792 337 q 722 299 746 319 q 962 64 840 172 q 948 81 955 71 l 942 89 l 937 98 q 909 128 923 119 q 904 130 907 130 l 898 130 q 888 134 890 130 q 887 136 888 134 l 887 139 l 886 142 l 885 149 q 882 155 884 153 q 834 203 867 176 q 844 206 838 213 l 847 203 l 850 201 q 856 198 853 197 q 817 252 851 216 l 804 266 l 791 280 q 770 310 777 296 q 810 272 787 294 q 850 230 824 258 q 882 187 863 216 l 897 163 q 914 139 907 149 q 953 97 928 121 l 972 79 q 989 59 982 68 l 996 50 l 1002 41 q 1016 26 1009 31 q 1019 27 1017 26 l 1021 28 l 1024 29 q 1021 26 1028 31 q 1026 24 1023 25 l 1029 24 l 1034 24 q 1048 16 1044 23 m 947 128 q 972 110 957 132 l 979 101 l 985 92 q 1000 80 993 83 q 974 98 990 77 l 967 106 l 960 115 q 947 128 953 125 z "},"'":{"ha":294,"x_min":11,"x_max":266,"o":"m 266 968 q 260 562 256 764 q 140 555 213 554 q 20 562 87 555 l 20 642 q 31 665 30 604 q 31 716 32 684 l 31 728 l 31 739 q 31 753 31 750 q 31 795 31 771 l 31 814 l 30 833 q 31 898 30 877 q 19 883 18 900 l 20 876 l 20 868 q 20 855 21 859 q 15 897 11 860 l 17 913 l 19 929 q 20 957 21 947 q 133 968 61 967 l 165 968 l 198 967 q 266 968 239 967 z "},"(":{"ha":587,"x_min":14,"x_max":602,"o":"m 286 431 q 297 415 297 427 q 286 431 286 418 m 527 -109 q 564 -115 547 -114 q 602 -109 587 -115 q 564 -122 598 -121 q 527 -109 530 -123 m 553 -77 q 536 -77 547 -78 l 528 -77 l 518 -77 q 489 -83 496 -75 q 506 -82 496 -81 l 515 -83 l 525 -83 q 553 -77 547 -84 m 522 -45 q 525 -42 528 -48 q 513 -29 522 -37 q 500 -17 506 -21 q 500 -18 496 -12 q 511 -32 502 -24 l 517 -37 q 522 -45 520 -41 m 323 725 q 321 711 324 719 l 318 705 l 315 698 q 313 677 306 683 q 317 688 313 681 l 320 695 l 323 703 q 323 725 330 719 m 570 1061 q 496 950 542 1013 q 455 897 482 931 l 435 869 l 414 842 q 401 825 410 836 l 386 808 q 361 773 368 786 q 329 668 343 740 l 323 640 l 316 611 q 297 553 308 579 q 302 610 295 574 l 306 625 l 309 640 q 313 671 312 656 q 292 627 300 661 q 285 598 288 614 q 281 570 283 585 q 278 415 271 495 q 313 281 286 325 q 317 243 307 266 q 326 224 319 236 l 330 215 l 334 206 q 338 203 336 201 q 340 212 340 207 q 403 97 351 161 l 425 71 l 448 45 q 489 -7 475 14 q 498 -2 490 4 l 501 -5 l 506 -10 q 516 -18 512 -16 q 481 36 511 1 l 469 50 l 456 65 q 436 94 443 81 q 465 68 451 85 q 477 54 471 62 l 489 37 q 543 -18 518 -5 q 552 -40 545 -29 l 558 -49 l 565 -58 q 585 -98 582 -81 q 511 -98 549 -101 l 494 -96 l 477 -95 q 436 -93 456 -94 q 439 -98 435 -98 l 444 -99 l 449 -98 q 457 -109 462 -98 q 412 -115 439 -117 l 399 -113 l 387 -111 q 361 -109 372 -109 q 336 -112 351 -109 l 323 -114 l 311 -117 q 264 -120 279 -123 q 243 -105 253 -117 l 239 -99 l 235 -92 q 222 -77 228 -83 q 211 -66 218 -73 l 199 -56 q 179 -39 183 -45 q 178 -36 179 -39 l 178 -33 l 177 -29 q 169 -13 174 -19 q 90 130 127 35 q 40 302 54 220 q 40 602 14 466 q 45 633 42 612 l 47 651 l 50 671 q 67 746 58 722 q 70 749 67 747 l 75 751 q 83 757 83 755 q 82 760 83 758 l 79 764 q 78 773 76 769 q 80 774 78 774 l 83 774 q 88 779 87 774 q 92 786 89 781 l 94 790 l 96 795 q 94 810 99 806 q 97 814 94 814 q 99 810 99 813 q 157 923 115 857 l 175 951 l 193 978 q 227 1035 214 1011 q 570 1061 417 1053 m 355 184 l 360 179 q 366 163 366 172 q 351 190 353 168 l 355 184 z "},")":{"ha":587,"x_min":14,"x_max":586,"o":"m 281 667 q 279 672 280 668 l 278 679 q 273 693 275 688 q 260 699 267 709 q 270 683 269 699 q 281 667 272 667 m 479 768 q 468 784 474 779 q 472 768 467 778 q 479 768 477 759 m 436 859 q 444 841 442 843 q 442 848 444 840 q 438 859 440 855 q 436 859 435 865 m 318 1046 q 346 1005 330 1033 l 353 993 l 360 981 l 375 955 q 446 869 413 890 q 416 930 437 897 l 399 959 l 382 987 q 505 709 470 897 q 511 718 510 711 l 511 724 l 511 731 q 536 685 530 718 l 538 671 l 539 656 q 543 629 541 639 q 517 216 586 435 q 323 -109 451 6 q 238 -106 281 -107 q 200 -106 220 -106 l 164 -106 q 14 -103 73 -106 l 35 -70 l 57 -36 q 102 33 82 3 q 201 170 155 111 q 204 172 201 170 l 209 176 q 217 180 216 180 q 219 202 219 185 l 220 215 q 222 229 220 222 q 228 240 224 234 l 235 252 q 249 277 245 267 q 283 540 289 399 q 212 779 276 694 q 236 749 222 779 l 242 736 q 249 726 245 730 q 264 709 256 713 q 170 879 237 785 l 142 918 l 115 956 q 62 1036 82 1001 l 308 1036 l 311 1038 l 314 1040 q 318 1046 317 1042 m 494 800 q 508 791 501 808 q 513 776 510 785 l 515 768 l 515 766 l 516 763 q 504 780 507 764 l 503 786 l 501 792 q 494 800 499 798 z "},"*":{"ha":694,"x_min":16,"x_max":679,"o":"m 551 509 q 562 513 559 507 l 563 517 l 564 519 q 567 525 565 524 q 551 509 549 526 m 669 610 q 659 583 672 604 q 651 565 653 574 q 652 541 648 553 q 625 535 637 543 q 616 527 621 532 l 608 517 q 567 503 589 494 q 575 466 564 484 l 580 459 l 584 452 q 588 434 588 444 l 567 423 l 545 412 q 538 374 547 395 l 535 366 l 532 358 q 530 338 529 348 l 511 342 l 492 346 q 460 359 472 351 q 412 332 434 349 q 395 352 406 338 l 388 363 q 380 373 383 369 q 326 380 358 395 q 300 332 304 356 q 176 343 241 370 q 172 372 176 354 l 168 387 q 166 401 166 395 q 113 434 141 423 q 126 468 115 450 l 131 475 l 136 482 q 144 498 142 491 q 81 506 117 505 l 66 506 l 50 507 q 16 509 31 507 q 39 627 25 549 l 41 644 l 44 661 q 50 697 47 682 q 64 776 58 740 l 113 776 q 102 813 114 787 q 81 851 92 835 q 305 979 178 922 q 348 899 328 941 q 364 914 355 903 l 372 924 q 380 931 376 928 q 370 909 383 932 q 359 887 363 896 q 353 867 353 875 q 342 883 347 871 q 340 874 335 882 l 343 871 l 345 867 q 348 861 348 864 q 401 952 378 892 q 436 940 418 950 q 452 930 443 937 l 467 920 q 530 899 503 895 q 526 895 530 896 l 522 895 l 519 894 q 528 888 522 891 l 538 882 q 559 869 551 875 q 593 840 585 853 q 566 803 585 834 q 540 749 549 773 q 587 753 562 756 l 599 751 q 613 749 606 750 q 652 749 631 748 q 679 648 646 666 q 671 637 677 642 l 667 632 l 662 627 q 652 600 651 616 l 652 589 q 663 597 659 590 l 665 604 q 669 610 667 608 m 572 808 q 579 818 576 817 q 581 815 581 819 q 581 806 582 811 q 578 798 579 800 q 569 793 572 789 q 572 808 566 795 z "},"+":{"ha":638,"x_min":21,"x_max":616,"o":"m 609 587 q 613 588 610 594 q 614 576 616 582 q 610 575 613 569 q 609 587 608 581 m 197 768 q 303 757 218 755 l 337 758 q 370 759 359 759 q 422 758 406 760 q 422 597 425 681 q 477 591 440 590 q 534 597 506 592 q 516 604 532 605 l 509 603 l 503 602 q 492 603 496 602 q 545 607 510 612 l 559 605 l 574 603 q 604 603 591 602 q 607 538 604 573 l 609 509 l 611 481 q 614 357 616 412 l 449 357 q 443 277 441 336 l 444 255 q 444 234 444 243 q 438 197 443 211 l 192 197 q 192 245 192 221 q 193 266 193 254 l 193 284 q 192 362 194 328 q 149 363 175 363 l 126 362 l 103 361 q 21 368 48 361 q 26 603 22 416 l 197 603 l 197 768 z "},",":{"ha":271,"x_min":-66,"x_max":260,"o":"m 3 130 q 9 129 7 142 q 9 118 9 124 q 9 109 9 112 q 4 111 5 98 q 3 121 3 115 q 3 130 3 127 m 14 200 q 260 210 92 217 q 191 -180 237 -71 q 73 -180 155 -182 l 39 -180 l 5 -179 q -66 -180 -35 -179 q -52 -140 -58 -166 l -47 -120 q -39 -100 -44 -109 q -34 -96 -37 -96 l -31 -95 l -28 -94 q -12 -73 -18 -92 q -12 -66 -12 -70 l -12 -59 q -12 -46 -14 -50 q -8 -40 -11 -43 q -3 -37 -7 -39 q 3 -30 3 -33 q 1 -21 5 -26 l -1 -18 q -1 -14 -2 -16 q 1 -8 -1 -14 l 3 -3 l 6 3 q 14 28 14 21 q 15 53 16 37 l 14 65 q 14 77 14 72 q 17 94 15 83 l 20 112 q 14 146 23 133 q 7 159 2 140 l 9 168 l 12 178 q 14 200 15 191 z "},"-":{"ha":509,"x_min":19,"x_max":493,"o":"m 493 623 q 467 483 484 565 l 454 414 l 439 345 q 258 344 368 340 l 211 345 l 186 347 l 161 347 q 55 351 100 350 q 49 371 60 368 q 37 372 45 372 l 30 372 l 22 372 q 23 433 24 399 l 22 460 l 22 487 q 22 586 19 552 q 79 587 45 588 l 109 587 l 139 585 q 237 596 212 583 q 215 607 233 606 q 199 607 210 608 l 191 607 l 183 607 q 240 612 203 620 l 256 608 l 271 605 q 300 602 289 602 q 302 609 309 601 q 300 614 300 613 q 306 618 300 618 q 493 623 374 626 z "},".":{"ha":271,"x_min":34,"x_max":283,"o":"m 250 214 q 251 180 251 202 l 250 159 l 250 140 q 256 85 249 92 q 254 73 256 83 l 254 68 l 252 63 l 251 52 q 250 0 248 19 l 37 0 q 37 61 37 29 q 36 87 36 73 l 35 113 q 37 214 34 173 q 250 214 197 214 m 271 155 q 282 144 281 155 q 277 128 283 134 q 271 138 270 127 l 271 143 l 272 147 q 271 155 273 153 z "},"/":{"ha":635,"x_min":27,"x_max":618,"o":"m 300 791 q 304 804 304 806 q 301 794 304 804 q 298 783 298 785 q 300 791 296 779 m 203 508 q 199 479 207 501 l 196 469 l 193 460 q 187 444 189 450 q 206 472 201 452 l 208 481 l 210 490 q 214 508 212 502 q 231 557 220 526 l 241 583 l 250 608 q 273 711 271 671 q 293 741 284 721 q 300 758 296 748 l 305 775 q 321 855 321 824 q 337 880 332 859 l 339 888 l 341 896 q 348 909 344 905 q 477 913 413 907 q 533 921 502 916 l 561 926 l 589 930 q 595 937 593 932 l 597 940 l 597 943 q 610 957 600 953 q 603 896 618 930 l 596 882 l 589 868 q 578 840 581 851 q 573 818 575 829 l 570 796 q 562 753 566 768 q 475 494 531 646 q 427 362 456 441 l 404 298 q 380 235 389 260 q 346 111 369 173 l 336 85 l 326 58 q 305 0 313 26 q 170 6 256 7 l 134 5 l 98 5 q 27 5 56 5 q 70 125 46 54 q 90 189 78 151 l 111 254 q 203 508 165 421 m 556 946 q 541 939 562 942 q 508 935 524 935 q 507 936 503 934 q 519 941 511 938 q 539 945 530 943 q 556 946 550 947 z "},":":{"ha":271,"x_min":20,"x_max":283,"o":"m 271 785 q 281 770 279 781 q 277 752 283 759 q 271 765 270 753 l 271 770 l 272 776 q 271 785 273 781 m 250 214 q 251 180 251 202 l 250 159 l 250 140 q 256 85 249 92 q 254 73 256 83 l 254 68 l 252 63 l 251 52 q 250 0 248 19 l 37 0 q 37 61 37 29 q 36 87 36 73 l 35 113 q 37 214 34 173 q 250 214 197 214 m 271 155 q 282 144 281 155 q 277 128 283 134 q 271 138 270 127 l 271 143 l 272 147 q 271 155 273 153 m 26 694 q 22 697 22 694 l 21 701 l 20 704 q 31 688 31 701 q 36 762 38 720 l 35 779 l 34 797 q 37 838 34 818 l 250 838 q 251 804 251 826 l 250 784 l 250 764 q 256 709 249 716 q 254 697 256 707 l 254 692 l 252 687 l 251 675 q 250 624 248 644 l 37 624 q 37 644 36 631 l 37 654 l 37 665 q 26 694 36 687 z "},";":{"ha":271,"x_min":-66,"x_max":283,"o":"m 271 785 q 281 770 279 781 q 277 752 283 759 q 271 765 270 753 l 271 770 l 272 776 q 271 785 273 781 m 26 694 q 22 697 22 694 l 21 701 l 20 704 q 31 688 31 701 q 36 762 38 720 l 35 779 l 34 797 q 37 838 34 818 l 250 838 q 251 804 251 826 l 250 784 l 250 764 q 256 709 249 716 q 254 697 256 707 l 254 692 l 252 687 l 251 675 q 250 624 248 644 l 37 624 q 37 644 36 631 l 37 654 l 37 665 q 26 694 36 687 m 3 130 q 9 129 7 142 q 9 118 9 124 q 9 109 9 112 q 4 111 5 98 q 3 121 3 115 q 3 130 3 127 m 14 200 q 260 210 92 217 q 191 -180 237 -71 q 73 -180 155 -182 l 39 -180 l 5 -179 q -66 -180 -35 -179 q -52 -140 -58 -166 l -47 -120 q -39 -100 -44 -109 q -34 -96 -37 -96 l -31 -95 l -28 -94 q -12 -73 -18 -92 q -12 -66 -12 -70 l -12 -59 q -12 -46 -14 -50 q -8 -40 -11 -43 q -3 -37 -7 -39 q 3 -30 3 -33 q 1 -21 5 -26 l -1 -18 q -1 -14 -2 -16 q 1 -8 -1 -14 l 3 -3 l 6 3 q 14 28 14 21 q 15 53 16 37 l 14 65 q 14 77 14 72 q 17 94 15 83 l 20 112 q 14 146 23 133 q 7 159 2 140 l 9 168 l 12 178 q 14 200 15 191 z "},"<":{"ha":761,"x_min":18,"x_max":731,"o":"m 458 713 q 479 724 460 726 q 458 713 475 714 m 95 569 q 121 579 115 568 q 110 578 117 581 q 98 572 104 576 q 94 569 96 570 q 91 567 92 568 q 92 566 90 566 q 95 569 92 567 m 661 799 q 608 787 643 802 l 593 781 l 578 775 q 549 766 562 768 q 715 831 618 807 q 703 754 709 795 l 701 736 l 699 719 q 694 681 696 696 q 704 697 700 686 q 706 614 713 667 l 703 592 l 701 570 q 699 526 698 545 q 555 473 641 507 q 731 403 633 431 q 688 152 677 318 q 646 168 671 155 q 637 155 636 163 l 637 152 l 637 149 q 635 141 637 144 q 496 195 578 162 q 421 226 465 208 l 382 241 l 344 257 q 25 382 141 339 q 28 484 18 437 q 39 524 31 500 l 45 546 q 52 569 50 559 q 110 591 73 579 l 140 602 l 170 612 q 155 597 176 604 l 146 595 l 138 592 q 127 585 130 589 q 184 600 150 584 l 198 606 l 213 614 q 245 627 232 623 q 281 640 258 633 l 300 645 l 319 651 q 378 686 362 665 q 415 690 394 681 l 423 693 l 433 697 q 453 703 444 701 q 448 708 454 707 q 465 711 446 708 q 485 716 476 713 q 507 724 497 720 q 560 745 542 740 q 661 799 623 764 m 357 675 q 370 686 370 686 q 362 680 370 685 q 352 672 355 674 q 357 675 349 669 m 720 724 q 718 754 715 730 q 726 788 721 777 l 726 740 q 721 734 722 739 l 721 729 l 720 724 z "},"=":{"ha":738,"x_min":31,"x_max":713,"o":"m 109 241 q 101 240 106 239 l 96 241 l 92 241 q 82 235 81 242 q 90 235 84 236 l 94 235 l 98 235 q 109 241 109 234 m 296 481 q 279 481 284 483 q 279 477 276 480 q 286 475 281 475 q 296 481 292 475 m 87 497 q 90 503 86 502 q 98 503 92 503 q 109 508 111 500 q 87 507 98 511 q 87 497 75 503 m 312 727 q 296 727 300 729 q 294 723 292 726 q 302 721 297 720 q 312 727 308 722 m 713 753 q 701 686 709 723 l 695 654 l 689 624 q 670 497 674 548 q 688 491 672 490 l 694 492 l 701 492 q 713 492 709 493 q 707 442 711 469 l 702 419 l 696 395 l 695 387 l 694 378 q 691 358 693 366 q 688 349 690 354 l 683 338 q 675 321 676 326 q 675 302 674 313 l 676 292 l 677 281 q 675 241 680 256 q 671 237 675 239 l 667 234 l 664 231 q 659 214 654 222 q 178 224 486 210 q 155 224 168 225 l 130 222 q 82 224 99 221 q 72 230 77 225 l 68 234 l 64 237 q 34 241 52 247 q 35 299 35 265 l 34 330 l 33 359 q 34 454 31 431 q 126 455 77 456 l 148 455 l 170 455 q 221 454 199 454 q 211 460 221 461 l 206 460 l 201 459 q 194 460 197 458 q 210 471 199 466 q 175 475 193 472 l 160 478 l 146 481 q 82 486 113 487 q 73 494 77 488 l 68 499 l 64 503 q 34 508 54 513 q 34 564 35 532 l 34 592 l 33 620 q 34 722 32 690 q 74 726 49 726 q 97 724 83 725 l 121 722 q 216 732 185 718 q 174 740 201 740 l 163 740 l 153 740 q 135 743 142 741 q 214 746 165 754 l 234 742 l 254 739 q 296 738 277 736 q 295 743 302 740 q 291 747 291 745 q 296 753 290 750 q 511 758 391 760 l 560 756 l 610 755 q 713 753 672 754 z "},">":{"ha":761,"x_min":25,"x_max":740,"o":"m 597 396 q 629 412 618 400 q 597 396 608 409 m 629 626 q 651 612 624 624 q 677 600 660 607 l 690 595 l 704 589 q 705 553 706 572 q 704 519 705 541 q 704 455 701 475 q 715 444 705 445 q 715 436 717 439 q 713 435 714 435 l 709 434 q 704 423 701 432 q 726 468 725 429 l 726 485 l 725 503 q 726 535 724 524 q 734 486 740 522 l 732 471 l 730 454 q 730 423 728 436 q 648 396 701 410 l 628 391 l 608 386 q 570 375 585 380 q 576 370 571 371 l 581 370 l 587 370 q 558 347 578 353 l 549 345 l 541 343 q 522 338 529 340 q 477 318 503 330 l 433 297 q 340 258 376 271 l 262 229 l 183 199 q 25 145 90 165 q 33 237 27 190 q 38 277 35 256 q 43 315 39 291 q 57 455 56 408 q 103 471 79 463 l 123 478 l 141 485 q 229 514 184 500 q 130 552 192 530 l 80 570 l 31 589 q 61 697 55 627 q 62 835 65 741 l 74 831 l 85 829 q 105 819 99 825 q 115 821 111 817 l 117 823 l 118 827 q 132 835 122 838 q 187 810 155 823 l 216 798 l 245 787 q 357 739 320 758 q 334 739 350 731 l 328 743 l 321 746 q 309 749 314 749 q 336 729 317 738 q 351 723 342 726 l 367 717 l 390 708 l 414 699 q 463 680 443 688 q 570 648 522 659 q 597 627 576 635 q 629 626 618 619 m 640 380 q 637 376 644 379 q 623 370 631 372 q 618 370 615 368 q 640 380 621 372 z "},"?":{"ha":654,"x_min":15,"x_max":642,"o":"m 630 648 q 642 624 642 647 q 635 593 642 602 q 634 618 631 597 q 635 634 635 628 q 630 648 634 643 m 208 203 q 212 204 210 211 q 213 192 214 198 q 209 191 212 184 q 208 203 207 197 m 256 253 q 248 252 254 252 l 243 253 l 239 253 q 229 247 229 254 q 237 248 231 248 l 241 247 l 245 247 q 256 253 256 245 m 283 264 q 267 264 271 266 q 265 260 262 262 q 273 258 268 257 q 283 264 279 258 m 598 560 q 607 564 602 552 q 612 570 610 570 q 619 566 615 572 q 553 448 604 507 q 510 403 538 430 l 499 393 l 489 382 q 470 363 477 371 q 466 192 471 290 q 464 155 465 178 l 463 136 l 462 119 q 459 55 460 79 q 432 27 427 61 q 307 22 372 31 q 251 12 283 18 l 224 6 l 197 0 q 197 24 197 9 l 197 50 q 202 94 197 79 q 213 39 214 77 q 219 142 220 73 l 218 170 l 218 198 q 218 253 217 231 q 250 258 225 260 q 224 269 245 269 l 215 269 l 205 269 q 186 269 193 269 q 224 509 170 408 q 357 659 264 587 q 298 672 336 704 q 261 599 262 642 q 206 593 237 609 l 195 587 l 183 580 q 159 571 170 572 q 92 583 133 568 l 75 590 l 58 596 q 20 604 38 603 q 101 855 15 770 q 341 928 185 939 q 338 932 341 932 l 334 933 l 331 934 q 355 934 352 935 q 364 930 357 934 l 368 929 l 372 927 q 384 923 378 925 l 382 926 l 380 930 q 374 934 378 933 q 377 937 374 938 q 383 934 380 937 q 389 926 387 930 q 389 918 391 921 q 539 824 492 899 q 555 816 546 817 l 559 815 l 562 814 q 571 808 566 812 q 586 760 576 789 l 601 711 q 625 610 618 654 q 610 587 616 604 l 604 573 q 598 560 602 565 z "},"@":{"ha":909,"x_min":12,"x_max":919,"o":"m 855 682 q 865 666 866 678 q 855 682 854 670 m 785 140 q 795 147 789 141 q 807 159 801 152 q 814 168 812 165 q 812 168 816 172 q 802 160 808 166 q 791 149 797 155 q 784 140 786 142 q 785 140 781 136 m 465 218 q 455 208 462 213 l 449 205 l 444 201 q 395 190 406 202 q 464 183 425 183 l 479 184 l 495 184 q 524 184 513 184 q 500 206 518 202 l 492 208 l 484 210 q 465 218 473 212 m 186 500 q 185 512 188 506 q 182 511 183 518 q 183 498 180 505 q 186 500 185 492 m 700 494 q 699 484 699 490 l 700 479 l 700 476 q 689 483 701 471 q 684 475 686 481 l 684 470 l 684 463 q 679 444 685 446 q 675 465 673 452 q 677 477 675 470 l 682 488 q 684 533 692 520 q 676 529 681 522 l 674 532 l 672 535 q 668 538 669 538 q 673 524 673 532 q 670 513 673 517 q 664 509 667 509 q 663 516 661 510 q 625 334 635 408 q 711 426 684 380 q 737 566 749 490 q 731 553 739 553 l 728 553 l 725 553 q 722 549 722 553 q 720 524 732 538 l 715 517 l 709 510 q 700 494 703 501 m 401 378 q 391 378 398 376 q 385 383 383 380 q 401 379 395 387 l 404 376 l 408 374 q 416 372 411 372 q 424 380 418 376 l 429 382 l 434 385 q 438 400 446 392 q 451 401 443 395 q 465 418 458 407 q 472 435 471 429 q 465 439 473 443 q 465 432 472 438 l 461 429 l 458 427 q 454 422 454 424 q 448 427 450 422 l 446 431 q 444 433 446 433 q 439 427 441 431 l 437 423 l 435 419 q 422 411 431 410 q 441 441 425 427 l 448 447 l 454 452 q 465 467 461 459 l 460 467 l 454 467 q 449 472 449 468 q 456 498 451 482 l 460 510 l 465 523 q 465 588 473 554 q 457 587 460 589 l 454 586 l 452 585 q 444 588 449 583 q 425 563 439 574 l 419 558 l 412 554 q 401 544 405 549 q 398 528 403 536 l 396 524 l 395 521 q 395 511 394 516 q 372 456 376 502 l 371 439 q 370 423 370 429 q 363 400 368 406 q 355 422 358 415 q 351 427 352 428 q 351 419 349 425 q 354 405 351 413 q 372 376 361 385 q 401 378 385 363 m 224 600 q 229 606 226 601 q 233 617 231 612 q 234 625 235 623 q 229 621 233 626 q 225 614 228 620 q 221 604 223 608 q 220 596 219 598 q 224 600 220 595 m 679 605 q 681 634 677 617 l 685 649 l 690 663 q 679 705 699 694 q 666 654 668 691 q 679 605 665 615 m 631 760 q 621 764 625 766 q 618 758 617 763 q 621 753 618 754 q 631 760 625 753 m 326 777 q 317 766 325 770 l 311 763 q 304 760 307 762 q 294 721 304 740 q 271 690 287 709 q 240 633 239 653 q 252 652 245 642 l 259 661 l 265 670 q 288 710 282 692 q 321 730 304 712 l 328 736 l 336 743 q 353 754 344 751 q 367 757 359 757 l 374 757 l 381 756 q 406 765 398 756 l 387 769 l 368 773 q 326 777 346 777 m 484 815 l 481 815 q 473 816 477 816 q 452 817 460 817 q 459 810 428 816 q 494 802 471 807 l 512 797 l 530 793 q 588 787 574 783 q 578 791 583 789 q 568 795 573 793 q 541 804 553 800 q 486 815 507 814 l 484 815 m 743 848 q 734 850 739 847 l 730 854 l 727 859 q 716 859 720 867 q 723 855 719 859 l 726 852 l 730 848 q 743 848 738 838 m 919 267 q 867 193 909 231 l 850 179 l 834 164 q 807 129 817 146 q 783 122 798 135 l 777 117 l 770 111 q 753 106 762 106 q 762 102 755 98 l 764 104 l 768 106 q 774 106 772 109 q 739 71 768 87 q 715 60 730 66 l 705 56 q 694 52 698 53 q 550 13 644 30 q 545 10 548 12 l 540 7 q 534 1 534 1 q 337 28 439 -7 q 186 112 242 60 q 43 378 91 204 q 37 395 41 384 l 34 404 l 31 414 q 21 461 22 439 q 129 805 12 656 q 411 970 243 951 q 642 934 538 985 q 807 777 743 884 q 793 792 801 783 l 781 808 q 753 838 766 827 q 769 813 760 827 l 777 800 l 786 787 q 823 730 810 753 q 865 583 865 657 q 877 586 872 589 q 882 572 882 583 q 878 576 878 572 l 877 579 l 876 583 q 874 541 877 565 l 871 520 l 867 499 q 861 416 859 444 q 855 412 857 415 l 854 410 l 853 408 q 844 411 851 405 q 849 401 849 406 q 846 395 849 397 q 842 395 844 393 q 844 400 841 396 q 837 387 841 397 l 833 378 l 829 368 q 807 334 817 342 q 827 308 810 321 q 842 297 833 304 l 858 287 q 871 239 893 262 q 885 245 884 252 q 876 229 886 240 q 894 237 882 223 q 909 262 907 250 q 879 303 902 279 l 871 313 l 863 322 q 850 345 854 333 q 886 307 867 336 l 893 296 l 901 286 q 919 267 910 274 m 657 383 q 656 375 667 388 l 652 370 l 648 364 q 641 356 642 358 q 644 369 632 362 l 648 372 l 653 375 q 657 383 658 379 m 833 145 q 830 128 843 138 q 818 122 825 125 q 807 118 812 119 q 814 124 810 121 l 821 130 q 833 145 831 138 z "},"A":{"ha":1028,"x_min":20,"x_max":1004,"o":"m 464 172 q 453 161 464 163 q 443 161 450 161 l 432 161 q 446 168 435 166 l 456 169 q 464 172 461 170 m 876 43 q 859 43 864 45 q 859 39 856 42 q 866 37 861 37 q 876 43 871 38 m 267 43 q 257 43 263 43 l 252 43 l 247 44 q 234 38 235 45 q 243 39 237 39 l 248 38 l 254 37 q 267 43 266 37 m 224 43 q 199 43 214 42 l 185 43 l 172 44 q 127 38 140 45 q 152 39 137 39 l 165 38 l 179 37 q 224 43 211 36 m 566 428 q 555 433 561 430 l 547 439 q 528 450 536 447 q 540 425 526 435 q 566 428 555 416 m 469 423 q 484 423 473 423 l 494 422 l 503 422 q 517 428 526 422 q 503 464 496 432 q 511 490 505 474 l 513 495 l 515 500 q 517 509 517 506 q 528 495 519 496 q 544 503 536 494 q 536 511 539 505 l 534 517 l 532 524 q 517 541 528 540 q 496 479 511 513 l 483 451 l 469 423 m 362 123 q 349 71 368 103 l 341 58 l 334 45 q 325 17 326 30 q 193 21 277 12 l 160 24 q 126 27 142 26 q 52 27 87 30 q 56 22 52 22 l 60 22 l 66 22 q 74 12 79 22 l 20 12 q 34 52 24 31 l 43 69 l 52 86 q 79 166 77 130 q 167 359 116 244 l 212 458 l 256 559 q 437 947 367 809 q 524 941 467 952 l 547 937 l 569 933 q 614 930 595 929 q 616 918 610 926 l 619 914 l 623 910 q 630 899 627 905 q 644 867 637 884 l 650 854 q 656 840 653 846 l 659 834 q 661 829 659 831 q 673 824 664 823 q 699 760 677 783 q 850 390 751 623 l 890 298 l 928 207 q 1004 22 972 103 q 865 24 947 20 l 834 25 l 804 26 q 747 27 771 28 q 794 38 760 42 l 808 37 l 823 35 q 849 38 838 35 q 799 44 834 45 l 784 43 l 770 43 q 742 43 753 42 q 724 84 735 60 l 705 124 q 673 209 684 173 q 596 209 639 209 l 561 209 l 526 209 q 384 209 444 208 q 368 188 374 204 l 365 181 l 363 174 q 357 161 360 165 l 364 161 l 370 161 q 378 166 378 161 q 383 162 384 165 q 378 157 382 160 q 368 155 373 155 q 357 155 361 154 q 330 100 345 138 l 323 85 l 317 71 q 304 43 311 55 q 288 43 291 45 q 287 40 287 41 l 288 37 q 267 33 290 30 q 315 22 281 21 q 340 71 327 39 l 351 98 q 362 123 357 113 m 619 199 q 614 186 629 191 q 587 182 600 181 q 594 188 589 186 l 599 189 l 604 189 q 619 199 618 191 m 176 12 q 178 4 182 7 q 165 1 174 1 q 149 1 157 -1 q 138 6 140 2 q 146 9 140 9 l 153 9 l 159 8 q 176 12 174 5 z "},"B":{"ha":754,"x_min":14,"x_max":737,"o":"m 345 257 q 336 276 346 267 q 323 279 326 286 q 334 268 330 278 q 345 257 338 258 m 260 257 q 277 258 267 258 l 288 257 l 298 256 q 329 262 321 256 q 298 286 319 276 q 281 296 288 291 q 260 316 271 303 l 260 257 m 462 262 q 463 261 462 261 q 473 262 465 260 q 485 272 477 263 l 492 279 q 500 284 496 282 q 502 286 500 284 q 506 288 504 287 l 510 292 q 515 303 515 298 q 511 316 517 310 l 502 313 q 494 311 496 312 q 479 294 484 306 q 483 315 477 307 q 489 321 485 317 l 494 327 q 458 329 481 326 q 437 333 450 330 l 414 337 q 323 337 355 348 l 330 325 l 337 313 q 353 292 345 300 q 404 268 373 270 q 396 262 404 263 l 393 262 l 391 261 q 388 257 388 260 q 408 258 397 258 l 418 257 l 427 256 q 463 262 449 255 l 462 262 m 302 669 q 319 680 320 671 l 318 684 l 317 687 q 318 696 316 692 q 332 680 326 691 l 338 671 q 345 663 342 667 q 348 672 347 668 l 347 675 l 347 677 q 351 685 347 682 q 365 667 355 675 l 373 660 l 382 653 q 414 621 408 635 q 446 658 446 631 q 407 667 436 670 l 396 667 q 385 667 390 666 q 366 674 374 667 q 382 683 370 680 q 405 688 390 686 q 436 696 435 692 q 353 707 409 707 l 330 707 l 306 706 q 260 706 277 705 l 260 589 q 280 589 267 590 l 292 589 l 303 588 q 340 594 330 587 q 331 599 333 593 q 330 611 329 604 q 332 623 330 616 q 334 626 334 627 q 331 631 334 628 l 328 633 l 325 635 q 323 653 318 641 l 325 654 l 327 655 q 323 658 329 657 q 315 659 323 652 l 312 663 l 309 665 q 302 669 304 669 m 505 904 q 503 910 507 909 q 494 909 500 911 q 489 907 490 908 q 494 904 488 905 q 502 903 498 904 l 505 902 l 508 901 q 505 904 512 899 m 666 123 q 673 122 667 115 q 679 129 676 125 q 682 134 681 132 q 660 86 686 106 q 634 70 651 79 l 621 62 l 607 54 q 600 49 604 52 l 593 43 q 581 33 584 35 q 314 1 501 -6 q 237 6 286 3 l 197 8 l 159 10 q 14 12 68 15 q 23 206 24 85 l 23 252 l 23 298 q 30 391 24 349 q 31 395 30 391 l 33 398 l 35 401 q 40 418 40 412 q 38 456 41 430 l 36 477 q 35 498 35 489 q 40 589 35 531 l 41 614 l 43 640 q 47 693 46 673 q 51 920 57 831 q 62 928 61 918 l 63 932 l 63 936 q 67 941 64 940 q 144 941 100 941 l 184 941 l 224 942 q 379 941 326 944 q 607 856 550 930 q 589 863 600 857 q 579 870 585 865 l 568 878 q 516 899 539 899 q 642 798 597 859 q 687 631 694 726 q 690 629 688 629 l 691 629 l 692 629 q 698 626 697 631 q 680 580 689 611 q 676 546 670 547 q 681 543 681 545 q 677 538 681 540 q 671 536 675 536 q 666 541 667 537 q 671 522 666 533 q 676 503 676 511 q 671 508 673 505 l 669 511 l 667 515 q 655 524 662 524 q 675 473 648 509 q 696 448 684 461 q 704 439 699 444 l 707 435 q 709 433 708 434 q 718 401 707 429 q 725 376 722 385 q 730 353 729 363 q 715 227 737 292 q 692 172 706 200 q 666 123 682 152 m 714 203 q 718 194 722 210 l 716 186 l 714 179 q 714 166 713 171 q 709 183 705 171 l 711 188 l 713 193 q 714 203 715 199 z "},"C":{"ha":842,"x_min":18,"x_max":843,"o":"m 277 519 q 281 521 279 527 q 282 509 283 515 q 279 507 281 501 q 277 519 276 513 m 282 488 q 293 471 294 484 q 282 488 282 475 m 432 268 q 437 263 437 269 q 459 263 455 265 q 456 258 463 260 q 442 257 449 255 q 432 268 433 259 m 795 247 q 786 233 786 233 l 791 241 q 799 252 797 249 q 795 247 802 255 m 395 690 q 386 683 385 686 q 391 680 386 681 q 399 683 397 680 q 395 690 401 686 m 555 327 q 575 363 553 346 q 614 380 595 380 q 673 354 622 380 q 812 258 746 315 q 787 202 809 227 l 777 192 l 767 182 q 747 161 754 169 q 758 163 751 154 l 761 168 l 764 171 q 774 172 769 174 q 722 109 764 140 l 706 97 l 690 84 q 662 54 672 69 q 425 1 546 -8 q 218 77 313 9 q 73 245 125 142 q 20 471 18 352 q 22 516 21 490 q 26 562 24 547 q 28 566 26 564 l 31 571 q 37 578 37 578 q 35 581 37 580 l 33 585 q 31 594 30 590 q 35 601 33 597 l 39 605 q 47 616 45 610 q 53 640 50 625 l 56 652 l 58 664 q 79 718 65 692 q 150 804 103 759 q 193 845 164 819 l 216 866 l 239 888 q 278 902 256 893 l 297 910 l 317 918 q 406 942 366 938 q 566 920 475 949 q 639 892 593 910 l 656 886 l 673 879 q 705 867 691 871 q 734 823 716 848 l 751 803 l 768 783 q 823 690 808 732 l 766 661 l 711 631 q 593 578 645 597 q 549 643 584 617 q 473 674 517 667 q 391 666 429 680 q 330 616 350 651 q 349 644 329 625 l 358 651 l 366 659 q 378 675 375 667 q 307 618 336 667 q 273 509 280 573 q 280 393 264 446 q 336 316 297 336 q 330 314 334 311 q 325 321 326 317 q 358 283 331 303 q 416 268 390 259 q 414 265 416 267 l 410 263 q 406 258 406 261 q 533 276 477 243 q 608 359 579 303 q 632 347 621 354 l 641 341 l 649 335 q 684 316 668 320 q 674 322 674 319 q 679 327 673 325 q 692 328 685 329 q 705 321 700 327 q 628 366 677 358 q 555 327 573 374 m 550 295 q 538 286 547 290 l 530 283 q 523 279 526 281 q 520 277 519 275 q 526 284 522 280 q 537 293 532 290 q 550 295 545 296 m 827 268 q 834 239 843 260 q 825 222 831 232 l 821 215 q 817 210 818 211 q 818 221 814 214 l 821 227 l 825 235 q 827 268 836 254 z "},"D":{"ha":780,"x_min":20,"x_max":785,"o":"m 545 460 q 545 466 545 461 q 543 475 544 471 q 542 480 543 479 q 539 476 541 481 q 539 456 536 462 q 545 460 543 451 m 528 487 q 522 488 529 494 q 515 486 517 486 q 513 492 513 486 q 443 652 498 591 q 407 661 427 656 l 372 669 q 298 684 328 681 q 288 273 290 519 q 305 273 294 273 l 314 273 l 323 273 q 347 262 342 272 q 336 262 345 262 l 328 262 l 321 262 q 315 257 304 262 q 454 276 385 241 q 500 310 484 291 q 513 348 517 330 q 512 345 513 346 q 510 345 511 345 q 507 346 508 345 q 507 348 507 347 q 516 350 509 352 l 519 349 l 521 349 q 523 348 523 348 q 536 393 532 357 l 538 407 l 540 420 q 545 444 542 436 q 534 429 536 445 l 534 422 l 532 416 q 523 406 530 409 l 523 413 l 523 420 q 518 428 522 427 q 511 412 514 422 l 509 404 l 507 395 q 491 369 502 374 q 500 399 494 383 l 505 413 l 511 427 q 528 487 525 463 m 646 134 q 650 136 648 136 l 655 138 q 662 144 661 140 q 627 94 667 117 l 610 83 q 594 74 600 78 q 571 48 577 62 q 534 35 556 44 l 514 27 l 494 20 q 406 0 445 1 q 316 1 369 -1 l 269 3 l 220 5 q 20 5 94 9 q 21 245 20 118 q 22 358 21 296 l 23 469 q 26 947 27 766 q 189 941 86 941 l 230 941 l 271 941 q 350 941 317 942 q 598 861 532 934 q 572 873 591 859 q 554 884 562 881 q 534 888 544 888 q 724 679 665 827 q 743 337 785 526 q 754 370 750 345 l 755 380 l 758 390 q 764 406 760 400 q 646 134 749 239 m 507 476 q 511 473 511 475 q 507 471 510 471 q 513 465 506 466 q 507 459 510 460 q 503 463 505 459 q 503 470 502 466 q 507 476 503 474 m 715 209 q 717 188 724 201 l 713 182 l 709 176 q 705 166 705 170 q 707 184 698 172 l 710 190 l 713 196 q 715 209 717 203 z "},"E":{"ha":781,"x_min":19,"x_max":755,"o":"m 285 343 q 290 334 293 342 q 288 326 290 330 l 286 323 l 285 321 q 279 332 277 322 q 282 338 280 334 l 284 341 l 285 343 m 568 343 q 558 337 564 338 q 551 339 553 336 q 552 343 548 342 q 568 343 557 345 m 526 6 q 541 9 532 9 l 549 9 l 557 9 q 589 12 580 7 q 560 0 585 1 q 526 6 537 -1 m 541 39 q 597 37 568 37 q 648 44 633 38 l 579 44 q 522 43 538 44 q 541 39 504 41 m 734 28 q 739 73 749 40 l 734 87 l 730 101 q 728 130 726 117 q 755 17 751 67 q 602 21 701 12 l 564 25 l 525 28 q 445 28 481 30 q 450 22 445 23 q 456 22 452 22 l 461 22 q 472 12 476 24 q 396 12 440 14 l 357 9 l 316 7 q 162 6 214 -1 q 86 28 128 11 l 69 36 l 54 43 q 23 54 35 51 q 24 193 25 115 l 24 263 l 22 333 q 23 610 19 517 q 25 660 24 629 l 26 684 l 26 707 q 33 795 29 761 q 77 947 43 888 q 377 950 165 952 l 457 949 q 536 949 501 949 q 686 953 623 949 q 696 945 692 951 l 698 939 l 700 932 q 723 920 705 916 q 732 793 717 860 l 738 765 l 745 737 q 755 680 752 705 q 301 685 413 680 q 295 651 294 677 l 296 640 l 296 630 q 296 610 296 618 l 552 610 q 564 604 558 609 l 568 599 l 573 594 q 606 589 585 583 q 627 359 602 422 q 558 359 610 358 l 538 359 l 517 359 q 477 359 494 359 q 543 368 494 372 l 561 366 q 579 366 571 366 q 611 375 599 367 q 449 375 564 375 l 404 375 l 360 375 q 274 375 310 375 l 274 258 q 330 258 296 258 l 387 258 q 505 258 458 258 q 723 258 640 259 q 724 193 724 232 l 724 162 l 724 132 q 734 28 725 61 z "},"F":{"ha":693,"x_min":20,"x_max":678,"o":"m 277 262 q 283 269 280 269 q 285 264 284 269 q 286 256 286 260 q 283 251 285 252 q 279 255 281 251 q 277 262 277 260 m 444 374 q 433 374 440 373 l 427 374 l 421 375 q 406 369 407 376 q 416 370 410 370 l 422 369 l 428 368 q 444 374 442 367 m 347 363 q 322 375 354 376 l 309 374 l 295 374 q 272 374 279 373 l 272 224 q 292 255 283 233 q 300 275 296 263 l 309 297 q 347 358 328 352 l 347 357 l 347 356 l 348 354 l 348 352 q 353 347 350 346 q 355 351 354 349 l 355 354 l 355 357 q 363 369 357 366 q 372 370 368 371 l 376 370 l 380 368 q 390 374 388 366 q 347 363 361 378 m 620 705 q 608 705 616 705 l 602 706 l 595 706 q 577 701 579 707 q 589 701 581 701 l 595 701 l 602 700 q 620 705 617 699 m 496 374 q 484 374 492 373 l 477 374 l 469 375 q 449 369 452 376 q 460 366 467 368 l 456 364 l 451 363 q 444 358 445 361 q 456 356 448 358 l 463 355 l 469 353 q 492 358 484 351 q 496 374 491 366 m 374 353 q 351 311 363 340 l 342 289 q 331 267 336 276 q 341 276 338 268 l 344 283 q 347 289 345 287 q 332 212 354 255 l 323 195 l 315 177 q 304 139 306 157 q 305 109 303 126 l 307 93 l 309 77 q 310 0 314 33 q 169 21 260 1 l 132 28 l 95 36 q 21 48 53 45 q 22 298 20 161 q 24 416 22 350 l 25 475 l 26 531 q 26 946 32 811 q 357 945 166 948 l 433 943 q 510 942 477 943 q 678 941 599 941 q 671 883 677 915 l 666 855 l 661 828 q 652 705 648 760 q 636 700 640 709 l 635 696 l 634 691 q 631 684 633 686 q 539 682 591 688 l 518 680 l 497 677 q 454 673 473 674 l 480 682 q 507 690 495 687 q 566 701 538 698 q 422 706 515 707 l 385 706 l 347 705 q 272 705 302 705 l 272 593 q 407 588 325 587 l 441 589 l 476 589 q 550 588 517 589 q 550 530 550 562 l 551 504 l 551 477 q 550 374 551 414 q 492 353 496 379 q 374 353 440 336 m 353 652 q 361 654 364 655 q 349 650 359 653 q 339 648 340 648 q 353 652 338 648 z "},"G":{"ha":912,"x_min":9,"x_max":890,"o":"m 433 578 q 444 568 442 581 q 438 563 439 569 q 433 568 434 563 l 433 574 l 433 578 m 454 573 q 467 579 454 581 l 472 578 l 477 578 q 486 578 483 578 q 473 573 486 572 l 468 573 l 463 574 q 454 573 457 574 m 668 568 q 688 574 671 575 l 696 573 l 703 573 q 716 573 711 572 q 695 568 713 566 l 688 568 l 681 568 q 668 568 672 569 m 828 300 q 818 272 817 273 q 825 287 819 271 q 836 315 832 304 q 833 328 839 330 q 830 313 830 319 l 830 307 q 828 300 829 304 m 336 306 q 351 298 342 304 l 358 291 l 365 285 q 390 274 381 269 q 375 285 383 275 l 368 293 l 361 301 q 336 306 345 320 m 342 322 q 328 327 336 321 q 317 340 323 331 q 310 349 309 351 q 312 343 311 346 l 315 336 q 324 321 320 327 q 342 322 336 307 m 277 461 q 278 470 278 464 q 277 481 278 476 q 272 482 276 494 q 272 474 272 479 q 273 463 272 467 q 277 461 273 450 m 277 509 q 273 499 272 503 q 279 496 275 496 q 283 500 283 496 q 277 509 284 504 m 850 349 q 871 405 865 363 l 873 422 l 876 439 q 882 472 878 460 q 855 536 871 519 q 857 437 861 495 l 855 414 l 853 391 q 850 349 850 363 m 283 515 q 287 525 285 517 q 292 541 290 533 q 288 552 296 559 q 287 541 289 547 l 284 536 l 281 531 q 283 515 275 519 m 839 696 q 724 630 800 667 l 693 615 l 663 600 q 604 568 628 583 q 427 675 526 693 q 310 525 341 659 l 307 512 l 303 498 q 297 469 300 482 q 294 418 291 435 q 359 322 300 376 q 486 269 425 260 q 500 275 493 269 l 507 279 l 514 284 q 545 296 531 297 q 395 269 500 245 q 524 268 457 237 q 609 349 583 296 q 567 349 592 350 l 545 349 l 523 348 q 444 354 469 347 l 444 563 q 513 573 507 561 q 681 562 569 559 l 726 563 l 749 564 l 770 565 q 844 568 823 568 q 854 549 848 558 l 861 540 l 867 532 q 887 498 884 513 q 886 460 890 484 l 883 449 l 881 437 q 876 413 878 422 q 872 378 874 400 l 870 360 l 868 343 q 850 279 863 304 q 820 240 843 267 l 810 230 l 801 220 q 785 199 791 208 q 751 162 779 190 l 740 151 l 729 140 q 711 119 718 127 l 716 123 l 722 126 q 732 135 729 131 q 689 77 729 109 q 614 33 658 54 q 401 7 510 -15 q 277 44 345 18 q 199 87 222 66 q 144 157 180 103 q 67 292 98 224 q 21 450 24 383 q 186 846 9 657 q 236 876 204 855 l 261 892 q 287 907 275 901 q 406 937 349 942 q 408 940 406 939 l 412 942 q 416 947 416 944 q 420 945 420 947 q 416 942 419 942 q 572 921 498 947 q 577 918 574 920 l 581 915 q 588 910 586 911 q 614 902 598 907 l 640 895 q 684 878 670 886 q 766 795 721 855 l 785 770 l 804 745 q 839 696 827 711 m 817 220 q 808 192 821 210 q 780 167 795 174 l 790 180 l 800 192 q 817 220 812 208 z "},"H":{"ha":793,"x_min":18,"x_max":779,"o":"m 770 796 q 776 782 776 804 l 776 772 l 775 763 q 776 749 775 752 q 770 763 770 741 l 770 772 l 770 782 q 770 796 770 793 m 513 759 q 519 753 519 769 l 519 745 l 519 738 q 519 727 519 729 q 513 734 514 717 l 513 741 l 513 748 q 513 759 514 757 m 311 610 q 294 599 307 598 q 311 610 298 610 m 455 604 q 465 610 454 611 l 469 610 l 474 609 q 481 610 479 608 q 471 604 482 603 l 467 604 l 463 604 q 455 604 457 605 m 332 599 q 342 605 332 606 l 347 604 l 351 604 q 359 604 356 603 q 349 598 359 597 l 344 599 l 340 599 q 332 599 334 600 m 743 658 q 743 670 743 661 l 744 678 l 744 686 q 738 695 743 705 q 738 683 739 692 l 738 675 l 738 667 q 743 658 738 648 m 743 722 q 742 734 745 728 q 738 732 740 740 q 739 720 737 726 q 743 722 742 714 m 273 897 l 273 903 q 273 916 273 911 q 268 920 273 930 l 268 916 l 268 909 q 268 897 267 901 q 273 892 269 882 l 273 897 m 663 925 q 690 924 675 922 q 713 930 699 926 q 749 935 742 938 l 749 932 l 750 928 q 754 925 751 925 l 754 946 q 730 942 745 944 l 707 938 q 663 925 678 932 m 273 844 q 267 725 266 803 l 268 693 l 269 661 q 268 599 269 624 q 399 593 309 591 l 433 594 q 467 595 454 595 q 524 593 503 595 q 525 682 526 631 l 524 726 l 523 770 q 524 925 520 878 q 658 933 591 920 q 715 947 683 938 l 743 954 l 770 962 q 754 679 752 826 q 759 685 758 680 l 760 690 l 760 695 q 773 622 774 667 l 772 603 l 772 584 q 770 545 770 558 q 772 434 770 500 l 774 376 l 776 318 q 776 75 779 172 l 769 73 l 762 71 q 749 66 753 68 q 733 48 735 60 q 604 33 671 50 q 548 16 585 27 l 521 8 l 492 0 q 492 347 477 169 q 305 347 378 354 q 296 208 296 293 l 296 174 l 296 142 q 294 85 296 108 q 288 76 294 79 l 281 74 l 275 73 q 268 48 260 68 q 139 41 205 54 l 111 35 l 83 28 q 27 16 49 20 q 29 131 31 69 q 25 238 28 173 q 22 417 18 372 q 27 441 22 425 l 31 454 q 33 465 32 460 q 34 660 39 528 l 32 712 q 31 766 31 742 q 33 877 30 827 q 39 887 34 882 l 44 891 l 49 895 q 54 925 60 905 q 283 946 177 918 q 283 895 283 927 l 284 844 q 279 749 284 784 q 274 754 275 749 l 273 760 l 273 764 q 274 800 276 774 l 273 810 l 273 821 q 273 844 272 834 z "},"I":{"ha":319,"x_min":20,"x_max":305,"o":"m 20 941 q 56 936 34 943 q 77 929 64 934 l 98 922 q 181 920 153 903 q 215 915 197 918 l 231 913 l 245 910 q 304 903 281 904 q 299 481 305 747 l 297 379 l 295 277 q 293 69 293 161 q 261 32 263 56 q 128 22 201 39 l 99 16 l 72 9 q 20 0 41 2 q 29 216 28 70 l 30 275 q 31 335 30 308 q 37 460 32 404 q 47 337 48 420 q 50 406 47 363 q 52 446 50 419 l 55 485 q 52 636 61 585 q 48 650 52 642 l 45 656 l 42 663 q 52 673 51 661 q 54 732 56 696 l 53 764 l 51 796 q 63 914 46 877 q 47 898 42 919 q 42 914 39 898 q 37 930 44 930 q 31 874 28 918 l 32 858 q 32 843 32 849 q 26 818 31 827 q 20 850 20 831 q 23 884 20 861 q 20 941 28 926 m 42 743 q 46 744 43 750 q 47 732 48 738 q 43 731 45 725 q 42 743 41 737 m 143 930 q 142 928 150 926 l 138 929 l 132 930 q 122 930 126 932 q 123 935 111 934 q 135 936 128 936 q 143 935 140 936 l 143 930 z "},"J":{"ha":693,"x_min":20,"x_max":672,"o":"m 406 782 q 410 781 408 792 q 410 772 410 777 q 410 766 411 768 q 406 762 408 757 q 406 782 402 768 m 662 954 q 667 954 658 956 q 667 937 666 947 l 667 927 l 668 918 q 662 889 669 895 l 662 954 m 635 819 q 635 828 635 823 q 635 840 635 835 q 630 841 633 852 q 629 832 629 838 q 630 821 629 825 q 635 819 631 808 m 646 932 q 646 836 647 918 q 652 836 648 829 q 655 841 654 840 q 662 836 658 841 q 665 711 662 788 l 666 646 l 668 579 q 667 317 672 416 q 644 222 665 277 l 636 199 l 627 178 q 614 135 618 153 q 458 39 572 94 l 452 36 l 446 33 l 431 25 q 398 11 412 16 q 325 1 357 -4 q 309 9 321 2 l 298 14 q 288 18 293 16 q 279 18 284 18 l 272 18 q 261 18 263 17 q 256 25 260 18 l 253 31 q 250 34 251 33 q 247 34 249 35 l 243 33 q 234 34 239 32 q 186 61 215 43 q 138 92 165 74 l 130 98 l 122 103 l 104 115 q 70 139 83 129 q 26 183 32 168 q 21 216 21 195 q 22 235 21 224 l 23 254 q 20 317 28 304 q 27 326 21 323 l 33 328 l 40 330 q 52 349 56 334 q 83 353 66 351 l 112 357 q 168 365 147 363 q 288 360 229 371 l 288 296 q 334 271 303 274 q 389 285 366 269 q 395 349 395 302 l 395 366 l 395 383 q 400 413 396 401 q 408 362 405 394 l 409 334 l 410 307 q 413 386 410 336 q 416 429 414 401 l 418 474 q 416 643 425 587 l 415 649 l 414 655 q 406 665 411 661 q 416 791 420 704 l 414 824 q 412 856 413 844 q 416 910 412 890 q 541 917 471 905 l 568 922 l 594 926 q 646 932 624 931 z "},"K":{"ha":922,"x_min":20,"x_max":935,"o":"m 368 121 q 387 123 374 130 l 393 121 l 399 118 q 410 116 406 115 q 391 114 405 108 l 385 117 l 379 119 q 368 121 372 122 m 801 36 q 785 30 793 31 q 775 33 778 30 q 779 37 772 35 q 801 36 785 38 m 63 73 q 63 79 64 75 q 62 88 63 85 q 60 94 61 93 q 58 90 59 95 q 56 77 56 82 q 58 70 56 72 q 60 68 59 68 q 63 73 62 70 m 63 116 q 63 132 62 121 l 63 142 l 64 153 q 58 170 64 176 q 58 153 58 165 l 58 143 l 58 133 q 63 116 57 109 m 726 197 q 736 182 735 184 q 733 186 737 180 q 726 196 729 192 q 726 197 723 200 m 667 250 q 677 235 676 237 q 674 239 679 234 q 667 249 670 245 q 667 250 665 254 m 464 479 q 854 84 621 326 q 805 124 837 92 l 791 138 l 779 151 q 753 175 763 166 q 812 108 762 154 q 870 41 861 62 q 785 41 833 41 l 745 41 l 707 41 q 560 36 621 40 q 562 39 561 38 l 566 41 q 571 47 571 43 q 555 54 566 52 l 547 57 q 539 62 543 60 q 536 73 536 65 l 536 78 q 534 84 536 81 q 522 94 531 87 l 514 99 q 507 106 510 102 q 277 330 391 225 q 279 283 279 309 l 277 261 l 276 239 q 277 170 271 187 q 286 165 277 168 q 293 164 293 163 q 286 160 293 159 l 283 160 l 281 161 q 277 159 278 161 q 277 111 275 155 l 277 93 l 278 74 q 277 41 279 54 q 233 39 257 39 l 212 41 l 192 43 q 117 41 140 47 q 94 30 105 39 l 85 22 l 76 14 q 37 -7 54 -7 q 39 66 38 25 l 40 100 l 41 134 q 47 266 43 214 q 41 250 41 264 l 41 245 l 41 240 q 37 234 40 235 q 25 326 25 271 l 26 348 l 26 370 q 26 416 26 398 q 24 639 21 502 l 24 668 l 24 697 q 26 758 25 732 q 26 891 26 829 q 38 896 30 894 l 45 899 l 51 901 q 68 918 66 907 q 196 935 125 915 l 224 943 l 252 951 q 315 961 286 959 q 314 895 315 931 l 313 863 l 311 831 q 309 699 307 749 q 367 754 334 721 l 396 783 l 425 813 q 549 928 500 889 q 725 939 604 935 q 823 942 786 941 q 935 950 881 945 q 916 915 931 933 q 901 900 910 909 l 886 886 q 789 791 847 846 q 694 704 734 741 q 680 690 688 699 l 673 681 l 667 671 q 635 635 648 646 l 623 625 l 611 616 q 587 597 595 604 q 557 570 574 586 l 527 540 q 464 479 487 500 m 31 127 q 26 127 27 117 l 26 131 l 25 135 q 20 138 24 139 q 24 176 22 191 q 25 166 24 174 l 26 160 l 26 153 q 31 127 28 136 z "},"L":{"ha":703,"x_min":20,"x_max":678,"o":"m 277 353 q 283 338 286 350 l 281 334 l 279 329 q 277 321 277 323 q 271 336 270 322 q 274 347 272 342 q 277 353 276 351 m 486 289 q 504 298 492 299 l 510 297 l 516 296 q 529 294 524 294 q 510 291 522 288 l 505 292 l 499 292 q 486 289 492 292 m 539 262 q 523 261 533 261 l 513 262 l 504 262 q 475 256 481 264 q 492 257 481 258 l 501 256 l 511 256 q 539 262 533 255 m 438 262 q 418 262 425 264 q 416 258 414 261 q 425 256 419 256 q 438 262 432 256 m 283 946 q 283 705 298 838 q 277 737 278 720 q 276 768 275 749 q 272 818 276 806 q 272 262 257 552 q 333 256 291 255 l 351 256 l 368 257 q 401 256 388 258 l 397 259 l 395 262 q 392 265 392 264 q 406 267 391 268 q 359 279 404 278 l 340 278 l 321 278 q 288 278 299 277 q 437 282 345 292 l 475 279 l 514 275 q 593 273 559 271 q 589 278 593 277 l 585 278 l 580 278 q 572 289 567 277 q 609 278 598 297 l 613 270 l 617 262 q 630 251 623 254 q 651 122 627 195 l 661 94 q 669 65 665 78 q 678 0 677 32 q 462 6 604 4 l 406 7 l 351 7 q 245 11 290 9 q 224 11 237 11 l 202 9 q 160 11 176 8 q 90 35 134 15 l 74 42 l 58 49 q 26 59 41 56 q 24 140 30 87 l 23 161 l 21 182 q 21 224 20 205 q 26 245 22 231 l 29 256 q 32 267 31 262 q 31 393 35 305 l 29 429 l 28 467 q 26 545 26 511 q 28 699 26 608 l 29 739 l 30 759 l 30 780 q 32 871 31 831 q 39 882 33 878 l 45 886 l 51 889 q 58 920 66 898 q 283 946 210 914 z "},"M":{"ha":916,"x_min":7,"x_max":901,"o":"m 644 203 q 648 204 646 210 q 650 193 651 198 q 646 191 648 185 q 644 203 643 197 m 570 96 q 573 89 575 94 l 571 85 l 570 80 q 566 87 564 83 l 568 92 l 570 96 m 19 75 q 24 66 24 84 l 24 58 l 24 50 q 24 37 24 40 l 35 37 l 45 37 q 62 32 57 37 q 52 52 65 47 l 47 54 l 42 56 q 35 64 37 60 q 41 122 39 83 l 43 153 q 45 182 44 170 q 39 164 40 178 l 39 159 l 38 153 q 35 144 37 147 q 24 220 20 172 l 26 239 l 28 258 q 30 294 30 281 q 28 317 29 304 l 26 338 q 24 385 23 363 q 25 460 26 412 l 25 480 l 24 500 q 24 534 24 522 q 19 543 24 540 q 15 545 17 545 q 14 545 14 545 q 16 551 14 547 l 19 559 q 24 572 24 568 l 24 607 l 24 644 q 24 718 24 686 q 24 882 24 806 l 31 884 l 37 886 q 50 890 46 888 q 67 909 64 897 q 168 925 114 906 l 190 933 l 212 941 q 260 951 237 949 q 310 829 281 897 l 336 769 l 362 709 q 463 465 429 556 q 490 528 468 487 l 498 544 q 506 558 501 550 q 516 577 515 574 q 552 656 533 611 l 569 695 l 586 734 q 666 903 630 837 q 726 911 692 905 l 757 917 l 787 922 q 901 935 863 937 q 899 756 901 867 l 899 710 l 898 664 q 897 568 897 609 q 896 134 895 332 q 874 113 886 121 q 874 91 873 104 l 874 80 l 875 69 q 869 32 876 43 q 854 32 863 32 l 838 33 q 807 32 817 33 q 772 5 774 29 q 661 32 728 41 q 639 102 667 77 q 640 123 640 110 l 639 134 l 638 145 q 644 182 638 172 q 650 102 659 140 q 663 142 662 110 q 661 170 663 151 l 661 184 l 661 198 l 661 299 q 595 169 630 248 l 566 100 l 537 32 q 470 30 509 28 l 454 31 l 437 32 q 399 32 416 33 q 281 294 319 203 l 279 288 l 277 279 q 274 261 275 269 q 275 219 270 237 q 280 211 277 215 q 288 205 283 208 l 297 198 q 294 193 297 193 q 289 197 292 193 q 283 205 286 200 q 281 208 281 208 q 274 119 267 199 l 275 104 l 277 90 q 278 62 278 73 q 270 26 278 35 q 249 25 267 22 l 241 27 l 233 28 q 217 26 224 28 q 250 18 229 22 l 269 14 l 286 11 q 296 100 296 40 l 295 123 l 294 146 q 297 187 294 172 q 303 97 304 157 l 302 72 l 302 47 q 302 0 301 19 q 246 7 280 0 l 217 14 l 187 21 q 83 26 113 38 l 79 26 l 75 26 q 63 26 68 26 q 38 31 48 27 q 19 75 7 41 m 553 54 q 558 62 559 66 q 554 51 558 60 q 550 41 551 41 q 553 54 549 39 m 591 123 q 587 133 587 127 q 592 140 589 138 q 595 138 595 142 q 591 123 596 134 m 329 128 q 347 119 336 134 q 361 91 357 104 q 345 110 353 94 l 342 115 l 338 121 q 329 128 334 126 z "},"N":{"ha":796,"x_min":19,"x_max":777,"o":"m 508 835 q 513 834 511 845 q 513 825 513 830 q 513 819 514 821 q 511 814 513 815 q 508 815 509 813 q 507 823 507 818 q 508 835 507 828 m 508 803 q 513 802 511 812 q 513 793 513 798 q 513 787 514 788 q 511 782 513 783 q 508 783 509 781 q 507 790 507 785 q 508 803 507 795 m 508 760 q 512 762 510 768 q 513 749 515 755 q 509 748 512 742 q 508 760 507 754 m 508 707 q 512 708 510 714 q 513 696 515 702 q 509 694 512 688 q 508 707 507 701 m 503 664 q 513 642 512 659 q 503 664 500 644 m 508 621 q 512 623 510 629 q 513 610 515 616 q 509 609 512 603 q 508 621 507 615 m 738 408 q 738 440 737 418 l 738 460 l 739 479 q 732 530 740 525 q 733 497 734 519 l 732 478 l 732 459 q 738 408 731 413 m 450 584 q 439 600 450 596 q 450 584 438 587 m 738 557 q 738 570 738 560 l 739 579 l 739 588 q 732 600 739 608 q 733 586 733 596 l 732 577 l 732 569 q 738 557 732 549 m 433 605 q 425 625 432 615 q 412 627 417 636 q 422 616 419 626 l 425 612 l 426 608 q 433 605 429 605 m 391 664 q 401 646 399 648 q 401 652 404 644 q 394 663 397 659 q 391 664 391 669 m 27 937 l 231 937 q 357 741 281 850 l 425 646 l 492 551 q 473 560 482 543 l 469 567 q 463 574 466 571 q 450 578 457 580 q 465 554 456 568 l 483 532 q 513 482 505 503 q 519 701 522 559 l 519 758 q 518 812 518 792 q 519 915 517 875 q 574 915 543 914 l 604 915 l 632 916 q 732 915 704 918 q 734 772 736 867 l 733 733 l 732 694 q 732 610 732 648 q 742 627 740 629 q 743 600 744 625 q 755 687 756 626 l 754 713 l 753 738 q 754 787 753 768 q 764 690 762 745 q 765 589 766 656 q 761 526 764 562 l 758 495 l 753 464 q 749 338 745 385 q 755 342 753 338 q 755 348 755 345 l 754 354 q 765 364 753 369 q 769 188 768 292 l 769 142 l 770 96 q 770 1 770 39 q 659 0 720 0 l 633 0 l 606 1 q 546 1 571 1 q 423 183 507 68 l 391 228 l 360 273 q 300 364 325 323 q 294 81 286 220 q 288 68 294 73 q 281 64 286 66 l 275 60 q 257 39 257 52 q 92 22 172 39 q 73 14 85 21 l 63 9 q 54 6 58 7 q 45 7 51 5 l 41 8 l 36 9 q 22 1 24 11 q 21 439 19 168 q 27 920 23 656 l 27 937 m 765 482 q 777 452 776 477 q 770 418 777 429 q 768 449 766 428 q 768 465 768 460 q 765 482 768 475 z "},"O":{"ha":870,"x_min":20,"x_max":851,"o":"m 568 517 q 572 509 576 515 l 570 506 l 568 503 q 568 496 566 499 q 562 505 559 496 q 566 513 564 509 l 567 515 l 568 517 m 621 79 q 606 73 608 73 q 612 75 606 72 q 623 79 619 78 q 621 79 627 81 m 343 292 q 354 278 353 279 q 351 282 355 277 q 344 292 347 288 q 343 292 341 296 m 295 513 l 300 471 q 311 394 305 425 q 312 386 312 391 l 311 378 q 311 362 309 369 q 357 307 321 336 q 418 271 391 279 q 429 271 422 271 l 435 272 l 441 272 q 461 260 456 273 q 424 250 429 262 q 513 264 468 246 q 568 303 553 281 q 572 314 572 309 l 572 318 l 572 321 q 584 325 572 324 q 578 340 585 332 q 583 339 581 340 l 587 338 q 595 340 591 336 q 622 418 615 362 q 627 522 627 457 q 618 517 621 522 l 615 511 l 613 507 q 600 512 609 497 q 611 496 599 484 q 601 473 602 493 l 601 466 l 600 458 q 595 448 598 451 q 589 455 590 448 l 589 458 l 588 460 q 584 464 587 463 q 582 448 583 458 l 581 433 q 573 405 578 414 q 578 470 566 423 l 583 487 q 585 504 585 496 q 584 533 588 522 q 570 541 572 524 q 573 570 568 557 l 551 595 l 528 618 q 477 661 501 646 q 451 660 466 660 l 438 660 l 426 660 q 381 651 398 659 q 360 633 370 645 l 353 622 l 345 610 q 311 581 328 582 q 315 583 314 581 q 311 587 315 586 q 307 578 309 583 l 303 568 q 290 555 298 557 l 295 513 m 680 833 q 675 840 680 836 q 665 846 671 843 q 657 848 659 848 q 659 843 654 848 q 665 840 662 844 l 669 837 l 671 833 q 680 833 677 825 m 782 201 q 748 149 782 179 l 734 136 l 722 123 q 702 95 707 109 q 666 83 684 91 l 650 75 l 634 66 q 563 41 593 45 q 566 36 562 37 l 569 36 l 573 36 q 578 25 583 35 q 381 9 493 -16 q 368 11 376 10 l 355 12 q 333 15 338 13 q 313 24 326 17 q 303 31 307 28 q 290 36 297 34 q 281 39 287 37 l 275 41 l 269 43 q 243 53 254 49 q 199 73 210 66 q 100 210 156 106 q 28 394 43 316 q 20 461 21 431 q 28 517 20 498 l 28 530 l 28 543 q 28 568 27 557 q 39 624 30 600 q 50 637 41 629 l 56 644 q 60 651 59 648 q 62 661 62 655 l 63 671 q 66 688 64 684 q 75 696 66 689 l 81 703 q 87 709 85 707 q 91 719 89 713 l 93 724 l 95 730 q 109 758 101 747 q 112 760 109 759 l 117 763 q 124 768 123 766 q 124 772 125 770 l 123 775 q 124 785 121 780 q 157 816 134 795 q 194 848 175 832 q 578 902 350 981 q 607 893 589 899 l 635 884 q 680 865 667 873 q 730 808 705 848 q 751 772 739 793 l 761 753 l 771 736 q 813 640 793 699 l 821 616 l 829 591 q 846 544 838 564 q 843 546 844 545 l 841 549 q 836 555 839 555 q 838 536 833 538 l 840 536 l 844 536 q 851 533 848 535 q 841 507 844 528 q 840 465 839 491 q 840 444 840 456 l 840 435 l 841 427 q 841 410 842 410 q 839 394 842 405 q 836 384 838 391 l 831 372 q 830 325 820 341 q 826 328 827 325 l 825 332 l 825 335 q 818 321 823 331 l 814 314 l 810 306 q 808 277 802 286 q 792 261 800 277 q 782 229 786 248 q 754 200 768 218 l 741 184 l 729 169 q 669 116 698 130 q 689 122 678 108 l 694 128 l 699 134 q 712 138 705 138 q 705 127 711 132 q 696 116 697 121 q 745 153 722 127 q 764 177 753 162 l 782 201 m 814 282 q 813 299 811 291 q 819 307 816 305 q 823 302 823 309 q 814 282 822 295 m 573 373 q 574 362 576 368 q 568 356 572 357 q 565 358 565 354 q 573 373 566 363 m 643 58 q 637 43 650 52 q 611 36 623 34 q 618 41 614 39 l 628 45 q 643 58 640 51 z "},"P":{"ha":770,"x_min":0,"x_max":757,"o":"m 716 598 l 717 604 q 716 616 717 612 q 711 621 715 631 l 711 616 l 711 611 q 711 598 711 603 q 716 594 711 583 l 716 598 m 336 648 l 323 634 q 299 605 307 615 q 319 599 305 600 q 332 599 324 599 l 345 600 q 385 589 380 602 q 376 586 383 587 l 369 585 l 361 584 q 353 578 345 582 l 438 578 q 439 586 441 583 q 436 588 438 587 l 433 589 q 433 594 425 591 q 477 595 450 574 q 492 637 504 616 q 484 635 488 637 l 479 633 l 474 630 q 460 626 463 624 q 463 634 459 630 l 466 637 l 470 641 q 471 653 479 648 q 417 650 456 640 l 401 654 l 383 659 q 347 663 362 663 l 336 648 m 246 637 q 267 666 252 648 l 279 680 q 289 696 285 688 l 241 696 q 241 680 241 690 l 241 671 l 240 663 q 246 637 239 642 m 102 915 q 94 914 99 913 l 90 915 l 85 916 q 75 909 75 916 q 83 910 77 910 l 87 909 l 92 909 q 102 915 102 908 m 577 882 q 564 881 573 874 l 559 884 l 555 886 q 545 888 550 889 q 648 808 600 865 q 686 757 666 786 q 701 731 693 745 l 709 718 l 716 706 q 700 772 721 734 q 681 802 694 783 l 671 816 q 663 829 666 824 q 732 700 719 787 q 711 546 745 615 q 719 547 715 537 l 721 551 l 724 555 q 732 557 728 559 q 706 487 731 521 l 696 473 l 686 459 q 668 428 674 443 q 640 406 654 424 l 634 399 l 628 393 q 614 380 621 385 q 600 373 610 376 l 593 371 l 585 368 q 562 348 566 361 q 278 327 460 321 q 277 195 279 264 l 275 167 q 274 138 275 151 q 273 70 273 104 q 262 63 270 66 l 256 61 l 249 59 q 241 33 235 53 q 64 6 114 35 q 43 9 64 18 l 34 6 l 23 2 q 0 1 10 -1 q 9 171 6 56 l 9 195 l 10 220 q 12 271 11 250 q 16 380 14 332 q 18 393 16 386 l 22 404 q 26 428 26 420 q 32 909 35 645 q 48 915 45 905 l 49 919 l 50 924 q 54 930 51 928 q 92 930 73 932 l 107 929 l 122 928 q 193 926 160 924 q 154 916 178 913 l 144 917 l 133 918 q 107 915 119 918 q 216 908 151 908 q 274 909 240 908 l 332 910 q 534 893 475 913 q 531 897 534 897 l 527 898 l 524 899 q 528 905 524 904 q 535 902 531 905 q 540 896 539 899 q 534 893 541 893 q 543 890 537 891 l 549 890 l 555 891 q 577 882 571 891 m 749 626 q 753 608 757 622 l 752 603 l 751 597 q 749 589 749 591 q 746 603 742 591 l 748 608 l 749 614 q 749 626 751 621 z "},"Q":{"ha":964,"x_min":26,"x_max":936,"o":"m 802 61 q 812 68 806 62 q 824 79 818 73 q 831 88 829 85 q 829 87 833 91 q 819 81 825 86 q 808 69 814 76 q 801 60 802 64 q 802 61 798 57 m 861 115 q 846 104 848 105 q 851 107 845 103 q 861 114 857 111 q 861 115 865 117 m 487 360 q 540 414 499 382 l 557 427 l 574 439 q 605 467 593 455 q 623 458 615 468 l 625 454 l 628 450 q 637 446 632 447 q 636 469 635 455 l 637 482 l 637 494 q 631 536 639 525 q 627 517 634 516 q 615 531 620 518 q 610 516 612 526 l 609 507 l 608 498 q 594 473 606 476 q 600 503 595 485 l 605 519 l 609 534 q 600 585 618 569 l 599 581 l 598 578 q 594 574 597 574 q 576 591 586 581 l 559 610 q 525 646 537 635 q 433 675 483 682 q 368 640 397 671 q 327 574 340 612 q 311 498 317 546 l 309 479 l 306 460 q 300 425 303 439 q 332 383 315 410 l 346 360 q 360 338 354 347 q 460 291 397 288 q 458 300 462 295 l 456 304 l 452 308 q 455 323 445 317 q 472 298 458 311 q 492 291 486 286 q 471 310 481 297 l 463 321 l 455 334 q 465 345 462 338 l 468 351 l 470 356 q 487 360 475 366 m 696 846 q 709 825 706 828 q 709 829 712 822 q 701 842 705 836 q 696 846 697 849 m 685 846 q 676 860 681 856 q 669 861 671 863 q 671 854 667 859 q 685 846 675 850 m 936 141 q 858 85 905 123 l 820 57 q 781 28 798 41 q 789 24 783 20 l 792 27 l 795 28 q 802 28 799 31 q 728 -41 778 -9 q 693 7 717 -16 q 671 26 684 16 l 648 45 q 636 41 644 42 l 629 39 l 623 37 q 605 24 607 34 q 565 20 588 23 l 544 18 l 524 16 q 439 13 471 9 q 316 45 387 18 l 288 57 l 260 68 q 209 87 228 81 l 201 101 l 192 114 q 172 141 182 129 q 159 159 166 147 l 152 169 l 145 180 q 113 221 127 208 q 91 285 106 251 l 77 313 l 64 341 q 38 473 32 409 q 35 476 37 474 l 31 479 q 27 488 26 482 q 36 510 35 499 q 36 520 37 515 l 35 529 q 43 569 32 554 q 159 817 52 704 q 418 948 270 934 q 589 916 480 954 q 614 908 598 913 l 629 903 l 643 899 q 690 879 675 888 q 739 825 711 864 q 781 755 762 793 q 800 712 791 737 l 808 690 l 816 669 q 850 590 836 614 l 848 591 l 846 593 q 840 595 843 595 l 846 563 q 852 530 850 542 q 856 456 858 490 q 849 417 855 439 l 844 397 l 838 378 q 829 307 824 332 q 812 299 819 322 l 809 288 l 806 278 q 797 264 802 267 l 820 235 l 843 205 q 893 152 870 172 q 890 140 895 144 l 887 138 l 885 136 q 882 130 883 134 q 897 148 899 135 q 882 168 895 159 q 899 161 887 173 l 903 156 l 909 151 q 920 146 915 146 q 897 176 911 160 l 874 204 q 829 264 844 240 q 884 204 853 243 l 910 172 q 936 141 925 153 m 840 355 q 842 344 846 355 l 840 340 l 838 335 q 835 328 835 330 q 832 334 827 319 q 836 347 833 340 q 840 355 838 353 m 856 72 q 850 52 865 62 l 844 48 l 838 43 q 829 34 831 39 q 838 51 824 40 l 844 56 l 849 61 q 856 72 854 66 z "},"R":{"ha":767,"x_min":20,"x_max":786,"o":"m 33 351 l 43 351 q 49 357 50 352 q 40 362 45 357 l 37 365 q 33 368 35 367 l 33 351 m 268 587 q 279 587 272 587 l 286 587 l 292 586 q 311 592 308 585 q 299 604 304 597 l 290 619 q 268 646 277 638 l 268 587 m 412 667 q 397 663 406 664 l 388 663 l 379 663 q 342 656 355 664 q 357 636 351 649 l 363 625 l 369 613 q 408 613 382 614 l 428 613 l 447 613 q 508 629 491 614 q 497 601 485 592 q 510 613 502 604 q 524 629 517 621 q 517 665 525 652 l 513 670 l 509 675 q 503 688 505 682 q 493 692 498 692 l 489 692 l 484 690 q 471 694 475 688 q 476 698 481 694 q 460 703 472 701 q 437 705 448 706 q 422 699 425 704 q 437 691 432 696 l 441 686 l 444 682 q 471 667 453 669 q 435 671 461 660 l 425 675 q 416 678 419 677 q 401 677 406 681 q 408 673 406 677 l 410 670 l 412 667 m 652 838 q 648 844 652 840 q 641 851 644 848 q 635 856 637 855 q 637 854 634 857 q 644 845 640 849 q 649 839 646 842 q 653 836 652 837 q 652 838 654 836 m 669 827 q 688 795 673 818 l 699 779 l 709 760 q 738 672 734 715 q 712 532 745 600 q 631 437 681 469 q 640 420 635 427 l 645 415 l 649 411 q 658 383 659 401 q 662 381 660 378 q 663 389 663 384 q 671 357 663 378 l 675 348 l 679 339 q 685 319 682 328 q 688 317 686 314 q 690 325 690 319 q 693 311 695 321 l 692 307 l 692 302 q 695 292 692 297 q 705 292 702 295 q 717 266 709 287 q 713 263 715 262 l 710 265 q 706 266 708 266 l 713 244 l 720 223 q 738 186 728 200 q 739 161 738 176 q 745 128 741 143 q 776 95 755 87 q 771 121 780 101 q 765 139 766 132 q 765 159 763 150 q 786 90 785 127 q 760 84 776 82 q 770 41 768 62 q 541 20 635 48 q 508 132 513 99 q 503 130 504 133 l 503 126 l 503 122 q 492 116 503 112 q 396 335 456 245 q 356 334 386 331 l 343 336 l 331 336 q 305 335 316 337 l 305 68 l 298 66 l 292 64 q 279 60 283 62 q 262 41 264 54 q 137 28 206 46 l 110 20 l 82 13 q 22 4 50 5 q 24 283 27 115 l 22 350 l 22 418 q 22 560 20 496 q 22 618 22 582 l 21 649 l 20 681 q 27 811 20 758 q 34 836 28 821 l 39 847 l 43 860 q 54 918 56 891 q 68 922 68 917 l 68 926 l 67 930 q 70 939 67 935 q 170 939 112 937 l 221 940 l 273 942 q 476 939 407 947 q 650 865 575 929 q 743 715 723 803 q 728 737 736 721 q 720 753 724 743 l 711 770 q 669 827 688 814 m 669 431 q 673 436 671 437 q 673 431 673 435 q 670 423 673 426 q 663 421 667 419 q 661 420 656 413 q 665 426 662 422 l 667 429 l 669 431 m 503 68 q 519 36 513 60 l 522 26 l 524 17 q 530 -1 526 5 q 538 2 538 3 q 535 -7 539 1 q 515 26 522 2 l 512 37 l 509 47 q 503 68 506 60 z "},"S":{"ha":751,"x_min":14,"x_max":755,"o":"m 399 929 q 382 918 395 918 q 399 929 387 929 m 446 918 q 437 912 443 913 q 429 914 432 911 q 431 918 427 917 q 446 918 435 920 m 511 891 q 518 895 513 897 l 522 893 l 527 891 q 519 888 524 886 l 515 890 l 511 891 m 490 303 q 481 307 488 307 q 473 303 475 308 q 475 296 472 299 q 481 294 477 294 q 488 297 486 294 q 490 303 491 299 m 473 651 q 467 658 471 654 q 456 664 461 662 q 436 662 441 671 q 448 659 441 663 l 453 656 l 458 653 q 473 651 470 645 m 286 651 q 298 659 290 653 q 313 672 305 665 q 323 682 320 678 q 323 683 327 686 q 286 651 300 673 m 452 677 q 441 683 448 679 l 434 686 l 428 690 q 404 688 411 696 q 416 684 408 688 l 423 682 l 431 680 q 452 677 448 673 m 399 699 q 391 699 396 698 l 387 699 l 382 700 q 372 694 371 701 q 379 694 374 694 l 384 694 l 389 693 q 399 699 399 692 m 104 763 q 111 779 104 770 l 116 786 l 121 793 q 131 817 136 809 q 126 812 130 815 l 120 806 q 109 793 113 799 q 104 763 96 775 m 163 838 q 144 827 147 829 q 150 829 143 826 q 162 835 157 832 q 163 838 168 838 m 666 736 q 670 745 674 739 l 668 747 l 666 751 q 666 758 664 755 q 687 614 687 717 q 587 612 640 610 l 564 612 q 538 613 549 613 q 473 614 507 614 l 473 640 q 429 654 458 643 l 406 663 q 383 671 393 668 q 308 646 330 685 q 323 635 320 646 q 334 649 326 642 l 340 655 l 345 662 q 349 654 351 659 l 347 650 l 345 646 q 451 605 379 628 l 480 596 l 509 587 q 564 566 541 575 q 584 555 573 562 l 593 548 l 602 542 q 639 523 623 526 q 644 501 645 515 q 744 347 731 442 q 702 173 755 260 q 557 39 649 86 q 345 4 456 -13 q 313 15 336 5 l 302 19 l 292 23 l 270 31 q 249 37 261 34 l 227 41 q 190 52 200 47 q 188 55 189 53 l 185 60 q 179 68 182 67 q 154 77 170 73 l 142 80 l 130 83 q 88 106 102 92 q 71 134 82 113 q 56 164 62 151 q 51 191 53 173 l 49 204 q 45 218 47 212 l 43 229 l 39 240 q 30 266 35 254 q 25 277 28 271 q 20 292 22 283 q 14 330 15 312 q 56 339 30 330 l 78 347 l 100 354 q 184 336 153 370 l 260 336 q 265 309 260 322 l 271 298 l 275 288 q 452 293 374 262 q 404 319 448 317 q 330 359 379 338 l 311 367 l 290 376 q 249 394 265 386 q 174 437 214 412 q 155 448 167 441 l 136 458 q 104 480 114 470 q 56 581 71 515 q 56 705 40 650 q 62 723 58 711 q 72 751 67 737 q 94 800 86 789 q 254 890 129 854 q 490 897 391 931 q 486 901 489 900 l 482 901 l 479 902 q 482 908 478 908 q 490 905 486 909 q 494 900 494 902 q 490 897 495 897 q 518 881 500 888 l 534 875 l 549 869 q 585 838 583 857 q 591 839 589 838 l 596 841 q 607 844 602 844 q 620 808 597 832 l 630 798 l 640 787 q 655 768 651 776 q 656 772 654 787 l 657 768 l 659 764 l 661 753 q 666 736 663 742 z "},"T":{"ha":803,"x_min":20,"x_max":785,"o":"m 95 925 q 85 919 92 920 q 78 921 81 918 q 79 925 75 924 q 95 925 83 927 m 293 920 q 306 926 294 926 l 311 925 l 316 924 q 325 925 322 924 q 312 919 325 918 l 307 920 l 302 920 q 293 920 296 920 m 630 951 q 660 951 644 964 l 666 945 l 672 939 q 683 930 679 932 q 661 939 677 926 q 647 949 653 946 q 630 951 638 953 m 239 572 q 238 584 241 578 q 234 583 235 590 q 235 571 233 577 q 239 572 238 565 m 234 610 q 235 618 235 612 q 234 629 235 625 q 229 631 233 642 q 229 622 229 628 q 229 611 229 616 q 234 610 230 598 m 501 428 q 534 701 515 511 l 501 701 l 501 428 m 143 701 q 132 700 139 699 l 125 701 l 119 701 q 100 695 103 702 q 112 695 104 696 l 119 695 l 125 694 q 143 701 141 693 m 90 701 q 74 701 78 703 q 73 696 70 699 q 80 694 75 694 q 90 701 86 694 m 31 695 q 40 695 34 696 l 45 695 l 50 694 q 63 701 62 693 q 46 699 51 694 q 41 715 42 703 l 41 724 q 41 731 41 729 q 37 732 41 737 q 35 712 38 722 l 33 704 q 31 695 32 699 m 646 920 q 630 920 634 922 q 629 916 626 918 q 636 913 631 913 q 646 920 642 914 m 571 920 q 564 919 568 918 l 559 920 l 554 920 q 544 914 544 921 q 552 915 547 915 l 556 914 l 561 913 q 571 920 572 913 m 271 497 q 269 473 263 484 l 273 469 l 276 465 q 282 454 280 459 q 274 425 267 463 q 281 396 277 411 q 288 380 286 382 q 287 529 286 423 l 288 571 l 288 614 q 288 701 288 663 l 218 701 q 222 686 222 696 l 223 677 l 223 667 q 234 642 223 644 q 234 648 235 644 l 233 650 l 232 652 q 234 658 230 656 q 244 610 242 649 l 245 593 l 246 576 q 250 545 248 557 q 252 541 251 543 l 256 537 q 261 529 260 533 q 260 519 262 524 l 259 515 l 258 512 q 267 519 257 510 l 265 514 l 264 509 q 262 499 262 502 q 271 497 260 488 m 261 54 q 235 360 256 194 l 231 395 l 227 429 q 218 501 222 470 q 202 673 208 588 q 111 679 178 682 q 20 684 45 677 q 42 914 49 800 q 106 914 71 914 l 138 914 l 168 915 q 286 915 248 915 q 523 914 418 916 l 523 916 l 523 919 q 523 923 522 922 q 544 925 524 927 q 488 936 528 936 l 471 936 l 454 935 q 421 935 433 935 q 499 943 448 946 q 543 940 518 943 l 563 938 l 572 937 l 582 935 q 609 933 592 935 l 621 932 l 633 932 q 673 914 659 929 q 705 915 682 917 l 715 914 l 726 913 q 747 914 737 913 q 755 852 741 878 q 768 831 760 842 l 777 822 l 785 812 q 774 786 782 800 l 767 774 l 760 763 q 747 701 743 734 q 709 687 723 704 l 705 680 l 700 672 q 688 658 694 662 q 667 662 680 662 q 645 661 659 663 q 608 663 617 659 q 591 553 602 614 l 574 446 q 539 224 550 303 q 534 0 530 163 l 525 1 l 516 3 q 500 6 506 5 q 486 11 482 9 q 435 22 464 17 l 409 26 l 381 29 q 261 54 308 38 m 267 610 q 258 625 260 611 q 255 648 255 635 q 257 655 256 659 q 261 625 259 651 l 262 622 l 264 618 q 267 610 267 614 z "},"U":{"ha":767,"x_min":16,"x_max":755,"o":"m 735 868 q 741 867 739 880 q 741 855 741 862 q 741 846 741 850 q 735 848 736 836 q 735 859 734 853 q 735 868 735 865 m 735 777 q 739 779 736 785 q 741 766 742 772 q 736 765 739 760 q 735 777 734 771 m 735 665 q 739 666 736 672 q 741 654 742 660 q 736 653 739 647 q 735 665 734 659 m 730 483 q 735 477 735 493 l 735 469 l 735 462 q 735 451 735 453 q 730 458 730 441 l 730 465 l 730 472 q 730 483 730 481 m 532 943 q 518 945 518 945 q 525 944 517 945 q 536 942 532 943 q 532 943 540 941 m 633 125 q 640 134 635 128 l 645 138 l 650 142 q 655 157 661 153 q 649 148 654 153 l 644 144 l 640 140 q 633 125 627 130 m 511 842 q 515 863 514 848 l 515 876 l 515 888 q 537 916 517 916 q 526 915 532 914 l 521 916 l 516 918 q 505 916 505 921 q 512 899 512 910 q 509 878 512 892 q 511 842 503 848 m 746 312 q 739 243 755 278 q 722 213 732 231 l 712 199 l 703 184 q 669 130 679 141 q 612 82 651 107 q 594 72 606 79 l 585 66 l 575 61 q 473 28 539 40 q 476 24 473 24 l 479 23 l 484 23 q 489 13 494 23 q 170 66 305 -29 q 24 334 37 161 q 26 629 16 433 l 30 707 l 33 787 q 35 943 37 876 q 313 900 115 930 q 302 467 302 767 q 301 436 302 456 l 300 419 l 298 402 q 302 339 296 361 q 326 302 307 320 l 334 294 l 343 286 q 361 269 355 276 q 405 280 372 277 l 418 282 l 431 283 q 457 291 446 286 q 492 393 489 315 q 491 471 493 420 l 490 492 l 490 514 q 489 558 489 538 q 500 932 489 825 q 730 911 579 906 l 728 846 l 725 782 q 724 649 723 707 q 727 635 722 635 l 730 636 l 732 636 q 735 633 734 636 q 724 507 726 584 l 724 474 l 725 441 q 725 376 725 399 q 666 168 722 222 q 677 176 673 176 q 679 172 680 177 q 674 162 677 168 q 666 152 670 156 q 717 214 694 163 q 746 312 734 255 m 591 61 q 578 42 591 52 q 557 29 569 34 q 549 28 545 24 q 575 45 551 33 q 591 61 585 50 z "},"V":{"ha":987,"x_min":20,"x_max":968,"o":"m 555 604 q 551 611 549 606 l 553 616 l 555 620 q 559 613 561 618 l 557 609 l 555 604 m 427 534 q 422 551 427 541 q 414 570 420 560 q 406 583 410 577 q 406 583 403 587 l 409 569 q 413 556 411 562 q 427 534 418 542 m 817 920 q 789 917 793 919 q 798 914 785 916 q 825 914 810 913 q 854 920 844 915 l 817 920 m 683 903 q 813 929 726 920 q 890 937 847 933 q 926 939 907 937 q 961 941 940 939 q 943 897 954 924 l 934 877 l 926 857 q 886 781 907 814 q 895 782 890 772 l 897 786 l 899 790 q 907 791 903 793 q 566 0 809 524 q 519 8 545 3 l 473 16 q 378 32 414 28 q 199 444 314 177 l 156 544 q 113 646 132 600 q 20 855 63 760 q 42 866 37 857 q 34 890 41 876 l 29 901 q 26 914 26 908 l 61 913 l 96 913 q 164 915 136 913 q 277 941 237 920 q 371 703 309 847 l 396 646 l 421 588 q 469 471 450 522 q 450 492 460 467 l 446 503 l 442 513 q 432 529 437 525 q 450 474 431 512 l 458 458 l 465 444 q 475 412 472 426 l 495 454 l 515 497 q 549 588 536 546 q 545 584 547 588 l 545 581 l 544 577 q 538 581 538 577 q 541 589 538 584 q 547 593 544 593 q 549 588 550 593 q 592 679 567 621 l 602 702 l 612 726 q 635 775 624 753 q 627 780 625 770 q 630 791 627 784 l 632 799 l 635 807 q 640 799 644 805 l 637 796 l 635 793 q 635 786 633 789 q 665 846 650 807 q 683 903 678 880 m 961 909 q 955 871 968 899 l 949 859 l 943 847 q 935 823 937 833 q 946 867 931 836 l 952 879 l 957 890 q 961 909 962 902 z "},"W":{"ha":1135,"x_min":20,"x_max":1116,"o":"m 817 593 q 821 595 819 601 q 822 583 823 589 q 818 581 821 575 q 817 593 816 587 m 806 572 q 810 573 808 579 q 812 562 812 567 q 808 560 810 554 q 806 572 805 566 m 1009 385 q 1008 397 1010 391 q 1004 395 1006 403 q 1005 384 1003 390 q 1009 385 1008 378 m 1042 529 q 1042 542 1040 534 l 1044 549 l 1045 557 q 1042 567 1049 572 q 1041 556 1043 562 l 1039 551 l 1037 546 q 1042 529 1032 534 m 683 871 q 686 880 686 874 q 682 888 685 884 q 676 892 679 892 q 673 887 673 892 q 677 880 673 888 l 680 877 l 682 873 q 683 871 683 871 m 646 914 q 663 913 656 917 q 668 908 665 911 l 673 903 q 673 917 678 912 q 659 920 668 920 q 644 918 650 921 q 646 914 640 916 m 1116 802 q 1063 539 1106 697 l 1046 476 l 1029 412 q 998 283 1009 338 q 1009 299 1004 288 q 988 147 1008 239 l 979 110 l 970 73 q 956 0 960 31 l 736 0 q 592 395 662 214 q 513 203 556 314 l 475 104 l 437 5 q 383 7 412 7 l 357 7 l 332 8 q 239 11 269 9 q 221 44 223 22 l 220 54 l 220 64 q 218 85 220 77 q 211 107 216 94 l 206 117 l 202 128 q 178 241 189 171 l 170 298 q 159 353 165 330 q 153 374 157 362 l 146 395 q 133 438 136 423 q 132 448 132 442 l 133 457 q 133 476 134 470 q 128 492 131 483 l 121 510 q 111 545 113 534 l 111 553 l 111 562 q 111 577 113 572 q 107 593 110 584 l 102 608 q 95 647 98 625 q 62 789 89 700 l 51 826 l 40 863 q 20 941 28 907 l 304 941 q 320 859 311 907 l 328 817 l 336 774 q 373 599 356 666 q 410 690 390 632 l 427 737 q 445 784 437 765 q 549 935 488 893 q 588 936 567 937 l 606 935 l 622 933 q 678 935 660 930 q 692 893 683 918 l 701 871 l 709 850 q 731 770 729 798 q 711 812 721 782 l 708 823 l 704 835 q 694 855 699 847 q 748 692 707 795 l 764 649 l 781 607 q 812 524 800 558 l 817 544 l 823 564 q 834 606 831 589 q 838 695 845 656 q 844 685 845 695 l 844 680 l 843 675 q 844 668 843 671 q 857 713 850 680 q 860 743 865 746 q 869 779 863 755 l 871 789 l 874 800 l 880 823 q 903 914 895 881 l 1116 914 q 1085 758 1107 857 l 1076 720 l 1067 682 q 1052 604 1058 639 q 1061 607 1063 623 l 1061 603 l 1060 598 l 1058 587 q 1057 567 1057 574 q 1090 682 1074 609 l 1096 711 l 1103 742 q 1116 802 1110 779 m 731 764 q 742 749 737 760 q 736 749 741 739 q 731 764 730 758 m 844 705 q 847 724 846 723 q 846 716 847 725 q 844 703 846 707 q 844 705 844 698 m 1046 433 q 1048 395 1055 420 l 1044 386 l 1041 376 q 1036 358 1037 364 q 1040 391 1033 366 l 1042 401 l 1045 412 q 1046 433 1047 424 z "},"X":{"ha":932,"x_min":20,"x_max":918,"o":"m 822 802 q 826 795 828 800 l 824 791 l 822 786 q 819 793 817 788 l 821 798 l 822 802 m 785 235 q 804 216 793 228 l 808 212 l 812 208 q 818 202 816 203 q 812 214 827 193 q 809 217 811 215 l 806 222 q 799 233 802 229 q 779 246 787 248 q 785 235 786 244 m 560 807 q 566 815 561 811 l 569 819 q 571 823 570 821 q 563 823 567 825 q 557 818 559 821 q 555 811 554 814 q 560 807 555 808 m 860 176 q 888 157 871 179 l 895 149 l 901 139 q 913 123 909 127 q 903 109 913 113 l 899 107 l 894 106 q 886 102 888 104 q 895 88 889 95 l 899 83 l 904 77 q 918 48 916 62 q 646 0 749 62 q 603 63 628 28 l 559 125 q 475 251 504 203 q 442 217 458 241 l 429 197 l 416 176 q 404 157 411 169 l 390 135 q 362 96 374 109 l 359 92 l 355 87 l 345 78 q 326 56 334 66 q 293 5 302 28 q 20 48 219 58 q 58 102 28 72 q 54 109 58 106 l 50 111 l 45 113 q 37 128 34 117 q 92 203 61 159 l 119 242 l 145 281 q 261 428 212 377 q 277 465 264 448 q 290 479 282 471 l 304 492 q 250 582 286 532 l 218 625 l 186 668 l 172 690 l 157 711 q 127 753 138 739 q 111 774 121 763 l 93 794 q 63 834 71 819 q 64 837 62 835 l 65 840 l 66 842 q 58 844 67 846 q 65 856 55 854 l 69 857 l 73 857 q 79 861 78 858 q 59 892 72 875 l 48 905 l 37 920 q 107 925 63 924 l 183 925 q 309 951 275 926 q 347 893 324 924 l 367 865 l 387 837 q 464 722 441 764 q 553 829 503 757 l 572 857 l 593 886 q 635 941 616 918 q 608 889 632 923 l 598 875 l 588 861 q 571 834 576 845 q 606 872 585 840 l 615 886 l 624 900 q 640 925 634 916 q 648 924 644 924 q 653 926 651 924 q 654 929 655 928 q 651 930 654 930 q 701 930 667 932 q 732 928 713 929 l 749 927 l 766 926 q 903 925 860 920 q 888 900 897 913 l 880 889 l 871 878 q 854 829 852 852 q 850 836 848 831 l 852 840 l 854 844 q 801 753 801 802 q 792 758 787 753 l 795 761 l 798 764 q 801 770 801 767 q 776 748 789 770 q 764 711 763 726 q 743 699 756 712 q 721 671 733 689 q 703 642 711 656 q 699 631 696 629 q 654 574 685 618 q 603 497 625 534 q 637 449 617 477 l 671 402 q 736 304 713 344 q 725 334 742 315 l 718 342 l 711 350 q 705 369 705 360 l 712 360 l 719 351 q 736 337 728 341 q 689 412 722 366 l 676 430 l 663 448 q 640 486 650 469 q 757 325 692 429 l 783 282 l 810 239 q 865 155 842 189 q 867 164 871 153 q 860 176 864 175 m 684 596 l 678 588 l 672 580 l 667 572 q 669 590 659 578 q 688 604 678 601 l 684 596 m 806 267 q 825 256 814 273 l 829 248 l 834 241 q 844 230 840 233 q 826 243 836 224 l 821 250 l 817 258 q 806 267 812 266 z "},"Y":{"ha":857,"x_min":20,"x_max":838,"o":"m 315 332 q 319 330 318 342 q 320 319 320 326 q 319 310 320 313 q 315 311 316 299 q 314 323 314 316 q 315 332 314 328 m 315 43 q 320 31 321 36 q 316 25 320 26 q 311 28 312 24 q 315 43 309 34 m 229 551 q 239 532 237 534 q 238 537 241 530 q 232 549 235 545 q 229 551 229 555 m 250 524 q 248 518 246 523 l 249 516 l 250 514 q 250 508 251 511 q 241 515 243 507 l 241 518 l 239 521 q 234 524 237 524 q 258 469 235 505 l 269 456 l 278 441 q 293 412 289 425 q 208 538 252 457 l 190 572 l 172 605 q 138 668 151 646 q 134 660 130 666 l 136 657 l 138 654 q 138 647 140 650 q 74 725 106 675 q 47 768 64 741 l 34 791 l 20 812 q 27 817 22 815 l 32 817 l 36 818 q 47 829 47 821 q 36 852 44 840 l 28 862 l 20 871 l 58 873 l 94 875 q 165 882 134 878 q 282 920 240 893 q 323 869 302 901 l 340 841 l 357 812 l 374 786 l 393 760 q 427 705 415 727 q 571 914 493 771 q 838 877 655 867 q 831 863 836 870 l 822 850 l 814 838 q 806 823 809 830 q 812 817 808 820 l 815 814 l 819 812 q 827 796 827 806 q 790 738 802 784 q 674 570 745 684 l 647 527 l 619 484 q 560 401 588 435 l 560 54 q 554 41 559 47 l 549 37 l 545 32 q 539 0 533 20 l 325 0 q 325 108 325 43 l 325 162 l 324 216 q 325 406 324 343 l 307 434 l 289 461 q 256 519 268 494 q 250 524 251 517 m 149 610 q 153 605 146 613 q 161 594 157 598 q 170 588 167 589 q 156 589 164 578 q 149 610 149 599 z "},"Z":{"ha":651,"x_min":16,"x_max":635,"o":"m 347 312 q 347 297 353 310 q 340 288 345 293 l 338 283 q 336 280 336 281 q 338 293 330 281 l 340 298 l 343 302 q 347 312 347 309 m 501 45 q 491 44 498 44 l 485 45 l 479 45 q 464 39 465 47 q 474 40 467 41 l 480 39 l 486 39 q 501 45 500 38 m 581 39 q 605 42 599 40 q 603 45 611 44 q 587 45 595 45 q 576 43 581 44 q 573 41 572 41 q 581 39 574 39 m 619 45 q 603 210 618 170 l 603 188 l 603 165 q 603 119 602 136 q 619 45 604 68 m 592 697 q 602 705 599 698 l 605 712 q 608 718 606 716 q 604 679 618 701 q 589 661 599 672 l 583 652 l 576 644 l 562 621 l 548 599 q 517 558 532 574 q 536 600 515 570 l 545 611 q 552 622 549 618 q 560 638 559 633 q 532 609 545 631 l 528 599 l 523 589 q 512 569 517 576 q 476 515 498 547 l 457 488 l 437 459 q 362 345 387 387 q 362 323 371 334 q 360 328 358 324 l 361 330 l 362 333 q 362 339 363 336 q 338 307 351 330 l 332 298 l 327 290 q 314 275 321 281 q 359 256 326 258 q 389 258 369 256 l 406 258 l 421 258 l 470 259 l 494 259 l 517 260 q 603 258 572 260 q 605 246 608 254 l 604 242 l 602 238 q 603 227 602 233 q 612 220 609 227 l 613 218 l 614 214 q 619 205 616 209 q 624 106 618 162 l 627 83 l 630 60 q 635 13 633 33 q 503 22 589 19 l 469 23 l 434 24 q 368 28 396 26 q 382 22 371 24 l 391 20 q 399 18 397 20 q 330 6 374 3 l 313 8 l 295 10 q 260 13 273 13 q 244 8 254 13 l 237 4 q 229 2 233 3 q 126 3 191 -2 l 100 4 l 75 6 q 26 7 46 7 q 32 81 33 42 q 26 151 32 107 q 26 280 16 239 q 52 330 30 299 l 61 343 l 71 356 q 90 382 84 374 q 140 454 111 412 l 189 528 q 288 670 252 621 q 58 675 200 683 q 52 686 56 680 l 47 698 q 31 713 41 710 q 30 773 31 741 l 28 800 l 27 827 q 26 948 24 895 q 318 946 155 950 l 350 945 l 382 945 q 451 944 420 944 q 614 943 532 943 q 604 842 604 909 l 604 814 l 604 785 q 603 729 604 751 q 604 730 603 729 l 606 730 q 608 734 610 732 q 602 714 611 728 l 598 709 l 595 705 q 592 697 592 700 m 389 371 q 396 381 397 382 q 391 373 395 380 q 385 364 386 366 q 389 371 382 362 m 416 414 q 418 420 416 420 q 421 414 420 419 q 422 406 422 409 q 416 403 420 401 q 412 400 411 397 l 414 403 l 415 406 q 416 414 416 411 z "},"[":{"ha":464,"x_min":19,"x_max":439,"o":"m 397 1041 q 410 1047 397 1048 l 414 1046 l 420 1046 q 429 1046 426 1046 q 416 1040 429 1040 l 411 1041 l 406 1042 q 397 1041 399 1042 m 193 1041 q 180 1030 193 1031 q 168 1030 176 1030 l 162 1031 l 156 1031 q 193 1041 167 1042 m 429 1031 q 437 910 435 981 l 437 881 l 437 851 q 439 790 438 816 q 394 790 420 791 l 371 790 l 348 789 q 269 790 290 789 q 263 159 271 476 q 351 161 295 161 l 373 160 l 395 159 q 434 159 420 159 l 434 -81 l 22 -81 q 21 205 19 46 q 24 347 22 267 l 26 417 l 28 486 q 28 1025 37 842 l 43 1025 l 58 1023 l 89 1022 q 155 1020 126 1020 q 290 1025 234 1019 q 267 1031 286 1032 l 258 1031 l 250 1030 q 237 1031 241 1029 q 322 1037 261 1040 l 349 1035 l 376 1033 q 429 1031 408 1030 z "},"\\":{"ha":579,"x_min":20,"x_max":560,"o":"m 245 962 q 235 956 241 956 q 228 958 231 956 q 229 962 225 960 q 245 962 233 964 m 347 721 q 355 709 353 720 l 356 704 l 357 700 q 362 694 359 696 q 351 699 355 684 l 350 705 l 349 711 q 347 721 347 719 m 68 759 q 47 851 66 789 l 40 876 l 33 901 q 20 951 24 930 q 50 952 31 953 l 66 951 l 83 949 q 133 962 123 947 q 180 950 144 949 l 195 951 l 210 951 q 239 951 229 952 q 247 927 238 941 l 251 922 l 254 916 q 261 903 259 909 q 269 866 265 889 l 273 848 l 276 830 q 304 780 285 789 q 300 826 311 797 l 296 838 l 292 850 q 288 876 288 865 q 323 768 309 838 l 329 737 l 335 707 q 347 646 342 667 q 352 649 351 646 l 352 652 l 352 656 q 362 663 352 667 q 464 342 406 541 l 488 258 l 512 172 q 560 5 543 63 q 478 5 522 7 q 443 3 464 4 l 408 1 q 271 10 330 -3 q 218 193 254 70 l 210 219 l 203 244 l 187 296 q 155 405 169 357 q 37 844 77 673 q 68 759 54 808 z "},"]":{"ha":458,"x_min":18,"x_max":437,"o":"m 427 1032 l 427 754 q 427 479 427 581 q 437 -64 429 164 q 229 -73 366 -76 l 176 -71 q 125 -71 146 -71 q 26 -75 67 -70 q 25 -10 26 -47 l 24 22 l 22 53 q 26 176 18 130 l 197 176 q 195 336 196 243 l 195 418 l 195 500 q 191 797 196 703 q 26 808 121 812 q 31 923 26 852 l 34 980 q 37 1038 36 1012 q 222 1032 102 1032 q 326 1032 258 1031 l 377 1032 l 427 1032 z "},"^":{"ha":780,"x_min":19,"x_max":751,"o":"m 308 958 q 331 960 311 961 q 351 960 338 960 l 372 958 q 420 968 427 955 q 469 914 445 966 l 480 891 l 490 868 q 516 825 504 840 q 510 854 522 834 l 505 863 l 500 871 q 495 888 495 880 q 489 892 490 889 q 491 897 488 895 q 494 898 493 900 q 495 888 496 896 q 543 798 517 853 l 564 749 l 586 701 q 587 697 586 697 q 589 699 589 697 q 591 704 591 701 q 591 707 592 707 q 610 681 600 703 l 613 672 l 616 663 q 623 648 621 652 q 654 591 632 631 l 663 574 l 673 557 l 691 523 q 751 397 736 438 l 473 397 q 450 442 463 416 l 438 466 l 427 490 q 377 578 399 547 q 328 492 355 543 l 304 447 l 281 402 l 19 402 q 108 589 47 476 l 132 633 l 156 678 q 201 771 182 730 q 206 772 203 772 q 210 773 208 773 l 212 774 l 213 774 l 217 782 q 270 876 243 824 q 308 958 291 918 z "},"_":{"ha":806,"x_min":6,"x_max":792,"o":"m 247 -17 q 254 -11 248 -12 q 264 -13 259 -10 q 266 -17 268 -15 q 252 -17 263 -19 q 248 -20 250 -20 q 244 -20 245 -21 q 243 -19 243 -20 q 247 -17 244 -18 m 792 -22 q 777 -93 790 -47 l 772 -111 l 768 -129 q 760 -167 762 -150 q 757 -201 758 -181 l 756 -218 l 755 -235 q 739 -295 753 -273 q 411 -293 630 -298 l 320 -290 l 229 -288 q 49 -285 122 -286 q 66 -273 47 -272 l 75 -274 l 83 -275 q 97 -274 92 -275 q 55 -268 85 -267 l 42 -269 l 30 -269 q 6 -269 15 -270 l 6 -55 q 106 -54 50 -53 l 130 -54 l 155 -54 q 210 -55 184 -55 q 197 -49 209 -47 l 191 -50 l 186 -50 q 177 -50 180 -50 q 193 -39 182 -43 q 176 -32 189 -33 q 163 -33 171 -32 l 150 -34 q 113 -22 116 -37 q 300 -39 220 -27 q 296 -31 307 -37 q 290 -25 290 -28 q 295 -17 288 -21 q 347 -17 315 -17 l 374 -16 l 403 -16 q 526 -16 475 -16 q 792 -22 679 -16 z "},"`":{"ha":548,"x_min":12,"x_max":536,"o":"m 498 606 q 486 600 491 600 q 482 605 482 601 q 487 610 483 608 q 498 606 492 612 m 488 654 q 488 667 494 656 q 484 674 484 671 q 488 682 483 679 q 520 623 494 675 q 435 612 498 611 q 445 606 434 605 l 449 606 l 454 607 q 461 606 459 608 q 365 602 436 602 l 336 602 l 306 603 q 248 601 272 603 q 140 779 209 686 q 77 859 115 812 l 44 899 l 12 938 l 44 938 q 41 950 51 941 l 37 954 l 34 958 q 28 964 29 962 q 168 954 80 974 l 203 946 q 239 940 222 942 q 317 938 279 934 q 322 924 317 931 q 331 914 326 919 q 338 906 340 905 q 361 861 347 884 q 387 831 377 836 q 408 783 391 814 q 440 745 428 749 q 460 703 441 731 l 468 690 l 475 679 q 488 654 484 665 m 509 671 q 523 664 515 678 l 526 658 l 529 652 q 536 644 533 646 q 524 651 531 637 l 520 657 l 517 663 q 509 671 513 669 z "},"a":{"ha":1028,"x_min":20,"x_max":1004,"o":"m 464 172 q 453 161 464 163 q 443 161 450 161 l 432 161 q 446 168 435 166 l 456 169 q 464 172 461 170 m 876 43 q 859 43 864 45 q 859 39 856 42 q 866 37 861 37 q 876 43 871 38 m 267 43 q 257 43 263 43 l 252 43 l 247 44 q 234 38 235 45 q 243 39 237 39 l 248 38 l 254 37 q 267 43 266 37 m 224 43 q 199 43 214 42 l 185 43 l 172 44 q 127 38 140 45 q 152 39 137 39 l 165 38 l 179 37 q 224 43 211 36 m 566 428 q 555 433 561 430 l 547 439 q 528 450 536 447 q 540 425 526 435 q 566 428 555 416 m 469 423 q 484 423 473 423 l 494 422 l 503 422 q 517 428 526 422 q 503 464 496 432 q 511 490 505 474 l 513 495 l 515 500 q 517 509 517 506 q 528 495 519 496 q 544 503 536 494 q 536 511 539 505 l 534 517 l 532 524 q 517 541 528 540 q 496 479 511 513 l 483 451 l 469 423 m 362 123 q 349 71 368 103 l 341 58 l 334 45 q 325 17 326 30 q 193 21 277 12 l 160 24 q 126 27 142 26 q 52 27 87 30 q 56 22 52 22 l 60 22 l 66 22 q 74 12 79 22 l 20 12 q 34 52 24 31 l 43 69 l 52 86 q 79 166 77 130 q 167 359 116 244 l 212 458 l 256 559 q 437 947 367 809 q 524 941 467 952 l 547 937 l 569 933 q 614 930 595 929 q 616 918 610 926 l 619 914 l 623 910 q 630 899 627 905 q 644 867 637 884 l 650 854 q 656 840 653 846 l 659 834 q 661 829 659 831 q 673 824 664 823 q 699 760 677 783 q 850 390 751 623 l 890 298 l 928 207 q 1004 22 972 103 q 865 24 947 20 l 834 25 l 804 26 q 747 27 771 28 q 794 38 760 42 l 808 37 l 823 35 q 849 38 838 35 q 799 44 834 45 l 784 43 l 770 43 q 742 43 753 42 q 724 84 735 60 l 705 124 q 673 209 684 173 q 596 209 639 209 l 561 209 l 526 209 q 384 209 444 208 q 368 188 374 204 l 365 181 l 363 174 q 357 161 360 165 l 364 161 l 370 161 q 378 166 378 161 q 383 162 384 165 q 378 157 382 160 q 368 155 373 155 q 357 155 361 154 q 330 100 345 138 l 323 85 l 317 71 q 304 43 311 55 q 288 43 291 45 q 287 40 287 41 l 288 37 q 267 33 290 30 q 315 22 281 21 q 340 71 327 39 l 351 98 q 362 123 357 113 m 619 199 q 614 186 629 191 q 587 182 600 181 q 594 188 589 186 l 599 189 l 604 189 q 619 199 618 191 m 176 12 q 178 4 182 7 q 165 1 174 1 q 149 1 157 -1 q 138 6 140 2 q 146 9 140 9 l 153 9 l 159 8 q 176 12 174 5 z "},"b":{"ha":754,"x_min":14,"x_max":737,"o":"m 345 257 q 336 276 346 267 q 323 279 326 286 q 334 268 330 278 q 345 257 338 258 m 260 257 q 277 258 267 258 l 288 257 l 298 256 q 329 262 321 256 q 298 286 319 276 q 281 296 288 291 q 260 316 271 303 l 260 257 m 462 262 q 463 261 462 261 q 473 262 465 260 q 485 272 477 263 l 492 279 q 500 284 496 282 q 502 286 500 284 q 506 288 504 287 l 510 292 q 515 303 515 298 q 511 316 517 310 l 502 313 q 494 311 496 312 q 479 294 484 306 q 483 315 477 307 q 489 321 485 317 l 494 327 q 458 329 481 326 q 437 333 450 330 l 414 337 q 323 337 355 348 l 330 325 l 337 313 q 353 292 345 300 q 404 268 373 270 q 396 262 404 263 l 393 262 l 391 261 q 388 257 388 260 q 408 258 397 258 l 418 257 l 427 256 q 463 262 449 255 l 462 262 m 302 669 q 319 680 320 671 l 318 684 l 317 687 q 318 696 316 692 q 332 680 326 691 l 338 671 q 345 663 342 667 q 348 672 347 668 l 347 675 l 347 677 q 351 685 347 682 q 365 667 355 675 l 373 660 l 382 653 q 414 621 408 635 q 446 658 446 631 q 407 667 436 670 l 396 667 q 385 667 390 666 q 366 674 374 667 q 382 683 370 680 q 405 688 390 686 q 436 696 435 692 q 353 707 409 707 l 330 707 l 306 706 q 260 706 277 705 l 260 589 q 280 589 267 590 l 292 589 l 303 588 q 340 594 330 587 q 331 599 333 593 q 330 611 329 604 q 332 623 330 616 q 334 626 334 627 q 331 631 334 628 l 328 633 l 325 635 q 323 653 318 641 l 325 654 l 327 655 q 323 658 329 657 q 315 659 323 652 l 312 663 l 309 665 q 302 669 304 669 m 505 904 q 503 910 507 909 q 494 909 500 911 q 489 907 490 908 q 494 904 488 905 q 502 903 498 904 l 505 902 l 508 901 q 505 904 512 899 m 666 123 q 673 122 667 115 q 679 129 676 125 q 682 134 681 132 q 660 86 686 106 q 634 70 651 79 l 621 62 l 607 54 q 600 49 604 52 l 593 43 q 581 33 584 35 q 314 1 501 -6 q 237 6 286 3 l 197 8 l 159 10 q 14 12 68 15 q 23 206 24 85 l 23 252 l 23 298 q 30 391 24 349 q 31 395 30 391 l 33 398 l 35 401 q 40 418 40 412 q 38 456 41 430 l 36 477 q 35 498 35 489 q 40 589 35 531 l 41 614 l 43 640 q 47 693 46 673 q 51 920 57 831 q 62 928 61 918 l 63 932 l 63 936 q 67 941 64 940 q 144 941 100 941 l 184 941 l 224 942 q 379 941 326 944 q 607 856 550 930 q 589 863 600 857 q 579 870 585 865 l 568 878 q 516 899 539 899 q 642 798 597 859 q 687 631 694 726 q 690 629 688 629 l 691 629 l 692 629 q 698 626 697 631 q 680 580 689 611 q 676 546 670 547 q 681 543 681 545 q 677 538 681 540 q 671 536 675 536 q 666 541 667 537 q 671 522 666 533 q 676 503 676 511 q 671 508 673 505 l 669 511 l 667 515 q 655 524 662 524 q 675 473 648 509 q 696 448 684 461 q 704 439 699 444 l 707 435 q 709 433 708 434 q 718 401 707 429 q 725 376 722 385 q 730 353 729 363 q 715 227 737 292 q 692 172 706 200 q 666 123 682 152 m 714 203 q 718 194 722 210 l 716 186 l 714 179 q 714 166 713 171 q 709 183 705 171 l 711 188 l 713 193 q 714 203 715 199 z "},"c":{"ha":842,"x_min":18,"x_max":843,"o":"m 277 519 q 281 521 279 527 q 282 509 283 515 q 279 507 281 501 q 277 519 276 513 m 282 488 q 293 471 294 484 q 282 488 282 475 m 432 268 q 437 263 437 269 q 459 263 455 265 q 456 258 463 260 q 442 257 449 255 q 432 268 433 259 m 795 247 q 786 233 786 233 l 791 241 q 799 252 797 249 q 795 247 802 255 m 395 690 q 386 683 385 686 q 391 680 386 681 q 399 683 397 680 q 395 690 401 686 m 555 327 q 575 363 553 346 q 614 380 595 380 q 673 354 622 380 q 812 258 746 315 q 787 202 809 227 l 777 192 l 767 182 q 747 161 754 169 q 758 163 751 154 l 761 168 l 764 171 q 774 172 769 174 q 722 109 764 140 l 706 97 l 690 84 q 662 54 672 69 q 425 1 546 -8 q 218 77 313 9 q 73 245 125 142 q 20 471 18 352 q 22 516 21 490 q 26 562 24 547 q 28 566 26 564 l 31 571 q 37 578 37 578 q 35 581 37 580 l 33 585 q 31 594 30 590 q 35 601 33 597 l 39 605 q 47 616 45 610 q 53 640 50 625 l 56 652 l 58 664 q 79 718 65 692 q 150 804 103 759 q 193 845 164 819 l 216 866 l 239 888 q 278 902 256 893 l 297 910 l 317 918 q 406 942 366 938 q 566 920 475 949 q 639 892 593 910 l 656 886 l 673 879 q 705 867 691 871 q 734 823 716 848 l 751 803 l 768 783 q 823 690 808 732 l 766 661 l 711 631 q 593 578 645 597 q 549 643 584 617 q 473 674 517 667 q 391 666 429 680 q 330 616 350 651 q 349 644 329 625 l 358 651 l 366 659 q 378 675 375 667 q 307 618 336 667 q 273 509 280 573 q 280 393 264 446 q 336 316 297 336 q 330 314 334 311 q 325 321 326 317 q 358 283 331 303 q 416 268 390 259 q 414 265 416 267 l 410 263 q 406 258 406 261 q 533 276 477 243 q 608 359 579 303 q 632 347 621 354 l 641 341 l 649 335 q 684 316 668 320 q 674 322 674 319 q 679 327 673 325 q 692 328 685 329 q 705 321 700 327 q 628 366 677 358 q 555 327 573 374 m 550 295 q 538 286 547 290 l 530 283 q 523 279 526 281 q 520 277 519 275 q 526 284 522 280 q 537 293 532 290 q 550 295 545 296 m 827 268 q 834 239 843 260 q 825 222 831 232 l 821 215 q 817 210 818 211 q 818 221 814 214 l 821 227 l 825 235 q 827 268 836 254 z "},"d":{"ha":780,"x_min":20,"x_max":785,"o":"m 545 460 q 545 466 545 461 q 543 475 544 471 q 542 480 543 479 q 539 476 541 481 q 539 456 536 462 q 545 460 543 451 m 528 487 q 522 488 529 494 q 515 486 517 486 q 513 492 513 486 q 443 652 498 591 q 407 661 427 656 l 372 669 q 298 684 328 681 q 288 273 290 519 q 305 273 294 273 l 314 273 l 323 273 q 347 262 342 272 q 336 262 345 262 l 328 262 l 321 262 q 315 257 304 262 q 454 276 385 241 q 500 310 484 291 q 513 348 517 330 q 512 345 513 346 q 510 345 511 345 q 507 346 508 345 q 507 348 507 347 q 516 350 509 352 l 519 349 l 521 349 q 523 348 523 348 q 536 393 532 357 l 538 407 l 540 420 q 545 444 542 436 q 534 429 536 445 l 534 422 l 532 416 q 523 406 530 409 l 523 413 l 523 420 q 518 428 522 427 q 511 412 514 422 l 509 404 l 507 395 q 491 369 502 374 q 500 399 494 383 l 505 413 l 511 427 q 528 487 525 463 m 646 134 q 650 136 648 136 l 655 138 q 662 144 661 140 q 627 94 667 117 l 610 83 q 594 74 600 78 q 571 48 577 62 q 534 35 556 44 l 514 27 l 494 20 q 406 0 445 1 q 316 1 369 -1 l 269 3 l 220 5 q 20 5 94 9 q 21 245 20 118 q 22 358 21 296 l 23 469 q 26 947 27 766 q 189 941 86 941 l 230 941 l 271 941 q 350 941 317 942 q 598 861 532 934 q 572 873 591 859 q 554 884 562 881 q 534 888 544 888 q 724 679 665 827 q 743 337 785 526 q 754 370 750 345 l 755 380 l 758 390 q 764 406 760 400 q 646 134 749 239 m 507 476 q 511 473 511 475 q 507 471 510 471 q 513 465 506 466 q 507 459 510 460 q 503 463 505 459 q 503 470 502 466 q 507 476 503 474 m 715 209 q 717 188 724 201 l 713 182 l 709 176 q 705 166 705 170 q 707 184 698 172 l 710 190 l 713 196 q 715 209 717 203 z "},"e":{"ha":781,"x_min":19,"x_max":755,"o":"m 285 343 q 290 334 293 342 q 288 326 290 330 l 286 323 l 285 321 q 279 332 277 322 q 282 338 280 334 l 284 341 l 285 343 m 568 343 q 558 337 564 338 q 551 339 553 336 q 552 343 548 342 q 568 343 557 345 m 526 6 q 541 9 532 9 l 549 9 l 557 9 q 589 12 580 7 q 560 0 585 1 q 526 6 537 -1 m 541 39 q 597 37 568 37 q 648 44 633 38 l 579 44 q 522 43 538 44 q 541 39 504 41 m 734 28 q 739 73 749 40 l 734 87 l 730 101 q 728 130 726 117 q 755 17 751 67 q 602 21 701 12 l 564 25 l 525 28 q 445 28 481 30 q 450 22 445 23 q 456 22 452 22 l 461 22 q 472 12 476 24 q 396 12 440 14 l 357 9 l 316 7 q 162 6 214 -1 q 86 28 128 11 l 69 36 l 54 43 q 23 54 35 51 q 24 193 25 115 l 24 263 l 22 333 q 23 610 19 517 q 25 660 24 629 l 26 684 l 26 707 q 33 795 29 761 q 77 947 43 888 q 377 950 165 952 l 457 949 q 536 949 501 949 q 686 953 623 949 q 696 945 692 951 l 698 939 l 700 932 q 723 920 705 916 q 732 793 717 860 l 738 765 l 745 737 q 755 680 752 705 q 301 685 413 680 q 295 651 294 677 l 296 640 l 296 630 q 296 610 296 618 l 552 610 q 564 604 558 609 l 568 599 l 573 594 q 606 589 585 583 q 627 359 602 422 q 558 359 610 358 l 538 359 l 517 359 q 477 359 494 359 q 543 368 494 372 l 561 366 q 579 366 571 366 q 611 375 599 367 q 449 375 564 375 l 404 375 l 360 375 q 274 375 310 375 l 274 258 q 330 258 296 258 l 387 258 q 505 258 458 258 q 723 258 640 259 q 724 193 724 232 l 724 162 l 724 132 q 734 28 725 61 z "},"f":{"ha":693,"x_min":20,"x_max":678,"o":"m 277 262 q 283 269 280 269 q 285 264 284 269 q 286 256 286 260 q 283 251 285 252 q 279 255 281 251 q 277 262 277 260 m 444 374 q 433 374 440 373 l 427 374 l 421 375 q 406 369 407 376 q 416 370 410 370 l 422 369 l 428 368 q 444 374 442 367 m 347 363 q 322 375 354 376 l 309 374 l 295 374 q 272 374 279 373 l 272 224 q 292 255 283 233 q 300 275 296 263 l 309 297 q 347 358 328 352 l 347 357 l 347 356 l 348 354 l 348 352 q 353 347 350 346 q 355 351 354 349 l 355 354 l 355 357 q 363 369 357 366 q 372 370 368 371 l 376 370 l 380 368 q 390 374 388 366 q 347 363 361 378 m 620 705 q 608 705 616 705 l 602 706 l 595 706 q 577 701 579 707 q 589 701 581 701 l 595 701 l 602 700 q 620 705 617 699 m 496 374 q 484 374 492 373 l 477 374 l 469 375 q 449 369 452 376 q 460 366 467 368 l 456 364 l 451 363 q 444 358 445 361 q 456 356 448 358 l 463 355 l 469 353 q 492 358 484 351 q 496 374 491 366 m 374 353 q 351 311 363 340 l 342 289 q 331 267 336 276 q 341 276 338 268 l 344 283 q 347 289 345 287 q 332 212 354 255 l 323 195 l 315 177 q 304 139 306 157 q 305 109 303 126 l 307 93 l 309 77 q 310 0 314 33 q 169 21 260 1 l 132 28 l 95 36 q 21 48 53 45 q 22 298 20 161 q 24 416 22 350 l 25 475 l 26 531 q 26 946 32 811 q 357 945 166 948 l 433 943 q 510 942 477 943 q 678 941 599 941 q 671 883 677 915 l 666 855 l 661 828 q 652 705 648 760 q 636 700 640 709 l 635 696 l 634 691 q 631 684 633 686 q 539 682 591 688 l 518 680 l 497 677 q 454 673 473 674 l 480 682 q 507 690 495 687 q 566 701 538 698 q 422 706 515 707 l 385 706 l 347 705 q 272 705 302 705 l 272 593 q 407 588 325 587 l 441 589 l 476 589 q 550 588 517 589 q 550 530 550 562 l 551 504 l 551 477 q 550 374 551 414 q 492 353 496 379 q 374 353 440 336 m 353 652 q 361 654 364 655 q 349 650 359 653 q 339 648 340 648 q 353 652 338 648 z "},"g":{"ha":912,"x_min":9,"x_max":890,"o":"m 433 578 q 444 568 442 581 q 438 563 439 569 q 433 568 434 563 l 433 574 l 433 578 m 454 573 q 467 579 454 581 l 472 578 l 477 578 q 486 578 483 578 q 473 573 486 572 l 468 573 l 463 574 q 454 573 457 574 m 668 568 q 688 574 671 575 l 696 573 l 703 573 q 716 573 711 572 q 695 568 713 566 l 688 568 l 681 568 q 668 568 672 569 m 828 300 q 818 272 817 273 q 825 287 819 271 q 836 315 832 304 q 833 328 839 330 q 830 313 830 319 l 830 307 q 828 300 829 304 m 336 306 q 351 298 342 304 l 358 291 l 365 285 q 390 274 381 269 q 375 285 383 275 l 368 293 l 361 301 q 336 306 345 320 m 342 322 q 328 327 336 321 q 317 340 323 331 q 310 349 309 351 q 312 343 311 346 l 315 336 q 324 321 320 327 q 342 322 336 307 m 277 461 q 278 470 278 464 q 277 481 278 476 q 272 482 276 494 q 272 474 272 479 q 273 463 272 467 q 277 461 273 450 m 277 509 q 273 499 272 503 q 279 496 275 496 q 283 500 283 496 q 277 509 284 504 m 850 349 q 871 405 865 363 l 873 422 l 876 439 q 882 472 878 460 q 855 536 871 519 q 857 437 861 495 l 855 414 l 853 391 q 850 349 850 363 m 283 515 q 287 525 285 517 q 292 541 290 533 q 288 552 296 559 q 287 541 289 547 l 284 536 l 281 531 q 283 515 275 519 m 839 696 q 724 630 800 667 l 693 615 l 663 600 q 604 568 628 583 q 427 675 526 693 q 310 525 341 659 l 307 512 l 303 498 q 297 469 300 482 q 294 418 291 435 q 359 322 300 376 q 486 269 425 260 q 500 275 493 269 l 507 279 l 514 284 q 545 296 531 297 q 395 269 500 245 q 524 268 457 237 q 609 349 583 296 q 567 349 592 350 l 545 349 l 523 348 q 444 354 469 347 l 444 563 q 513 573 507 561 q 681 562 569 559 l 726 563 l 749 564 l 770 565 q 844 568 823 568 q 854 549 848 558 l 861 540 l 867 532 q 887 498 884 513 q 886 460 890 484 l 883 449 l 881 437 q 876 413 878 422 q 872 378 874 400 l 870 360 l 868 343 q 850 279 863 304 q 820 240 843 267 l 810 230 l 801 220 q 785 199 791 208 q 751 162 779 190 l 740 151 l 729 140 q 711 119 718 127 l 716 123 l 722 126 q 732 135 729 131 q 689 77 729 109 q 614 33 658 54 q 401 7 510 -15 q 277 44 345 18 q 199 87 222 66 q 144 157 180 103 q 67 292 98 224 q 21 450 24 383 q 186 846 9 657 q 236 876 204 855 l 261 892 q 287 907 275 901 q 406 937 349 942 q 408 940 406 939 l 412 942 q 416 947 416 944 q 420 945 420 947 q 416 942 419 942 q 572 921 498 947 q 577 918 574 920 l 581 915 q 588 910 586 911 q 614 902 598 907 l 640 895 q 684 878 670 886 q 766 795 721 855 l 785 770 l 804 745 q 839 696 827 711 m 817 220 q 808 192 821 210 q 780 167 795 174 l 790 180 l 800 192 q 817 220 812 208 z "},"h":{"ha":793,"x_min":18,"x_max":779,"o":"m 770 796 q 776 782 776 804 l 776 772 l 775 763 q 776 749 775 752 q 770 763 770 741 l 770 772 l 770 782 q 770 796 770 793 m 513 759 q 519 753 519 769 l 519 745 l 519 738 q 519 727 519 729 q 513 734 514 717 l 513 741 l 513 748 q 513 759 514 757 m 311 610 q 294 599 307 598 q 311 610 298 610 m 455 604 q 465 610 454 611 l 469 610 l 474 609 q 481 610 479 608 q 471 604 482 603 l 467 604 l 463 604 q 455 604 457 605 m 332 599 q 342 605 332 606 l 347 604 l 351 604 q 359 604 356 603 q 349 598 359 597 l 344 599 l 340 599 q 332 599 334 600 m 743 658 q 743 670 743 661 l 744 678 l 744 686 q 738 695 743 705 q 738 683 739 692 l 738 675 l 738 667 q 743 658 738 648 m 743 722 q 742 734 745 728 q 738 732 740 740 q 739 720 737 726 q 743 722 742 714 m 273 897 l 273 903 q 273 916 273 911 q 268 920 273 930 l 268 916 l 268 909 q 268 897 267 901 q 273 892 269 882 l 273 897 m 663 925 q 690 924 675 922 q 713 930 699 926 q 749 935 742 938 l 749 932 l 750 928 q 754 925 751 925 l 754 946 q 730 942 745 944 l 707 938 q 663 925 678 932 m 273 844 q 267 725 266 803 l 268 693 l 269 661 q 268 599 269 624 q 399 593 309 591 l 433 594 q 467 595 454 595 q 524 593 503 595 q 525 682 526 631 l 524 726 l 523 770 q 524 925 520 878 q 658 933 591 920 q 715 947 683 938 l 743 954 l 770 962 q 754 679 752 826 q 759 685 758 680 l 760 690 l 760 695 q 773 622 774 667 l 772 603 l 772 584 q 770 545 770 558 q 772 434 770 500 l 774 376 l 776 318 q 776 75 779 172 l 769 73 l 762 71 q 749 66 753 68 q 733 48 735 60 q 604 33 671 50 q 548 16 585 27 l 521 8 l 492 0 q 492 347 477 169 q 305 347 378 354 q 296 208 296 293 l 296 174 l 296 142 q 294 85 296 108 q 288 76 294 79 l 281 74 l 275 73 q 268 48 260 68 q 139 41 205 54 l 111 35 l 83 28 q 27 16 49 20 q 29 131 31 69 q 25 238 28 173 q 22 417 18 372 q 27 441 22 425 l 31 454 q 33 465 32 460 q 34 660 39 528 l 32 712 q 31 766 31 742 q 33 877 30 827 q 39 887 34 882 l 44 891 l 49 895 q 54 925 60 905 q 283 946 177 918 q 283 895 283 927 l 284 844 q 279 749 284 784 q 274 754 275 749 l 273 760 l 273 764 q 274 800 276 774 l 273 810 l 273 821 q 273 844 272 834 z "},"i":{"ha":319,"x_min":20,"x_max":305,"o":"m 20 941 q 56 936 34 943 q 77 929 64 934 l 98 922 q 181 920 153 903 q 215 915 197 918 l 231 913 l 245 910 q 304 903 281 904 q 299 481 305 747 l 297 379 l 295 277 q 293 69 293 161 q 261 32 263 56 q 128 22 201 39 l 99 16 l 72 9 q 20 0 41 2 q 29 216 28 70 l 30 275 q 31 335 30 308 q 37 460 32 404 q 47 337 48 420 q 50 406 47 363 q 52 446 50 419 l 55 485 q 52 636 61 585 q 48 650 52 642 l 45 656 l 42 663 q 52 673 51 661 q 54 732 56 696 l 53 764 l 51 796 q 63 914 46 877 q 47 898 42 919 q 42 914 39 898 q 37 930 44 930 q 31 874 28 918 l 32 858 q 32 843 32 849 q 26 818 31 827 q 20 850 20 831 q 23 884 20 861 q 20 941 28 926 m 42 743 q 46 744 43 750 q 47 732 48 738 q 43 731 45 725 q 42 743 41 737 m 143 930 q 142 928 150 926 l 138 929 l 132 930 q 122 930 126 932 q 123 935 111 934 q 135 936 128 936 q 143 935 140 936 l 143 930 z "},"j":{"ha":693,"x_min":20,"x_max":672,"o":"m 406 782 q 410 781 408 792 q 410 772 410 777 q 410 766 411 768 q 406 762 408 757 q 406 782 402 768 m 662 954 q 667 954 658 956 q 667 937 666 947 l 667 927 l 668 918 q 662 889 669 895 l 662 954 m 635 819 q 635 828 635 823 q 635 840 635 835 q 630 841 633 852 q 629 832 629 838 q 630 821 629 825 q 635 819 631 808 m 646 932 q 646 836 647 918 q 652 836 648 829 q 655 841 654 840 q 662 836 658 841 q 665 711 662 788 l 666 646 l 668 579 q 667 317 672 416 q 644 222 665 277 l 636 199 l 627 178 q 614 135 618 153 q 458 39 572 94 l 452 36 l 446 33 l 431 25 q 398 11 412 16 q 325 1 357 -4 q 309 9 321 2 l 298 14 q 288 18 293 16 q 279 18 284 18 l 272 18 q 261 18 263 17 q 256 25 260 18 l 253 31 q 250 34 251 33 q 247 34 249 35 l 243 33 q 234 34 239 32 q 186 61 215 43 q 138 92 165 74 l 130 98 l 122 103 l 104 115 q 70 139 83 129 q 26 183 32 168 q 21 216 21 195 q 22 235 21 224 l 23 254 q 20 317 28 304 q 27 326 21 323 l 33 328 l 40 330 q 52 349 56 334 q 83 353 66 351 l 112 357 q 168 365 147 363 q 288 360 229 371 l 288 296 q 334 271 303 274 q 389 285 366 269 q 395 349 395 302 l 395 366 l 395 383 q 400 413 396 401 q 408 362 405 394 l 409 334 l 410 307 q 413 386 410 336 q 416 429 414 401 l 418 474 q 416 643 425 587 l 415 649 l 414 655 q 406 665 411 661 q 416 791 420 704 l 414 824 q 412 856 413 844 q 416 910 412 890 q 541 917 471 905 l 568 922 l 594 926 q 646 932 624 931 z "},"k":{"ha":922,"x_min":20,"x_max":935,"o":"m 368 121 q 387 123 374 130 l 393 121 l 399 118 q 410 116 406 115 q 391 114 405 108 l 385 117 l 379 119 q 368 121 372 122 m 801 36 q 785 30 793 31 q 775 33 778 30 q 779 37 772 35 q 801 36 785 38 m 63 73 q 63 79 64 75 q 62 88 63 85 q 60 94 61 93 q 58 90 59 95 q 56 77 56 82 q 58 70 56 72 q 60 68 59 68 q 63 73 62 70 m 63 116 q 63 132 62 121 l 63 142 l 64 153 q 58 170 64 176 q 58 153 58 165 l 58 143 l 58 133 q 63 116 57 109 m 726 197 q 736 182 735 184 q 733 186 737 180 q 726 196 729 192 q 726 197 723 200 m 667 250 q 677 235 676 237 q 674 239 679 234 q 667 249 670 245 q 667 250 665 254 m 464 479 q 854 84 621 326 q 805 124 837 92 l 791 138 l 779 151 q 753 175 763 166 q 812 108 762 154 q 870 41 861 62 q 785 41 833 41 l 745 41 l 707 41 q 560 36 621 40 q 562 39 561 38 l 566 41 q 571 47 571 43 q 555 54 566 52 l 547 57 q 539 62 543 60 q 536 73 536 65 l 536 78 q 534 84 536 81 q 522 94 531 87 l 514 99 q 507 106 510 102 q 277 330 391 225 q 279 283 279 309 l 277 261 l 276 239 q 277 170 271 187 q 286 165 277 168 q 293 164 293 163 q 286 160 293 159 l 283 160 l 281 161 q 277 159 278 161 q 277 111 275 155 l 277 93 l 278 74 q 277 41 279 54 q 233 39 257 39 l 212 41 l 192 43 q 117 41 140 47 q 94 30 105 39 l 85 22 l 76 14 q 37 -7 54 -7 q 39 66 38 25 l 40 100 l 41 134 q 47 266 43 214 q 41 250 41 264 l 41 245 l 41 240 q 37 234 40 235 q 25 326 25 271 l 26 348 l 26 370 q 26 416 26 398 q 24 639 21 502 l 24 668 l 24 697 q 26 758 25 732 q 26 891 26 829 q 38 896 30 894 l 45 899 l 51 901 q 68 918 66 907 q 196 935 125 915 l 224 943 l 252 951 q 315 961 286 959 q 314 895 315 931 l 313 863 l 311 831 q 309 699 307 749 q 367 754 334 721 l 396 783 l 425 813 q 549 928 500 889 q 725 939 604 935 q 823 942 786 941 q 935 950 881 945 q 916 915 931 933 q 901 900 910 909 l 886 886 q 789 791 847 846 q 694 704 734 741 q 680 690 688 699 l 673 681 l 667 671 q 635 635 648 646 l 623 625 l 611 616 q 587 597 595 604 q 557 570 574 586 l 527 540 q 464 479 487 500 m 31 127 q 26 127 27 117 l 26 131 l 25 135 q 20 138 24 139 q 24 176 22 191 q 25 166 24 174 l 26 160 l 26 153 q 31 127 28 136 z "},"l":{"ha":703,"x_min":20,"x_max":678,"o":"m 277 353 q 283 338 286 350 l 281 334 l 279 329 q 277 321 277 323 q 271 336 270 322 q 274 347 272 342 q 277 353 276 351 m 486 289 q 504 298 492 299 l 510 297 l 516 296 q 529 294 524 294 q 510 291 522 288 l 505 292 l 499 292 q 486 289 492 292 m 539 262 q 523 261 533 261 l 513 262 l 504 262 q 475 256 481 264 q 492 257 481 258 l 501 256 l 511 256 q 539 262 533 255 m 438 262 q 418 262 425 264 q 416 258 414 261 q 425 256 419 256 q 438 262 432 256 m 283 946 q 283 705 298 838 q 277 737 278 720 q 276 768 275 749 q 272 818 276 806 q 272 262 257 552 q 333 256 291 255 l 351 256 l 368 257 q 401 256 388 258 l 397 259 l 395 262 q 392 265 392 264 q 406 267 391 268 q 359 279 404 278 l 340 278 l 321 278 q 288 278 299 277 q 437 282 345 292 l 475 279 l 514 275 q 593 273 559 271 q 589 278 593 277 l 585 278 l 580 278 q 572 289 567 277 q 609 278 598 297 l 613 270 l 617 262 q 630 251 623 254 q 651 122 627 195 l 661 94 q 669 65 665 78 q 678 0 677 32 q 462 6 604 4 l 406 7 l 351 7 q 245 11 290 9 q 224 11 237 11 l 202 9 q 160 11 176 8 q 90 35 134 15 l 74 42 l 58 49 q 26 59 41 56 q 24 140 30 87 l 23 161 l 21 182 q 21 224 20 205 q 26 245 22 231 l 29 256 q 32 267 31 262 q 31 393 35 305 l 29 429 l 28 467 q 26 545 26 511 q 28 699 26 608 l 29 739 l 30 759 l 30 780 q 32 871 31 831 q 39 882 33 878 l 45 886 l 51 889 q 58 920 66 898 q 283 946 210 914 z "},"m":{"ha":916,"x_min":7,"x_max":901,"o":"m 644 203 q 648 204 646 210 q 650 193 651 198 q 646 191 648 185 q 644 203 643 197 m 570 96 q 573 89 575 94 l 571 85 l 570 80 q 566 87 564 83 l 568 92 l 570 96 m 19 75 q 24 66 24 84 l 24 58 l 24 50 q 24 37 24 40 l 35 37 l 45 37 q 62 32 57 37 q 52 52 65 47 l 47 54 l 42 56 q 35 64 37 60 q 41 122 39 83 l 43 153 q 45 182 44 170 q 39 164 40 178 l 39 159 l 38 153 q 35 144 37 147 q 24 220 20 172 l 26 239 l 28 258 q 30 294 30 281 q 28 317 29 304 l 26 338 q 24 385 23 363 q 25 460 26 412 l 25 480 l 24 500 q 24 534 24 522 q 19 543 24 540 q 15 545 17 545 q 14 545 14 545 q 16 551 14 547 l 19 559 q 24 572 24 568 l 24 607 l 24 644 q 24 718 24 686 q 24 882 24 806 l 31 884 l 37 886 q 50 890 46 888 q 67 909 64 897 q 168 925 114 906 l 190 933 l 212 941 q 260 951 237 949 q 310 829 281 897 l 336 769 l 362 709 q 463 465 429 556 q 490 528 468 487 l 498 544 q 506 558 501 550 q 516 577 515 574 q 552 656 533 611 l 569 695 l 586 734 q 666 903 630 837 q 726 911 692 905 l 757 917 l 787 922 q 901 935 863 937 q 899 756 901 867 l 899 710 l 898 664 q 897 568 897 609 q 896 134 895 332 q 874 113 886 121 q 874 91 873 104 l 874 80 l 875 69 q 869 32 876 43 q 854 32 863 32 l 838 33 q 807 32 817 33 q 772 5 774 29 q 661 32 728 41 q 639 102 667 77 q 640 123 640 110 l 639 134 l 638 145 q 644 182 638 172 q 650 102 659 140 q 663 142 662 110 q 661 170 663 151 l 661 184 l 661 198 l 661 299 q 595 169 630 248 l 566 100 l 537 32 q 470 30 509 28 l 454 31 l 437 32 q 399 32 416 33 q 281 294 319 203 l 279 288 l 277 279 q 274 261 275 269 q 275 219 270 237 q 280 211 277 215 q 288 205 283 208 l 297 198 q 294 193 297 193 q 289 197 292 193 q 283 205 286 200 q 281 208 281 208 q 274 119 267 199 l 275 104 l 277 90 q 278 62 278 73 q 270 26 278 35 q 249 25 267 22 l 241 27 l 233 28 q 217 26 224 28 q 250 18 229 22 l 269 14 l 286 11 q 296 100 296 40 l 295 123 l 294 146 q 297 187 294 172 q 303 97 304 157 l 302 72 l 302 47 q 302 0 301 19 q 246 7 280 0 l 217 14 l 187 21 q 83 26 113 38 l 79 26 l 75 26 q 63 26 68 26 q 38 31 48 27 q 19 75 7 41 m 553 54 q 558 62 559 66 q 554 51 558 60 q 550 41 551 41 q 553 54 549 39 m 591 123 q 587 133 587 127 q 592 140 589 138 q 595 138 595 142 q 591 123 596 134 m 329 128 q 347 119 336 134 q 361 91 357 104 q 345 110 353 94 l 342 115 l 338 121 q 329 128 334 126 z "},"n":{"ha":796,"x_min":19,"x_max":777,"o":"m 508 835 q 513 834 511 845 q 513 825 513 830 q 513 819 514 821 q 511 814 513 815 q 508 815 509 813 q 507 823 507 818 q 508 835 507 828 m 508 803 q 513 802 511 812 q 513 793 513 798 q 513 787 514 788 q 511 782 513 783 q 508 783 509 781 q 507 790 507 785 q 508 803 507 795 m 508 760 q 512 762 510 768 q 513 749 515 755 q 509 748 512 742 q 508 760 507 754 m 508 707 q 512 708 510 714 q 513 696 515 702 q 509 694 512 688 q 508 707 507 701 m 503 664 q 513 642 512 659 q 503 664 500 644 m 508 621 q 512 623 510 629 q 513 610 515 616 q 509 609 512 603 q 508 621 507 615 m 738 408 q 738 440 737 418 l 738 460 l 739 479 q 732 530 740 525 q 733 497 734 519 l 732 478 l 732 459 q 738 408 731 413 m 450 584 q 439 600 450 596 q 450 584 438 587 m 738 557 q 738 570 738 560 l 739 579 l 739 588 q 732 600 739 608 q 733 586 733 596 l 732 577 l 732 569 q 738 557 732 549 m 433 605 q 425 625 432 615 q 412 627 417 636 q 422 616 419 626 l 425 612 l 426 608 q 433 605 429 605 m 391 664 q 401 646 399 648 q 401 652 404 644 q 394 663 397 659 q 391 664 391 669 m 27 937 l 231 937 q 357 741 281 850 l 425 646 l 492 551 q 473 560 482 543 l 469 567 q 463 574 466 571 q 450 578 457 580 q 465 554 456 568 l 483 532 q 513 482 505 503 q 519 701 522 559 l 519 758 q 518 812 518 792 q 519 915 517 875 q 574 915 543 914 l 604 915 l 632 916 q 732 915 704 918 q 734 772 736 867 l 733 733 l 732 694 q 732 610 732 648 q 742 627 740 629 q 743 600 744 625 q 755 687 756 626 l 754 713 l 753 738 q 754 787 753 768 q 764 690 762 745 q 765 589 766 656 q 761 526 764 562 l 758 495 l 753 464 q 749 338 745 385 q 755 342 753 338 q 755 348 755 345 l 754 354 q 765 364 753 369 q 769 188 768 292 l 769 142 l 770 96 q 770 1 770 39 q 659 0 720 0 l 633 0 l 606 1 q 546 1 571 1 q 423 183 507 68 l 391 228 l 360 273 q 300 364 325 323 q 294 81 286 220 q 288 68 294 73 q 281 64 286 66 l 275 60 q 257 39 257 52 q 92 22 172 39 q 73 14 85 21 l 63 9 q 54 6 58 7 q 45 7 51 5 l 41 8 l 36 9 q 22 1 24 11 q 21 439 19 168 q 27 920 23 656 l 27 937 m 765 482 q 777 452 776 477 q 770 418 777 429 q 768 449 766 428 q 768 465 768 460 q 765 482 768 475 z "},"o":{"ha":870,"x_min":20,"x_max":851,"o":"m 568 517 q 572 509 576 515 l 570 506 l 568 503 q 568 496 566 499 q 562 505 559 496 q 566 513 564 509 l 567 515 l 568 517 m 621 79 q 606 73 608 73 q 612 75 606 72 q 623 79 619 78 q 621 79 627 81 m 343 292 q 354 278 353 279 q 351 282 355 277 q 344 292 347 288 q 343 292 341 296 m 295 513 l 300 471 q 311 394 305 425 q 312 386 312 391 l 311 378 q 311 362 309 369 q 357 307 321 336 q 418 271 391 279 q 429 271 422 271 l 435 272 l 441 272 q 461 260 456 273 q 424 250 429 262 q 513 264 468 246 q 568 303 553 281 q 572 314 572 309 l 572 318 l 572 321 q 584 325 572 324 q 578 340 585 332 q 583 339 581 340 l 587 338 q 595 340 591 336 q 622 418 615 362 q 627 522 627 457 q 618 517 621 522 l 615 511 l 613 507 q 600 512 609 497 q 611 496 599 484 q 601 473 602 493 l 601 466 l 600 458 q 595 448 598 451 q 589 455 590 448 l 589 458 l 588 460 q 584 464 587 463 q 582 448 583 458 l 581 433 q 573 405 578 414 q 578 470 566 423 l 583 487 q 585 504 585 496 q 584 533 588 522 q 570 541 572 524 q 573 570 568 557 l 551 595 l 528 618 q 477 661 501 646 q 451 660 466 660 l 438 660 l 426 660 q 381 651 398 659 q 360 633 370 645 l 353 622 l 345 610 q 311 581 328 582 q 315 583 314 581 q 311 587 315 586 q 307 578 309 583 l 303 568 q 290 555 298 557 l 295 513 m 680 833 q 675 840 680 836 q 665 846 671 843 q 657 848 659 848 q 659 843 654 848 q 665 840 662 844 l 669 837 l 671 833 q 680 833 677 825 m 782 201 q 748 149 782 179 l 734 136 l 722 123 q 702 95 707 109 q 666 83 684 91 l 650 75 l 634 66 q 563 41 593 45 q 566 36 562 37 l 569 36 l 573 36 q 578 25 583 35 q 381 9 493 -16 q 368 11 376 10 l 355 12 q 333 15 338 13 q 313 24 326 17 q 303 31 307 28 q 290 36 297 34 q 281 39 287 37 l 275 41 l 269 43 q 243 53 254 49 q 199 73 210 66 q 100 210 156 106 q 28 394 43 316 q 20 461 21 431 q 28 517 20 498 l 28 530 l 28 543 q 28 568 27 557 q 39 624 30 600 q 50 637 41 629 l 56 644 q 60 651 59 648 q 62 661 62 655 l 63 671 q 66 688 64 684 q 75 696 66 689 l 81 703 q 87 709 85 707 q 91 719 89 713 l 93 724 l 95 730 q 109 758 101 747 q 112 760 109 759 l 117 763 q 124 768 123 766 q 124 772 125 770 l 123 775 q 124 785 121 780 q 157 816 134 795 q 194 848 175 832 q 578 902 350 981 q 607 893 589 899 l 635 884 q 680 865 667 873 q 730 808 705 848 q 751 772 739 793 l 761 753 l 771 736 q 813 640 793 699 l 821 616 l 829 591 q 846 544 838 564 q 843 546 844 545 l 841 549 q 836 555 839 555 q 838 536 833 538 l 840 536 l 844 536 q 851 533 848 535 q 841 507 844 528 q 840 465 839 491 q 840 444 840 456 l 840 435 l 841 427 q 841 410 842 410 q 839 394 842 405 q 836 384 838 391 l 831 372 q 830 325 820 341 q 826 328 827 325 l 825 332 l 825 335 q 818 321 823 331 l 814 314 l 810 306 q 808 277 802 286 q 792 261 800 277 q 782 229 786 248 q 754 200 768 218 l 741 184 l 729 169 q 669 116 698 130 q 689 122 678 108 l 694 128 l 699 134 q 712 138 705 138 q 705 127 711 132 q 696 116 697 121 q 745 153 722 127 q 764 177 753 162 l 782 201 m 814 282 q 813 299 811 291 q 819 307 816 305 q 823 302 823 309 q 814 282 822 295 m 573 373 q 574 362 576 368 q 568 356 572 357 q 565 358 565 354 q 573 373 566 363 m 643 58 q 637 43 650 52 q 611 36 623 34 q 618 41 614 39 l 628 45 q 643 58 640 51 z "},"p":{"ha":770,"x_min":0,"x_max":757,"o":"m 716 598 l 717 604 q 716 616 717 612 q 711 621 715 631 l 711 616 l 711 611 q 711 598 711 603 q 716 594 711 583 l 716 598 m 336 648 l 323 634 q 299 605 307 615 q 319 599 305 600 q 332 599 324 599 l 345 600 q 385 589 380 602 q 376 586 383 587 l 369 585 l 361 584 q 353 578 345 582 l 438 578 q 439 586 441 583 q 436 588 438 587 l 433 589 q 433 594 425 591 q 477 595 450 574 q 492 637 504 616 q 484 635 488 637 l 479 633 l 474 630 q 460 626 463 624 q 463 634 459 630 l 466 637 l 470 641 q 471 653 479 648 q 417 650 456 640 l 401 654 l 383 659 q 347 663 362 663 l 336 648 m 246 637 q 267 666 252 648 l 279 680 q 289 696 285 688 l 241 696 q 241 680 241 690 l 241 671 l 240 663 q 246 637 239 642 m 102 915 q 94 914 99 913 l 90 915 l 85 916 q 75 909 75 916 q 83 910 77 910 l 87 909 l 92 909 q 102 915 102 908 m 577 882 q 564 881 573 874 l 559 884 l 555 886 q 545 888 550 889 q 648 808 600 865 q 686 757 666 786 q 701 731 693 745 l 709 718 l 716 706 q 700 772 721 734 q 681 802 694 783 l 671 816 q 663 829 666 824 q 732 700 719 787 q 711 546 745 615 q 719 547 715 537 l 721 551 l 724 555 q 732 557 728 559 q 706 487 731 521 l 696 473 l 686 459 q 668 428 674 443 q 640 406 654 424 l 634 399 l 628 393 q 614 380 621 385 q 600 373 610 376 l 593 371 l 585 368 q 562 348 566 361 q 278 327 460 321 q 277 195 279 264 l 275 167 q 274 138 275 151 q 273 70 273 104 q 262 63 270 66 l 256 61 l 249 59 q 241 33 235 53 q 64 6 114 35 q 43 9 64 18 l 34 6 l 23 2 q 0 1 10 -1 q 9 171 6 56 l 9 195 l 10 220 q 12 271 11 250 q 16 380 14 332 q 18 393 16 386 l 22 404 q 26 428 26 420 q 32 909 35 645 q 48 915 45 905 l 49 919 l 50 924 q 54 930 51 928 q 92 930 73 932 l 107 929 l 122 928 q 193 926 160 924 q 154 916 178 913 l 144 917 l 133 918 q 107 915 119 918 q 216 908 151 908 q 274 909 240 908 l 332 910 q 534 893 475 913 q 531 897 534 897 l 527 898 l 524 899 q 528 905 524 904 q 535 902 531 905 q 540 896 539 899 q 534 893 541 893 q 543 890 537 891 l 549 890 l 555 891 q 577 882 571 891 m 749 626 q 753 608 757 622 l 752 603 l 751 597 q 749 589 749 591 q 746 603 742 591 l 748 608 l 749 614 q 749 626 751 621 z "},"q":{"ha":964,"x_min":26,"x_max":936,"o":"m 802 61 q 812 68 806 62 q 824 79 818 73 q 831 88 829 85 q 829 87 833 91 q 819 81 825 86 q 808 69 814 76 q 801 60 802 64 q 802 61 798 57 m 861 115 q 846 104 848 105 q 851 107 845 103 q 861 114 857 111 q 861 115 865 117 m 487 360 q 540 414 499 382 l 557 427 l 574 439 q 605 467 593 455 q 623 458 615 468 l 625 454 l 628 450 q 637 446 632 447 q 636 469 635 455 l 637 482 l 637 494 q 631 536 639 525 q 627 517 634 516 q 615 531 620 518 q 610 516 612 526 l 609 507 l 608 498 q 594 473 606 476 q 600 503 595 485 l 605 519 l 609 534 q 600 585 618 569 l 599 581 l 598 578 q 594 574 597 574 q 576 591 586 581 l 559 610 q 525 646 537 635 q 433 675 483 682 q 368 640 397 671 q 327 574 340 612 q 311 498 317 546 l 309 479 l 306 460 q 300 425 303 439 q 332 383 315 410 l 346 360 q 360 338 354 347 q 460 291 397 288 q 458 300 462 295 l 456 304 l 452 308 q 455 323 445 317 q 472 298 458 311 q 492 291 486 286 q 471 310 481 297 l 463 321 l 455 334 q 465 345 462 338 l 468 351 l 470 356 q 487 360 475 366 m 696 846 q 709 825 706 828 q 709 829 712 822 q 701 842 705 836 q 696 846 697 849 m 685 846 q 676 860 681 856 q 669 861 671 863 q 671 854 667 859 q 685 846 675 850 m 936 141 q 858 85 905 123 l 820 57 q 781 28 798 41 q 789 24 783 20 l 792 27 l 795 28 q 802 28 799 31 q 728 -41 778 -9 q 693 7 717 -16 q 671 26 684 16 l 648 45 q 636 41 644 42 l 629 39 l 623 37 q 605 24 607 34 q 565 20 588 23 l 544 18 l 524 16 q 439 13 471 9 q 316 45 387 18 l 288 57 l 260 68 q 209 87 228 81 l 201 101 l 192 114 q 172 141 182 129 q 159 159 166 147 l 152 169 l 145 180 q 113 221 127 208 q 91 285 106 251 l 77 313 l 64 341 q 38 473 32 409 q 35 476 37 474 l 31 479 q 27 488 26 482 q 36 510 35 499 q 36 520 37 515 l 35 529 q 43 569 32 554 q 159 817 52 704 q 418 948 270 934 q 589 916 480 954 q 614 908 598 913 l 629 903 l 643 899 q 690 879 675 888 q 739 825 711 864 q 781 755 762 793 q 800 712 791 737 l 808 690 l 816 669 q 850 590 836 614 l 848 591 l 846 593 q 840 595 843 595 l 846 563 q 852 530 850 542 q 856 456 858 490 q 849 417 855 439 l 844 397 l 838 378 q 829 307 824 332 q 812 299 819 322 l 809 288 l 806 278 q 797 264 802 267 l 820 235 l 843 205 q 893 152 870 172 q 890 140 895 144 l 887 138 l 885 136 q 882 130 883 134 q 897 148 899 135 q 882 168 895 159 q 899 161 887 173 l 903 156 l 909 151 q 920 146 915 146 q 897 176 911 160 l 874 204 q 829 264 844 240 q 884 204 853 243 l 910 172 q 936 141 925 153 m 840 355 q 842 344 846 355 l 840 340 l 838 335 q 835 328 835 330 q 832 334 827 319 q 836 347 833 340 q 840 355 838 353 m 856 72 q 850 52 865 62 l 844 48 l 838 43 q 829 34 831 39 q 838 51 824 40 l 844 56 l 849 61 q 856 72 854 66 z "},"r":{"ha":767,"x_min":20,"x_max":786,"o":"m 33 351 l 43 351 q 49 357 50 352 q 40 362 45 357 l 37 365 q 33 368 35 367 l 33 351 m 268 587 q 279 587 272 587 l 286 587 l 292 586 q 311 592 308 585 q 299 604 304 597 l 290 619 q 268 646 277 638 l 268 587 m 412 667 q 397 663 406 664 l 388 663 l 379 663 q 342 656 355 664 q 357 636 351 649 l 363 625 l 369 613 q 408 613 382 614 l 428 613 l 447 613 q 508 629 491 614 q 497 601 485 592 q 510 613 502 604 q 524 629 517 621 q 517 665 525 652 l 513 670 l 509 675 q 503 688 505 682 q 493 692 498 692 l 489 692 l 484 690 q 471 694 475 688 q 476 698 481 694 q 460 703 472 701 q 437 705 448 706 q 422 699 425 704 q 437 691 432 696 l 441 686 l 444 682 q 471 667 453 669 q 435 671 461 660 l 425 675 q 416 678 419 677 q 401 677 406 681 q 408 673 406 677 l 410 670 l 412 667 m 652 838 q 648 844 652 840 q 641 851 644 848 q 635 856 637 855 q 637 854 634 857 q 644 845 640 849 q 649 839 646 842 q 653 836 652 837 q 652 838 654 836 m 669 827 q 688 795 673 818 l 699 779 l 709 760 q 738 672 734 715 q 712 532 745 600 q 631 437 681 469 q 640 420 635 427 l 645 415 l 649 411 q 658 383 659 401 q 662 381 660 378 q 663 389 663 384 q 671 357 663 378 l 675 348 l 679 339 q 685 319 682 328 q 688 317 686 314 q 690 325 690 319 q 693 311 695 321 l 692 307 l 692 302 q 695 292 692 297 q 705 292 702 295 q 717 266 709 287 q 713 263 715 262 l 710 265 q 706 266 708 266 l 713 244 l 720 223 q 738 186 728 200 q 739 161 738 176 q 745 128 741 143 q 776 95 755 87 q 771 121 780 101 q 765 139 766 132 q 765 159 763 150 q 786 90 785 127 q 760 84 776 82 q 770 41 768 62 q 541 20 635 48 q 508 132 513 99 q 503 130 504 133 l 503 126 l 503 122 q 492 116 503 112 q 396 335 456 245 q 356 334 386 331 l 343 336 l 331 336 q 305 335 316 337 l 305 68 l 298 66 l 292 64 q 279 60 283 62 q 262 41 264 54 q 137 28 206 46 l 110 20 l 82 13 q 22 4 50 5 q 24 283 27 115 l 22 350 l 22 418 q 22 560 20 496 q 22 618 22 582 l 21 649 l 20 681 q 27 811 20 758 q 34 836 28 821 l 39 847 l 43 860 q 54 918 56 891 q 68 922 68 917 l 68 926 l 67 930 q 70 939 67 935 q 170 939 112 937 l 221 940 l 273 942 q 476 939 407 947 q 650 865 575 929 q 743 715 723 803 q 728 737 736 721 q 720 753 724 743 l 711 770 q 669 827 688 814 m 669 431 q 673 436 671 437 q 673 431 673 435 q 670 423 673 426 q 663 421 667 419 q 661 420 656 413 q 665 426 662 422 l 667 429 l 669 431 m 503 68 q 519 36 513 60 l 522 26 l 524 17 q 530 -1 526 5 q 538 2 538 3 q 535 -7 539 1 q 515 26 522 2 l 512 37 l 509 47 q 503 68 506 60 z "},"s":{"ha":751,"x_min":14,"x_max":755,"o":"m 399 929 q 382 918 395 918 q 399 929 387 929 m 446 918 q 437 912 443 913 q 429 914 432 911 q 431 918 427 917 q 446 918 435 920 m 511 891 q 518 895 513 897 l 522 893 l 527 891 q 519 888 524 886 l 515 890 l 511 891 m 490 303 q 481 307 488 307 q 473 303 475 308 q 475 296 472 299 q 481 294 477 294 q 488 297 486 294 q 490 303 491 299 m 473 651 q 467 658 471 654 q 456 664 461 662 q 436 662 441 671 q 448 659 441 663 l 453 656 l 458 653 q 473 651 470 645 m 286 651 q 298 659 290 653 q 313 672 305 665 q 323 682 320 678 q 323 683 327 686 q 286 651 300 673 m 452 677 q 441 683 448 679 l 434 686 l 428 690 q 404 688 411 696 q 416 684 408 688 l 423 682 l 431 680 q 452 677 448 673 m 399 699 q 391 699 396 698 l 387 699 l 382 700 q 372 694 371 701 q 379 694 374 694 l 384 694 l 389 693 q 399 699 399 692 m 104 763 q 111 779 104 770 l 116 786 l 121 793 q 131 817 136 809 q 126 812 130 815 l 120 806 q 109 793 113 799 q 104 763 96 775 m 163 838 q 144 827 147 829 q 150 829 143 826 q 162 835 157 832 q 163 838 168 838 m 666 736 q 670 745 674 739 l 668 747 l 666 751 q 666 758 664 755 q 687 614 687 717 q 587 612 640 610 l 564 612 q 538 613 549 613 q 473 614 507 614 l 473 640 q 429 654 458 643 l 406 663 q 383 671 393 668 q 308 646 330 685 q 323 635 320 646 q 334 649 326 642 l 340 655 l 345 662 q 349 654 351 659 l 347 650 l 345 646 q 451 605 379 628 l 480 596 l 509 587 q 564 566 541 575 q 584 555 573 562 l 593 548 l 602 542 q 639 523 623 526 q 644 501 645 515 q 744 347 731 442 q 702 173 755 260 q 557 39 649 86 q 345 4 456 -13 q 313 15 336 5 l 302 19 l 292 23 l 270 31 q 249 37 261 34 l 227 41 q 190 52 200 47 q 188 55 189 53 l 185 60 q 179 68 182 67 q 154 77 170 73 l 142 80 l 130 83 q 88 106 102 92 q 71 134 82 113 q 56 164 62 151 q 51 191 53 173 l 49 204 q 45 218 47 212 l 43 229 l 39 240 q 30 266 35 254 q 25 277 28 271 q 20 292 22 283 q 14 330 15 312 q 56 339 30 330 l 78 347 l 100 354 q 184 336 153 370 l 260 336 q 265 309 260 322 l 271 298 l 275 288 q 452 293 374 262 q 404 319 448 317 q 330 359 379 338 l 311 367 l 290 376 q 249 394 265 386 q 174 437 214 412 q 155 448 167 441 l 136 458 q 104 480 114 470 q 56 581 71 515 q 56 705 40 650 q 62 723 58 711 q 72 751 67 737 q 94 800 86 789 q 254 890 129 854 q 490 897 391 931 q 486 901 489 900 l 482 901 l 479 902 q 482 908 478 908 q 490 905 486 909 q 494 900 494 902 q 490 897 495 897 q 518 881 500 888 l 534 875 l 549 869 q 585 838 583 857 q 591 839 589 838 l 596 841 q 607 844 602 844 q 620 808 597 832 l 630 798 l 640 787 q 655 768 651 776 q 656 772 654 787 l 657 768 l 659 764 l 661 753 q 666 736 663 742 z "},"t":{"ha":803,"x_min":20,"x_max":785,"o":"m 95 925 q 85 919 92 920 q 78 921 81 918 q 79 925 75 924 q 95 925 83 927 m 293 920 q 306 926 294 926 l 311 925 l 316 924 q 325 925 322 924 q 312 919 325 918 l 307 920 l 302 920 q 293 920 296 920 m 630 951 q 660 951 644 964 l 666 945 l 672 939 q 683 930 679 932 q 661 939 677 926 q 647 949 653 946 q 630 951 638 953 m 239 572 q 238 584 241 578 q 234 583 235 590 q 235 571 233 577 q 239 572 238 565 m 234 610 q 235 618 235 612 q 234 629 235 625 q 229 631 233 642 q 229 622 229 628 q 229 611 229 616 q 234 610 230 598 m 501 428 q 534 701 515 511 l 501 701 l 501 428 m 143 701 q 132 700 139 699 l 125 701 l 119 701 q 100 695 103 702 q 112 695 104 696 l 119 695 l 125 694 q 143 701 141 693 m 90 701 q 74 701 78 703 q 73 696 70 699 q 80 694 75 694 q 90 701 86 694 m 31 695 q 40 695 34 696 l 45 695 l 50 694 q 63 701 62 693 q 46 699 51 694 q 41 715 42 703 l 41 724 q 41 731 41 729 q 37 732 41 737 q 35 712 38 722 l 33 704 q 31 695 32 699 m 646 920 q 630 920 634 922 q 629 916 626 918 q 636 913 631 913 q 646 920 642 914 m 571 920 q 564 919 568 918 l 559 920 l 554 920 q 544 914 544 921 q 552 915 547 915 l 556 914 l 561 913 q 571 920 572 913 m 271 497 q 269 473 263 484 l 273 469 l 276 465 q 282 454 280 459 q 274 425 267 463 q 281 396 277 411 q 288 380 286 382 q 287 529 286 423 l 288 571 l 288 614 q 288 701 288 663 l 218 701 q 222 686 222 696 l 223 677 l 223 667 q 234 642 223 644 q 234 648 235 644 l 233 650 l 232 652 q 234 658 230 656 q 244 610 242 649 l 245 593 l 246 576 q 250 545 248 557 q 252 541 251 543 l 256 537 q 261 529 260 533 q 260 519 262 524 l 259 515 l 258 512 q 267 519 257 510 l 265 514 l 264 509 q 262 499 262 502 q 271 497 260 488 m 261 54 q 235 360 256 194 l 231 395 l 227 429 q 218 501 222 470 q 202 673 208 588 q 111 679 178 682 q 20 684 45 677 q 42 914 49 800 q 106 914 71 914 l 138 914 l 168 915 q 286 915 248 915 q 523 914 418 916 l 523 916 l 523 919 q 523 923 522 922 q 544 925 524 927 q 488 936 528 936 l 471 936 l 454 935 q 421 935 433 935 q 499 943 448 946 q 543 940 518 943 l 563 938 l 572 937 l 582 935 q 609 933 592 935 l 621 932 l 633 932 q 673 914 659 929 q 705 915 682 917 l 715 914 l 726 913 q 747 914 737 913 q 755 852 741 878 q 768 831 760 842 l 777 822 l 785 812 q 774 786 782 800 l 767 774 l 760 763 q 747 701 743 734 q 709 687 723 704 l 705 680 l 700 672 q 688 658 694 662 q 667 662 680 662 q 645 661 659 663 q 608 663 617 659 q 591 553 602 614 l 574 446 q 539 224 550 303 q 534 0 530 163 l 525 1 l 516 3 q 500 6 506 5 q 486 11 482 9 q 435 22 464 17 l 409 26 l 381 29 q 261 54 308 38 m 267 610 q 258 625 260 611 q 255 648 255 635 q 257 655 256 659 q 261 625 259 651 l 262 622 l 264 618 q 267 610 267 614 z "},"u":{"ha":767,"x_min":16,"x_max":755,"o":"m 735 868 q 741 867 739 880 q 741 855 741 862 q 741 846 741 850 q 735 848 736 836 q 735 859 734 853 q 735 868 735 865 m 735 777 q 739 779 736 785 q 741 766 742 772 q 736 765 739 760 q 735 777 734 771 m 735 665 q 739 666 736 672 q 741 654 742 660 q 736 653 739 647 q 735 665 734 659 m 730 483 q 735 477 735 493 l 735 469 l 735 462 q 735 451 735 453 q 730 458 730 441 l 730 465 l 730 472 q 730 483 730 481 m 532 943 q 518 945 518 945 q 525 944 517 945 q 536 942 532 943 q 532 943 540 941 m 633 125 q 640 134 635 128 l 645 138 l 650 142 q 655 157 661 153 q 649 148 654 153 l 644 144 l 640 140 q 633 125 627 130 m 511 842 q 515 863 514 848 l 515 876 l 515 888 q 537 916 517 916 q 526 915 532 914 l 521 916 l 516 918 q 505 916 505 921 q 512 899 512 910 q 509 878 512 892 q 511 842 503 848 m 746 312 q 739 243 755 278 q 722 213 732 231 l 712 199 l 703 184 q 669 130 679 141 q 612 82 651 107 q 594 72 606 79 l 585 66 l 575 61 q 473 28 539 40 q 476 24 473 24 l 479 23 l 484 23 q 489 13 494 23 q 170 66 305 -29 q 24 334 37 161 q 26 629 16 433 l 30 707 l 33 787 q 35 943 37 876 q 313 900 115 930 q 302 467 302 767 q 301 436 302 456 l 300 419 l 298 402 q 302 339 296 361 q 326 302 307 320 l 334 294 l 343 286 q 361 269 355 276 q 405 280 372 277 l 418 282 l 431 283 q 457 291 446 286 q 492 393 489 315 q 491 471 493 420 l 490 492 l 490 514 q 489 558 489 538 q 500 932 489 825 q 730 911 579 906 l 728 846 l 725 782 q 724 649 723 707 q 727 635 722 635 l 730 636 l 732 636 q 735 633 734 636 q 724 507 726 584 l 724 474 l 725 441 q 725 376 725 399 q 666 168 722 222 q 677 176 673 176 q 679 172 680 177 q 674 162 677 168 q 666 152 670 156 q 717 214 694 163 q 746 312 734 255 m 591 61 q 578 42 591 52 q 557 29 569 34 q 549 28 545 24 q 575 45 551 33 q 591 61 585 50 z "},"v":{"ha":987,"x_min":20,"x_max":968,"o":"m 555 604 q 551 611 549 606 l 553 616 l 555 620 q 559 613 561 618 l 557 609 l 555 604 m 427 534 q 422 551 427 541 q 414 570 420 560 q 406 583 410 577 q 406 583 403 587 l 409 569 q 413 556 411 562 q 427 534 418 542 m 817 920 q 789 917 793 919 q 798 914 785 916 q 825 914 810 913 q 854 920 844 915 l 817 920 m 683 903 q 813 929 726 920 q 890 937 847 933 q 926 939 907 937 q 961 941 940 939 q 943 897 954 924 l 934 877 l 926 857 q 886 781 907 814 q 895 782 890 772 l 897 786 l 899 790 q 907 791 903 793 q 566 0 809 524 q 519 8 545 3 l 473 16 q 378 32 414 28 q 199 444 314 177 l 156 544 q 113 646 132 600 q 20 855 63 760 q 42 866 37 857 q 34 890 41 876 l 29 901 q 26 914 26 908 l 61 913 l 96 913 q 164 915 136 913 q 277 941 237 920 q 371 703 309 847 l 396 646 l 421 588 q 469 471 450 522 q 450 492 460 467 l 446 503 l 442 513 q 432 529 437 525 q 450 474 431 512 l 458 458 l 465 444 q 475 412 472 426 l 495 454 l 515 497 q 549 588 536 546 q 545 584 547 588 l 545 581 l 544 577 q 538 581 538 577 q 541 589 538 584 q 547 593 544 593 q 549 588 550 593 q 592 679 567 621 l 602 702 l 612 726 q 635 775 624 753 q 627 780 625 770 q 630 791 627 784 l 632 799 l 635 807 q 640 799 644 805 l 637 796 l 635 793 q 635 786 633 789 q 665 846 650 807 q 683 903 678 880 m 961 909 q 955 871 968 899 l 949 859 l 943 847 q 935 823 937 833 q 946 867 931 836 l 952 879 l 957 890 q 961 909 962 902 z "},"w":{"ha":1135,"x_min":20,"x_max":1116,"o":"m 817 593 q 821 595 819 601 q 822 583 823 589 q 818 581 821 575 q 817 593 816 587 m 806 572 q 810 573 808 579 q 812 562 812 567 q 808 560 810 554 q 806 572 805 566 m 1009 385 q 1008 397 1010 391 q 1004 395 1006 403 q 1005 384 1003 390 q 1009 385 1008 378 m 1042 529 q 1042 542 1040 534 l 1044 549 l 1045 557 q 1042 567 1049 572 q 1041 556 1043 562 l 1039 551 l 1037 546 q 1042 529 1032 534 m 683 871 q 686 880 686 874 q 682 888 685 884 q 676 892 679 892 q 673 887 673 892 q 677 880 673 888 l 680 877 l 682 873 q 683 871 683 871 m 646 914 q 663 913 656 917 q 668 908 665 911 l 673 903 q 673 917 678 912 q 659 920 668 920 q 644 918 650 921 q 646 914 640 916 m 1116 802 q 1063 539 1106 697 l 1046 476 l 1029 412 q 998 283 1009 338 q 1009 299 1004 288 q 988 147 1008 239 l 979 110 l 970 73 q 956 0 960 31 l 736 0 q 592 395 662 214 q 513 203 556 314 l 475 104 l 437 5 q 383 7 412 7 l 357 7 l 332 8 q 239 11 269 9 q 221 44 223 22 l 220 54 l 220 64 q 218 85 220 77 q 211 107 216 94 l 206 117 l 202 128 q 178 241 189 171 l 170 298 q 159 353 165 330 q 153 374 157 362 l 146 395 q 133 438 136 423 q 132 448 132 442 l 133 457 q 133 476 134 470 q 128 492 131 483 l 121 510 q 111 545 113 534 l 111 553 l 111 562 q 111 577 113 572 q 107 593 110 584 l 102 608 q 95 647 98 625 q 62 789 89 700 l 51 826 l 40 863 q 20 941 28 907 l 304 941 q 320 859 311 907 l 328 817 l 336 774 q 373 599 356 666 q 410 690 390 632 l 427 737 q 445 784 437 765 q 549 935 488 893 q 588 936 567 937 l 606 935 l 622 933 q 678 935 660 930 q 692 893 683 918 l 701 871 l 709 850 q 731 770 729 798 q 711 812 721 782 l 708 823 l 704 835 q 694 855 699 847 q 748 692 707 795 l 764 649 l 781 607 q 812 524 800 558 l 817 544 l 823 564 q 834 606 831 589 q 838 695 845 656 q 844 685 845 695 l 844 680 l 843 675 q 844 668 843 671 q 857 713 850 680 q 860 743 865 746 q 869 779 863 755 l 871 789 l 874 800 l 880 823 q 903 914 895 881 l 1116 914 q 1085 758 1107 857 l 1076 720 l 1067 682 q 1052 604 1058 639 q 1061 607 1063 623 l 1061 603 l 1060 598 l 1058 587 q 1057 567 1057 574 q 1090 682 1074 609 l 1096 711 l 1103 742 q 1116 802 1110 779 m 731 764 q 742 749 737 760 q 736 749 741 739 q 731 764 730 758 m 844 705 q 847 724 846 723 q 846 716 847 725 q 844 703 846 707 q 844 705 844 698 m 1046 433 q 1048 395 1055 420 l 1044 386 l 1041 376 q 1036 358 1037 364 q 1040 391 1033 366 l 1042 401 l 1045 412 q 1046 433 1047 424 z "},"x":{"ha":932,"x_min":20,"x_max":918,"o":"m 822 802 q 826 795 828 800 l 824 791 l 822 786 q 819 793 817 788 l 821 798 l 822 802 m 785 235 q 804 216 793 228 l 808 212 l 812 208 q 818 202 816 203 q 812 214 827 193 q 809 217 811 215 l 806 222 q 799 233 802 229 q 779 246 787 248 q 785 235 786 244 m 560 807 q 566 815 561 811 l 569 819 q 571 823 570 821 q 563 823 567 825 q 557 818 559 821 q 555 811 554 814 q 560 807 555 808 m 860 176 q 888 157 871 179 l 895 149 l 901 139 q 913 123 909 127 q 903 109 913 113 l 899 107 l 894 106 q 886 102 888 104 q 895 88 889 95 l 899 83 l 904 77 q 918 48 916 62 q 646 0 749 62 q 603 63 628 28 l 559 125 q 475 251 504 203 q 442 217 458 241 l 429 197 l 416 176 q 404 157 411 169 l 390 135 q 362 96 374 109 l 359 92 l 355 87 l 345 78 q 326 56 334 66 q 293 5 302 28 q 20 48 219 58 q 58 102 28 72 q 54 109 58 106 l 50 111 l 45 113 q 37 128 34 117 q 92 203 61 159 l 119 242 l 145 281 q 261 428 212 377 q 277 465 264 448 q 290 479 282 471 l 304 492 q 250 582 286 532 l 218 625 l 186 668 l 172 690 l 157 711 q 127 753 138 739 q 111 774 121 763 l 93 794 q 63 834 71 819 q 64 837 62 835 l 65 840 l 66 842 q 58 844 67 846 q 65 856 55 854 l 69 857 l 73 857 q 79 861 78 858 q 59 892 72 875 l 48 905 l 37 920 q 107 925 63 924 l 183 925 q 309 951 275 926 q 347 893 324 924 l 367 865 l 387 837 q 464 722 441 764 q 553 829 503 757 l 572 857 l 593 886 q 635 941 616 918 q 608 889 632 923 l 598 875 l 588 861 q 571 834 576 845 q 606 872 585 840 l 615 886 l 624 900 q 640 925 634 916 q 648 924 644 924 q 653 926 651 924 q 654 929 655 928 q 651 930 654 930 q 701 930 667 932 q 732 928 713 929 l 749 927 l 766 926 q 903 925 860 920 q 888 900 897 913 l 880 889 l 871 878 q 854 829 852 852 q 850 836 848 831 l 852 840 l 854 844 q 801 753 801 802 q 792 758 787 753 l 795 761 l 798 764 q 801 770 801 767 q 776 748 789 770 q 764 711 763 726 q 743 699 756 712 q 721 671 733 689 q 703 642 711 656 q 699 631 696 629 q 654 574 685 618 q 603 497 625 534 q 637 449 617 477 l 671 402 q 736 304 713 344 q 725 334 742 315 l 718 342 l 711 350 q 705 369 705 360 l 712 360 l 719 351 q 736 337 728 341 q 689 412 722 366 l 676 430 l 663 448 q 640 486 650 469 q 757 325 692 429 l 783 282 l 810 239 q 865 155 842 189 q 867 164 871 153 q 860 176 864 175 m 684 596 l 678 588 l 672 580 l 667 572 q 669 590 659 578 q 688 604 678 601 l 684 596 m 806 267 q 825 256 814 273 l 829 248 l 834 241 q 844 230 840 233 q 826 243 836 224 l 821 250 l 817 258 q 806 267 812 266 z "},"y":{"ha":857,"x_min":20,"x_max":838,"o":"m 315 332 q 319 330 318 342 q 320 319 320 326 q 319 310 320 313 q 315 311 316 299 q 314 323 314 316 q 315 332 314 328 m 315 43 q 320 31 321 36 q 316 25 320 26 q 311 28 312 24 q 315 43 309 34 m 229 551 q 239 532 237 534 q 238 537 241 530 q 232 549 235 545 q 229 551 229 555 m 250 524 q 248 518 246 523 l 249 516 l 250 514 q 250 508 251 511 q 241 515 243 507 l 241 518 l 239 521 q 234 524 237 524 q 258 469 235 505 l 269 456 l 278 441 q 293 412 289 425 q 208 538 252 457 l 190 572 l 172 605 q 138 668 151 646 q 134 660 130 666 l 136 657 l 138 654 q 138 647 140 650 q 74 725 106 675 q 47 768 64 741 l 34 791 l 20 812 q 27 817 22 815 l 32 817 l 36 818 q 47 829 47 821 q 36 852 44 840 l 28 862 l 20 871 l 58 873 l 94 875 q 165 882 134 878 q 282 920 240 893 q 323 869 302 901 l 340 841 l 357 812 l 374 786 l 393 760 q 427 705 415 727 q 571 914 493 771 q 838 877 655 867 q 831 863 836 870 l 822 850 l 814 838 q 806 823 809 830 q 812 817 808 820 l 815 814 l 819 812 q 827 796 827 806 q 790 738 802 784 q 674 570 745 684 l 647 527 l 619 484 q 560 401 588 435 l 560 54 q 554 41 559 47 l 549 37 l 545 32 q 539 0 533 20 l 325 0 q 325 108 325 43 l 325 162 l 324 216 q 325 406 324 343 l 307 434 l 289 461 q 256 519 268 494 q 250 524 251 517 m 149 610 q 153 605 146 613 q 161 594 157 598 q 170 588 167 589 q 156 589 164 578 q 149 610 149 599 z "},"z":{"ha":651,"x_min":16,"x_max":635,"o":"m 347 312 q 347 297 353 310 q 340 288 345 293 l 338 283 q 336 280 336 281 q 338 293 330 281 l 340 298 l 343 302 q 347 312 347 309 m 501 45 q 491 44 498 44 l 485 45 l 479 45 q 464 39 465 47 q 474 40 467 41 l 480 39 l 486 39 q 501 45 500 38 m 581 39 q 605 42 599 40 q 603 45 611 44 q 587 45 595 45 q 576 43 581 44 q 573 41 572 41 q 581 39 574 39 m 619 45 q 603 210 618 170 l 603 188 l 603 165 q 603 119 602 136 q 619 45 604 68 m 592 697 q 602 705 599 698 l 605 712 q 608 718 606 716 q 604 679 618 701 q 589 661 599 672 l 583 652 l 576 644 l 562 621 l 548 599 q 517 558 532 574 q 536 600 515 570 l 545 611 q 552 622 549 618 q 560 638 559 633 q 532 609 545 631 l 528 599 l 523 589 q 512 569 517 576 q 476 515 498 547 l 457 488 l 437 459 q 362 345 387 387 q 362 323 371 334 q 360 328 358 324 l 361 330 l 362 333 q 362 339 363 336 q 338 307 351 330 l 332 298 l 327 290 q 314 275 321 281 q 359 256 326 258 q 389 258 369 256 l 406 258 l 421 258 l 470 259 l 494 259 l 517 260 q 603 258 572 260 q 605 246 608 254 l 604 242 l 602 238 q 603 227 602 233 q 612 220 609 227 l 613 218 l 614 214 q 619 205 616 209 q 624 106 618 162 l 627 83 l 630 60 q 635 13 633 33 q 503 22 589 19 l 469 23 l 434 24 q 368 28 396 26 q 382 22 371 24 l 391 20 q 399 18 397 20 q 330 6 374 3 l 313 8 l 295 10 q 260 13 273 13 q 244 8 254 13 l 237 4 q 229 2 233 3 q 126 3 191 -2 l 100 4 l 75 6 q 26 7 46 7 q 32 81 33 42 q 26 151 32 107 q 26 280 16 239 q 52 330 30 299 l 61 343 l 71 356 q 90 382 84 374 q 140 454 111 412 l 189 528 q 288 670 252 621 q 58 675 200 683 q 52 686 56 680 l 47 698 q 31 713 41 710 q 30 773 31 741 l 28 800 l 27 827 q 26 948 24 895 q 318 946 155 950 l 350 945 l 382 945 q 451 944 420 944 q 614 943 532 943 q 604 842 604 909 l 604 814 l 604 785 q 603 729 604 751 q 604 730 603 729 l 606 730 q 608 734 610 732 q 602 714 611 728 l 598 709 l 595 705 q 592 697 592 700 m 389 371 q 396 381 397 382 q 391 373 395 380 q 385 364 386 366 q 389 371 382 362 m 416 414 q 418 420 416 420 q 421 414 420 419 q 422 406 422 409 q 416 403 420 401 q 412 400 411 397 l 414 403 l 415 406 q 416 414 416 411 z "},"{":{"ha":529,"x_min":20,"x_max":512,"o":"m 133 765 q 129 772 127 768 l 131 777 l 133 781 q 136 774 138 779 l 134 770 l 133 765 m 37 498 q 68 542 47 515 l 85 562 q 100 583 94 574 q 138 701 133 633 q 141 741 139 719 l 143 779 q 149 851 146 827 q 171 886 161 864 l 178 903 q 186 920 182 914 q 233 986 208 959 q 304 1033 267 1021 q 328 1037 313 1036 l 342 1038 l 355 1038 q 406 1048 390 1040 q 340 1046 380 1057 l 323 1041 l 307 1036 q 277 1027 288 1029 q 309 1047 286 1042 q 331 1050 316 1048 l 341 1052 l 352 1054 l 372 1059 l 394 1064 q 437 1070 420 1070 l 437 1038 l 469 1038 q 469 899 471 986 q 474 905 473 899 l 475 910 l 475 915 q 500 857 491 888 q 507 792 511 821 q 456 789 487 794 l 444 788 l 432 787 q 406 787 418 785 q 391 713 397 761 l 388 693 l 385 672 l 379 629 q 330 482 363 524 q 353 420 334 458 l 361 404 l 368 389 q 378 354 375 371 q 379 310 380 342 l 378 297 l 378 286 q 378 263 377 272 q 385 254 379 258 q 388 252 386 253 q 389 252 389 252 q 387 243 389 249 l 386 238 l 384 233 q 378 210 378 218 q 410 119 380 169 l 469 119 q 512 12 459 31 q 469 -96 459 -25 q 362 -122 402 -86 q 256 -74 305 -110 l 250 -69 l 243 -64 q 228 -54 235 -58 q 197 -29 210 -41 q 154 28 162 3 q 155 27 154 27 q 158 28 157 28 l 159 31 q 159 33 160 32 q 154 39 157 35 q 146 50 150 44 q 133 76 136 64 q 122 140 126 98 q 119 178 121 153 l 117 217 q 85 354 109 315 q 75 365 81 359 l 68 370 l 61 376 q 37 407 43 391 q 29 436 31 419 q 28 468 28 447 q 20 525 27 509 q 58 559 35 536 l 76 577 q 95 594 86 587 q 96 601 95 599 q 98 603 97 603 q 100 600 99 602 q 100 594 101 597 q 84 570 95 583 l 74 561 l 64 551 q 37 498 39 526 z "},"|":{"ha":322,"x_min":12,"x_max":300,"o":"m 47 369 q 47 380 47 372 l 47 387 l 47 395 q 41 401 47 412 q 41 390 42 399 l 41 383 l 41 376 q 47 369 42 359 m 20 1075 q 88 1065 45 1080 l 105 1058 l 123 1051 q 159 1042 144 1044 q 193 1042 174 1041 l 210 1043 l 228 1044 q 298 1038 271 1046 q 298 750 300 915 q 296 604 298 686 l 295 531 l 294 459 q 293 -48 287 96 q 266 -56 275 -45 q 260 -67 262 -60 l 258 -73 l 256 -80 q 26 -117 158 -73 q 31 513 18 129 q 39 467 39 493 l 40 455 l 40 442 q 41 412 41 425 q 46 726 54 518 l 43 804 q 41 881 41 848 q 47 1027 41 965 q 49 1031 47 1027 l 50 1034 l 52 1037 q 47 1048 54 1045 q 57 1054 46 1055 l 62 1053 l 66 1053 q 74 1053 71 1053 q 50 1062 68 1059 l 43 1063 l 37 1065 q 26 1069 30 1066 l 26 957 q 16 1010 12 973 l 18 1026 l 20 1042 q 20 1075 22 1061 m 36 871 q 41 870 40 883 q 42 859 42 865 q 41 850 42 853 q 37 852 37 839 q 36 863 36 857 q 36 871 36 869 m 154 1059 q 172 1064 157 1067 l 177 1063 l 182 1061 q 191 1059 189 1059 q 177 1057 189 1052 l 172 1059 l 166 1060 q 154 1059 159 1061 z "},"}":{"ha":532,"x_min":20,"x_max":513,"o":"m 325 977 l 336 977 l 336 966 l 325 966 l 325 977 m 384 736 q 391 725 389 734 l 393 718 l 395 710 q 384 736 382 711 m 443 399 q 453 407 446 401 q 464 418 458 412 q 471 427 469 424 q 469 427 473 430 q 459 419 466 425 q 448 408 454 414 q 441 399 443 402 q 443 399 439 396 m 421 362 q 432 365 423 353 l 435 369 q 438 372 437 371 q 443 368 441 374 q 416 298 437 326 q 384 20 416 192 q 268 -80 316 -53 q 85 -113 191 -123 l 83 -106 l 82 -100 q 80 -86 81 -90 q 58 -76 76 -72 q 47 54 62 -15 l 40 83 l 33 111 q 20 170 24 146 q 41 169 28 169 l 68 169 q 122 165 102 169 q 138 286 134 211 l 140 314 q 142 343 141 330 q 154 405 146 376 q 177 457 170 417 l 180 473 l 182 489 q 191 517 186 507 q 138 822 128 657 l 31 822 q 41 878 34 842 l 46 905 l 52 932 q 58 1057 62 999 q 75 1062 70 1055 q 77 1069 77 1065 l 79 1078 l 100 1078 l 121 1079 q 162 1078 147 1079 q 229 1063 208 1077 q 168 1065 210 1066 l 149 1065 l 130 1063 q 90 1063 105 1063 q 142 1057 111 1055 l 155 1057 l 167 1058 q 191 1057 181 1059 q 288 1008 244 1050 q 319 973 303 994 l 326 965 l 331 958 q 341 945 338 949 q 362 902 341 922 l 359 903 l 357 905 q 352 907 355 907 q 357 890 355 901 l 359 880 l 360 871 q 373 838 365 847 q 397 653 362 741 q 491 538 431 565 q 493 526 498 536 q 491 519 491 522 q 496 512 491 515 q 486 578 512 545 l 474 592 l 462 606 q 443 635 448 622 q 481 595 463 625 l 488 583 l 495 571 q 512 549 504 557 q 505 486 513 521 l 501 471 l 497 456 q 491 421 493 437 l 473 408 l 454 393 q 421 362 434 377 m 406 656 q 403 663 401 667 q 408 650 404 660 q 412 641 412 642 q 406 656 412 641 m 501 421 q 496 398 513 409 l 490 393 l 483 389 q 475 378 475 384 q 484 397 468 386 l 491 401 q 497 407 494 404 q 501 421 503 413 z "},"~":{"ha":719,"x_min":7,"x_max":718,"o":"m 441 612 q 447 603 447 621 l 447 595 l 447 587 q 447 574 447 577 q 441 584 441 565 l 441 591 l 441 600 q 441 612 442 609 m 463 548 q 463 576 463 559 l 463 590 l 463 604 q 458 655 464 638 q 452 645 451 655 l 452 640 l 453 635 q 452 628 453 631 q 446 641 446 629 l 447 646 l 448 651 q 447 660 448 657 q 563 661 500 656 l 590 662 q 620 663 607 663 q 693 665 656 665 q 661 425 718 528 q 473 313 599 315 q 359 341 416 311 q 311 371 336 353 l 288 387 l 265 404 q 259 364 258 393 l 260 352 l 260 340 q 260 318 261 326 l 198 318 l 137 318 q 19 323 65 318 q 153 633 7 584 q 137 623 148 627 q 224 642 158 635 q 319 644 286 648 l 317 642 l 315 639 q 313 633 313 636 q 353 622 334 632 q 368 612 359 618 l 382 602 q 418 582 392 605 l 429 572 l 440 563 q 463 548 454 553 z "},"":{"ha":570,"x_min":26,"x_max":549,"o":"m 545 983 q 538 966 549 979 l 534 960 l 530 955 q 523 945 524 949 q 533 939 522 938 l 538 939 l 542 940 q 549 940 547 941 q 487 859 529 912 l 455 820 l 424 779 q 315 603 352 684 q 178 610 272 608 l 139 610 l 100 611 q 26 614 56 612 q 80 704 45 653 l 109 747 l 138 790 q 132 761 141 777 l 129 754 l 124 747 q 117 731 119 739 l 127 746 l 138 761 q 160 793 152 779 q 186 859 184 830 q 189 855 191 858 l 187 852 q 186 849 186 850 q 210 876 191 848 q 224 907 229 905 q 231 918 220 912 q 241 924 238 920 q 245 940 245 930 q 264 940 252 941 l 273 939 l 283 939 q 309 950 305 939 q 290 961 305 959 q 276 961 285 962 l 261 961 q 279 966 254 968 l 289 966 q 298 966 295 966 q 309 972 309 967 q 373 956 332 954 q 435 976 369 975 l 465 976 q 494 976 482 976 q 545 983 527 977 z "},"":{"ha":671,"x_min":22,"x_max":648,"o":"m 605 593 q 559 538 595 571 q 528 511 547 526 l 513 498 l 505 492 l 498 486 q 648 353 563 432 q 514 214 570 270 q 505 204 512 212 l 497 197 l 490 189 q 471 171 471 171 q 437 200 466 171 q 415 222 427 209 l 411 226 l 407 230 q 402 235 403 234 q 368 272 385 252 l 353 288 l 338 304 q 199 176 282 267 q 155 219 179 194 l 133 241 l 112 263 q 22 347 58 319 q 55 382 36 363 l 90 416 q 156 486 135 460 q 125 519 143 500 l 94 552 q 33 620 55 593 q 204 785 120 728 l 235 751 l 266 716 q 332 652 302 677 q 330 649 332 649 l 328 649 l 327 650 q 321 647 322 652 q 363 667 342 644 l 372 676 l 380 686 q 397 705 391 700 q 471 775 445 754 q 478 760 470 768 q 486 753 481 757 l 496 745 q 514 722 520 728 q 532 705 522 713 l 551 691 q 584 663 573 673 q 592 652 589 659 l 595 648 l 598 642 q 616 625 605 631 q 577 578 605 604 l 566 568 l 555 557 q 536 534 543 545 q 570 557 548 536 q 589 576 579 565 q 605 593 597 584 z "},"":{"ha":748,"x_min":19,"x_max":719,"o":"m 201 184 q 189 215 191 187 q 201 243 186 242 q 198 214 193 233 l 200 206 l 201 199 q 201 184 203 190 m 323 602 q 315 601 321 601 l 309 602 l 304 602 q 292 596 292 603 q 300 597 294 597 l 306 596 l 311 595 q 323 602 323 595 m 19 585 q 114 598 41 600 l 146 597 l 178 597 q 238 596 216 595 q 249 607 228 609 q 219 617 241 616 q 199 618 212 618 l 189 618 l 179 618 q 253 623 206 630 l 273 619 l 294 615 q 340 612 319 612 l 323 621 l 307 628 q 275 646 287 638 q 233 703 241 669 q 223 707 229 705 l 212 709 q 195 719 199 713 l 193 734 l 191 749 q 190 783 189 766 q 197 774 194 783 q 199 753 198 767 q 206 724 203 723 q 216 722 216 729 l 216 719 l 216 716 q 222 714 217 713 q 250 842 203 782 q 366 896 298 901 q 444 859 412 892 q 481 783 473 829 q 473 699 489 739 q 414 633 455 656 q 562 634 464 634 l 600 633 l 640 633 l 719 633 q 703 576 714 611 l 695 547 l 687 519 q 676 382 669 450 q 644 351 646 389 q 382 355 612 353 q 447 316 420 348 q 481 246 473 287 q 477 168 490 205 q 431 104 465 128 q 317 87 381 69 q 233 163 252 106 q 224 168 230 166 l 218 168 l 212 169 q 201 184 198 172 q 212 186 208 193 l 214 183 l 216 180 q 222 174 219 176 q 239 289 215 241 q 323 351 267 344 q 223 362 294 364 l 194 361 l 165 360 q 110 361 131 359 q 30 382 78 390 q 28 435 28 403 l 30 463 l 31 490 q 19 585 33 558 z "},"":{"ha":326,"x_min":9,"x_max":335,"o":"m 265 661 q 260 662 261 650 q 260 673 260 667 q 260 682 260 679 q 265 680 264 693 q 266 669 266 676 q 265 661 266 664 m 255 591 q 9 581 176 574 q 78 970 32 861 q 197 971 114 972 l 230 970 l 264 970 q 335 970 304 970 q 321 930 328 957 l 316 911 q 308 890 313 899 q 303 886 307 887 l 300 886 l 296 886 q 281 864 288 883 q 281 857 281 861 l 281 850 q 281 837 283 841 q 277 831 280 833 q 273 827 276 829 q 265 821 267 824 q 268 812 264 817 l 270 809 q 271 805 271 807 q 269 800 271 804 l 266 794 l 263 788 q 255 762 256 770 q 254 739 254 755 l 255 726 q 255 714 255 719 q 252 696 254 707 l 249 679 q 255 644 246 659 q 262 632 267 651 l 260 623 l 257 612 q 255 591 254 600 z "},"":{"ha":290,"x_min":-66,"x_max":281,"o":"m 3 890 q 9 888 7 901 q 9 878 9 884 q 9 869 9 871 q 4 870 5 857 q 3 881 3 875 q 3 890 3 887 m 14 960 q 260 970 92 977 q 191 580 237 689 q 73 579 155 578 l 39 580 l 5 581 q -66 580 -35 581 q -52 620 -58 593 l -47 640 q -39 660 -44 651 q -34 664 -37 663 l -31 665 l -28 665 q -12 687 -18 667 q -12 693 -12 690 l -12 701 q -12 713 -14 710 q -8 720 -11 717 q -3 723 -7 721 q 3 730 3 727 q 1 739 5 734 l -1 741 q -1 745 -2 743 q 1 751 -1 746 l 3 756 l 6 763 q 14 788 14 781 q 15 812 16 796 l 14 825 q 14 836 14 831 q 17 854 15 843 l 20 871 q 14 906 23 892 q 7 918 2 899 l 9 928 l 12 938 q 14 960 15 951 m 275 890 q 280 888 279 901 q 281 878 281 884 q 280 869 281 871 q 275 870 276 857 q 275 881 275 875 q 275 890 275 887 z "},"":{"ha":271,"x_min":-66,"x_max":260,"o":"m 3 130 q 9 129 7 142 q 9 118 9 124 q 9 109 9 112 q 4 111 5 98 q 3 121 3 115 q 3 130 3 127 m 14 200 q 260 210 92 217 q 191 -180 237 -71 q 73 -180 155 -182 l 39 -180 l 5 -179 q -66 -180 -35 -179 q -52 -140 -58 -166 l -47 -120 q -39 -100 -44 -109 q -34 -96 -37 -96 l -31 -95 l -28 -94 q -12 -73 -18 -92 q -12 -66 -12 -70 l -12 -59 q -12 -46 -14 -50 q -8 -40 -11 -43 q -3 -37 -7 -39 q 3 -30 3 -33 q 1 -21 5 -26 l -1 -18 q -1 -14 -2 -16 q 1 -8 -1 -14 l 3 -3 l 6 3 q 14 28 14 21 q 15 53 16 37 l 14 65 q 14 77 14 72 q 17 94 15 83 l 20 112 q 14 146 23 133 q 7 159 2 140 l 9 168 l 12 178 q 14 200 15 191 z "},"":{"ha":557,"x_min":2,"x_max":600,"o":"m 530 661 q 525 662 526 650 q 524 673 524 667 q 524 682 524 679 q 530 680 528 693 q 530 669 530 676 q 530 661 530 664 m 519 591 q 273 581 441 574 q 342 970 296 861 q 461 971 378 972 l 494 970 l 529 970 q 600 970 568 970 q 586 930 592 957 l 581 911 q 572 890 577 899 q 568 886 571 887 l 564 886 l 561 886 q 546 864 552 883 q 545 857 545 861 l 546 850 q 546 837 547 841 q 542 831 545 833 q 537 827 541 829 q 530 821 531 824 q 532 812 528 817 l 534 809 q 535 805 536 807 q 533 800 535 804 l 530 794 l 528 788 q 519 762 520 770 q 519 739 518 755 l 519 726 q 519 714 519 719 q 517 696 519 707 l 513 679 q 519 644 511 659 q 527 632 532 651 l 524 623 l 522 612 q 519 591 519 600 m 258 661 q 254 662 254 650 q 253 673 253 667 q 253 682 253 679 q 258 680 257 693 q 259 669 259 676 q 258 661 259 664 m 248 591 q 2 581 170 574 q 71 970 25 861 q 190 971 107 972 l 223 970 l 258 970 q 328 970 297 970 q 315 930 321 957 l 309 911 q 301 890 306 899 q 296 886 300 887 l 293 886 l 290 886 q 275 864 281 883 q 274 857 274 861 l 275 850 q 275 837 276 841 q 271 831 273 833 q 266 827 269 829 q 258 821 260 824 q 261 812 257 817 l 263 809 q 264 805 264 807 q 262 800 264 804 l 259 794 l 256 788 q 248 762 249 770 q 248 739 247 755 l 248 726 q 248 714 248 719 q 245 696 248 707 l 242 679 q 248 644 239 659 q 256 632 260 651 l 253 623 l 250 612 q 248 591 248 600 z "},"":{"ha":557,"x_min":-66,"x_max":532,"o":"m 3 890 q 9 888 7 901 q 9 878 9 884 q 9 869 9 871 q 4 870 5 857 q 3 881 3 875 q 3 890 3 887 m 14 960 q 260 970 92 977 q 191 580 237 689 q 73 579 155 578 l 39 580 l 5 581 q -66 580 -35 581 q -52 620 -58 593 l -47 640 q -39 660 -44 651 q -34 664 -37 663 l -31 665 l -28 665 q -12 687 -18 667 q -12 693 -12 690 l -12 701 q -12 713 -14 710 q -8 720 -11 717 q -3 723 -7 721 q 3 730 3 727 q 1 739 5 734 l -1 741 q -1 745 -2 743 q 1 751 -1 746 l 3 756 l 6 763 q 14 788 14 781 q 15 812 16 796 l 14 825 q 14 836 14 831 q 17 854 15 843 l 20 871 q 14 906 23 892 q 7 918 2 899 l 9 928 l 12 938 q 14 960 15 951 m 275 890 q 280 888 279 901 q 281 878 281 884 q 280 869 281 871 q 275 870 276 857 q 275 881 275 875 q 275 890 275 887 m 286 960 q 532 970 363 977 q 462 580 509 689 q 344 579 427 578 l 311 580 l 276 581 q 205 580 237 581 q 219 620 213 593 l 224 640 q 232 660 227 651 q 237 664 234 663 l 240 665 l 243 665 q 259 687 253 667 q 260 693 260 690 l 259 701 q 259 713 258 710 q 263 720 260 717 q 268 723 264 721 q 275 730 274 727 q 273 739 276 734 l 270 741 q 270 745 269 743 q 272 751 270 746 l 275 756 l 277 763 q 286 788 285 781 q 286 812 287 796 l 286 825 q 286 836 286 831 q 288 854 286 843 l 292 871 q 286 906 294 892 q 278 918 273 899 l 281 928 l 283 938 q 286 960 286 951 z "},"":{"ha":555,"x_min":-66,"x_max":532,"o":"m 3 130 q 9 129 7 142 q 9 118 9 124 q 9 109 9 112 q 4 111 5 98 q 3 121 3 115 q 3 130 3 127 m 14 200 q 260 210 92 217 q 191 -180 237 -71 q 73 -180 155 -182 l 39 -180 l 5 -179 q -66 -180 -35 -179 q -52 -140 -58 -166 l -47 -120 q -39 -100 -44 -109 q -34 -96 -37 -96 l -31 -95 l -28 -94 q -12 -73 -18 -92 q -12 -66 -12 -70 l -12 -59 q -12 -46 -14 -50 q -8 -40 -11 -43 q -3 -37 -7 -39 q 3 -30 3 -33 q 1 -21 5 -26 l -1 -18 q -1 -14 -2 -16 q 1 -8 -1 -14 l 3 -3 l 6 3 q 14 28 14 21 q 15 53 16 37 l 14 65 q 14 77 14 72 q 17 94 15 83 l 20 112 q 14 146 23 133 q 7 159 2 140 l 9 168 l 12 178 q 14 200 15 191 m 275 130 q 280 129 279 142 q 281 118 281 124 q 280 109 281 112 q 275 111 276 98 q 275 121 275 115 q 275 130 275 127 m 286 200 q 532 210 363 217 q 462 -180 509 -71 q 344 -180 427 -182 l 311 -180 l 276 -179 q 205 -180 237 -179 q 219 -140 213 -166 l 224 -120 q 232 -100 227 -109 q 237 -96 234 -96 l 240 -95 l 243 -94 q 259 -73 253 -92 q 260 -66 260 -70 l 259 -59 q 259 -46 258 -50 q 263 -40 260 -43 q 268 -37 264 -39 q 275 -30 274 -33 q 273 -21 276 -26 l 270 -18 q 270 -14 269 -16 q 272 -8 270 -14 l 275 -3 l 277 3 q 286 28 285 21 q 286 53 287 37 l 286 65 q 286 77 286 72 q 288 94 286 83 l 292 112 q 286 146 294 133 q 278 159 273 140 l 281 168 l 283 178 q 286 200 286 191 z "},"":{"ha":654,"x_min":15,"x_max":642,"o":"m 630 648 q 642 624 642 647 q 635 593 642 602 q 634 618 631 597 q 635 634 635 628 q 630 648 634 643 m 208 203 q 212 204 210 211 q 213 192 214 198 q 209 191 212 184 q 208 203 207 197 m 256 253 q 248 252 254 252 l 243 253 l 239 253 q 229 247 229 254 q 237 248 231 248 l 241 247 l 245 247 q 256 253 256 245 m 283 264 q 267 264 271 266 q 265 260 262 262 q 273 258 268 257 q 283 264 279 258 m 598 560 q 607 564 602 552 q 612 570 610 570 q 619 566 615 572 q 553 448 604 507 q 510 403 538 430 l 499 393 l 489 382 q 470 363 477 371 q 466 192 471 290 q 464 155 465 178 l 463 136 l 462 119 q 459 55 460 79 q 432 27 427 61 q 307 22 372 31 q 251 12 283 18 l 224 6 l 197 0 q 197 24 197 9 l 197 50 q 202 94 197 79 q 213 39 214 77 q 219 142 220 73 l 218 170 l 218 198 q 218 253 217 231 q 250 258 225 260 q 224 269 245 269 l 215 269 l 205 269 q 186 269 193 269 q 224 509 170 408 q 357 659 264 587 q 298 672 336 704 q 261 599 262 642 q 206 593 237 609 l 195 587 l 183 580 q 159 571 170 572 q 92 583 133 568 l 75 590 l 58 596 q 20 604 38 603 q 101 855 15 770 q 341 928 185 939 q 338 932 341 932 l 334 933 l 331 934 q 355 934 352 935 q 364 930 357 934 l 368 929 l 372 927 q 384 923 378 925 l 382 926 l 380 930 q 374 934 378 933 q 377 937 374 938 q 383 934 380 937 q 389 926 387 930 q 389 918 391 921 q 539 824 492 899 q 555 816 546 817 l 559 815 l 562 814 q 571 808 566 812 q 586 760 576 789 l 601 711 q 625 610 618 654 q 610 587 616 604 l 604 573 q 598 560 602 565 z "},"":{"ha":654,"x_min":15,"x_max":642,"o":"m 630 648 q 642 624 642 647 q 635 593 642 602 q 634 618 631 597 q 635 634 635 628 q 630 648 634 643 m 208 203 q 212 204 210 211 q 213 192 214 198 q 209 191 212 184 q 208 203 207 197 m 256 253 q 248 252 254 252 l 243 253 l 239 253 q 229 247 229 254 q 237 248 231 248 l 241 247 l 245 247 q 256 253 256 245 m 283 264 q 267 264 271 266 q 265 260 262 262 q 273 258 268 257 q 283 264 279 258 m 598 560 q 607 564 602 552 q 612 570 610 570 q 619 566 615 572 q 553 448 604 507 q 510 403 538 430 l 499 393 l 489 382 q 470 363 477 371 q 466 192 471 290 q 464 155 465 178 l 463 136 l 462 119 q 459 55 460 79 q 432 27 427 61 q 307 22 372 31 q 251 12 283 18 l 224 6 l 197 0 q 197 24 197 9 l 197 50 q 202 94 197 79 q 213 39 214 77 q 219 142 220 73 l 218 170 l 218 198 q 218 253 217 231 q 250 258 225 260 q 224 269 245 269 l 215 269 l 205 269 q 186 269 193 269 q 224 509 170 408 q 357 659 264 587 q 298 672 336 704 q 261 599 262 642 q 206 593 237 609 l 195 587 l 183 580 q 159 571 170 572 q 92 583 133 568 l 75 590 l 58 596 q 20 604 38 603 q 101 855 15 770 q 341 928 185 939 q 338 932 341 932 l 334 933 l 331 934 q 355 934 352 935 q 364 930 357 934 l 368 929 l 372 927 q 384 923 378 925 l 382 926 l 380 930 q 374 934 378 933 q 377 937 374 938 q 383 934 380 937 q 389 926 387 930 q 389 918 391 921 q 539 824 492 899 q 555 816 546 817 l 559 815 l 562 814 q 571 808 566 812 q 586 760 576 789 l 601 711 q 625 610 618 654 q 610 587 616 604 l 604 573 q 598 560 602 565 z "}}}
